<svg width="40" height="40" viewBox="0 0 40 40" fill="none" xmlns="http://www.w3.org/2000/svg">
<g clip-path="url(#clip0_674_3064)">
<path d="M0 0H40V40H0V0Z" fill="#74ACDF"/>
<path d="M0 13.3359H40V26.6719H0V13.3359Z" fill="white"/>
<path d="M19.7441 20.1037L22.0241 25.0637C22.0241 25.0637 22.0641 25.1597 22.1281 25.1357C22.1921 25.1037 22.1521 25.0077 22.1521 25.0077L20.2561 19.8877M20.2001 21.8237C20.1681 22.5757 20.6321 22.9917 20.5761 23.6637C20.5121 24.3437 20.8801 24.7197 20.9761 24.9837C21.0561 25.2477 20.8801 25.3997 20.9521 25.4397C21.0321 25.4797 21.1921 25.2717 21.1441 24.8957C21.0881 24.5277 20.8081 24.4157 20.8721 23.5917C20.9361 22.7677 20.5361 22.5757 20.6321 21.8317" fill="#F6B40E"/>
<path fill-rule="evenodd" clip-rule="evenodd" d="M22.193 24.9921L20.2973 19.873L20.2148 19.9036L22.1111 25.0244L22.1114 25.0251L22.1114 25.0252L22.1115 25.0252L22.1115 25.0254C22.1117 25.0258 22.1119 25.0265 22.1123 25.0274C22.113 25.0294 22.114 25.0323 22.1151 25.0361C22.1173 25.0437 22.1195 25.0535 22.1202 25.0635C22.1216 25.0831 22.1172 25.0914 22.1105 25.0958C22.1055 25.0969 22.0981 25.0954 22.0855 25.0807C22.0791 25.0732 22.0737 25.0647 22.0699 25.0577C22.068 25.0543 22.0666 25.0515 22.0657 25.0496C22.0653 25.0487 22.065 25.048 22.0648 25.0476L22.0647 25.0474L22.0647 25.0473L22.0644 25.0467L20.6623 21.9964C20.6642 21.9465 20.6685 21.8938 20.6757 21.838L20.5884 21.8267C20.5881 21.8291 20.5878 21.8315 20.5875 21.8339L19.7841 20.0859L19.7041 20.1227L20.5737 22.0144C20.5666 22.2932 20.6318 22.4934 20.6983 22.696L20.6992 22.6988C20.7785 22.9406 20.8594 23.1874 20.8282 23.5889C20.7958 24.0069 20.8505 24.2476 20.9221 24.4313C20.9451 24.4902 20.9704 24.5445 20.994 24.5952C21.0062 24.6213 21.0179 24.6465 21.0287 24.671C21.061 24.7441 21.0873 24.816 21.1005 24.9024C21.1235 25.0834 21.0961 25.2206 21.0562 25.3057C21.0361 25.3486 21.0139 25.3761 20.9956 25.3903C20.9889 25.3955 20.9834 25.3983 20.9795 25.3998C20.9796 25.3994 20.9796 25.399 20.9797 25.3985C20.9817 25.3895 20.9853 25.378 20.9907 25.3625C20.9922 25.3582 20.9939 25.3535 20.9956 25.3485C20.9997 25.3368 21.0044 25.3237 21.0089 25.3101C21.0353 25.2298 21.0619 25.1158 21.0182 24.9716L21.0178 24.9704L21.0174 24.9693C20.9919 24.8991 20.9489 24.8227 20.9024 24.7406L20.8989 24.7345C20.8527 24.6529 20.8021 24.5635 20.7562 24.4622C20.6625 24.2553 20.5888 23.999 20.6199 23.6684L20.6199 23.668C20.6486 23.3237 20.5447 23.0447 20.4409 22.7659L20.4383 22.759C20.3333 22.4768 20.2285 22.1924 20.244 21.8262L20.1561 21.8225C20.1397 22.2083 20.2509 22.5078 20.3558 22.7897L20.3561 22.7904C20.4613 23.0729 20.5592 23.3359 20.5323 23.6604C20.4994 24.0097 20.5777 24.2814 20.676 24.4985C20.7236 24.6035 20.7759 24.6959 20.8218 24.777L20.8258 24.784C20.873 24.8674 20.9118 24.9367 20.9343 24.9982C20.9701 25.1175 20.9488 25.211 20.9253 25.2826C20.9211 25.2953 20.917 25.3068 20.9131 25.318C20.9112 25.3233 20.9094 25.3284 20.9076 25.3336C20.9022 25.3491 20.8969 25.3652 20.8937 25.3801C20.8906 25.3946 20.8883 25.4129 20.8932 25.4313C20.8986 25.4521 20.9119 25.4683 20.9307 25.4788L20.9315 25.4793L20.9324 25.4797C20.9741 25.5005 21.0176 25.4846 21.0495 25.4599C21.0822 25.4345 21.112 25.394 21.1359 25.343C21.1841 25.2402 21.2126 25.0855 21.1877 24.8908L21.1876 24.8897C21.1728 24.7923 21.1431 24.7124 21.1092 24.6354C21.0969 24.6076 21.0845 24.5809 21.0719 24.5541C21.0491 24.5052 21.0261 24.456 21.0041 24.3993C20.9377 24.2291 20.8844 24.0018 20.9159 23.5957C20.9485 23.1767 20.8631 22.9164 20.783 22.6721L20.7819 22.6686C20.7351 22.5258 20.6904 22.3887 20.6711 22.2264L21.9838 25.082L21.9843 25.0832C21.9848 25.0842 21.9854 25.0856 21.9861 25.0872C21.9877 25.0905 21.9899 25.095 21.9928 25.1002C21.9984 25.1104 22.0071 25.1244 22.0187 25.138C22.0402 25.1631 22.0846 25.1996 22.1435 25.1775L22.1457 25.1767L22.1478 25.1757C22.2039 25.1476 22.2104 25.0915 22.208 25.0572C22.2067 25.0391 22.2029 25.023 22.1996 25.0116C22.1979 25.0058 22.1963 25.001 22.1951 24.9976C22.1944 24.9959 22.1939 24.9945 22.1935 24.9934L22.193 24.9921Z" fill="#85340A"/>
<path d="M19.724 19.9984L19.9323 25.4533C19.9323 25.4533 19.9325 25.5573 20.0008 25.5597C20.0722 25.5546 20.072 25.4506 20.072 25.4506L20.2797 19.9948M19.4871 21.762C19.1697 22.4445 19.4392 23.0064 19.1303 23.6058C18.8109 24.2095 19.007 24.6977 18.9947 24.9784C18.9676 25.2529 18.7468 25.326 18.798 25.3905C18.8566 25.4581 19.0841 25.3271 19.1836 24.9614C19.2727 24.6 19.0569 24.3893 19.4313 23.6525C19.8058 22.9158 19.5097 22.5853 19.8831 21.9347" fill="#F6B40E"/>
<path fill-rule="evenodd" clip-rule="evenodd" d="M20.1158 25.4504L20.3235 19.9956L20.2355 19.9922L20.0278 25.4489L20.0278 25.4496L20.0278 25.4497L20.0278 25.4498L20.0278 25.45C20.0278 25.4504 20.0278 25.4511 20.0278 25.4522C20.0277 25.4542 20.0275 25.4573 20.027 25.4612C20.0262 25.4691 20.0244 25.479 20.0213 25.4885C20.0151 25.5072 20.0078 25.5132 20 25.5146C19.9949 25.5137 19.9886 25.5095 19.9826 25.4911C19.9796 25.4817 19.9779 25.4719 19.977 25.4639C19.9766 25.46 19.9763 25.4569 19.9762 25.4548C19.9762 25.4538 19.9762 25.453 19.9762 25.4526L19.9762 25.4524L19.9762 25.4523L19.9762 25.4516L19.848 22.097C19.8689 22.0515 19.8931 22.0046 19.9211 21.9557L19.8448 21.9119C19.8436 21.914 19.8424 21.9161 19.8412 21.9182L19.7678 19.9958L19.6799 19.9992L19.7593 22.0796C19.6461 22.3346 19.6297 22.5445 19.6136 22.7571L19.6133 22.76C19.5941 23.0138 19.5744 23.2728 19.3919 23.6318C19.202 24.0055 19.1604 24.2488 19.1563 24.4459C19.155 24.5092 19.1576 24.569 19.16 24.6249C19.1613 24.6537 19.1625 24.6815 19.1631 24.7081C19.1649 24.7881 19.1617 24.8646 19.1408 24.9495C19.0928 25.1255 19.015 25.2417 18.9456 25.3051C18.9106 25.3371 18.8796 25.354 18.8573 25.3601C18.849 25.3623 18.8429 25.3628 18.8387 25.3627C18.8389 25.3623 18.8392 25.362 18.8394 25.3616C18.8447 25.354 18.8524 25.3448 18.8633 25.3325C18.8664 25.3291 18.8697 25.3254 18.8732 25.3215C18.8815 25.3123 18.8908 25.3019 18.9002 25.291C18.9553 25.227 19.0235 25.1318 19.0383 24.9819L19.0385 24.9807L19.0385 24.9795C19.0418 24.9049 19.0312 24.8178 19.0197 24.7242L19.0188 24.7172C19.0074 24.6241 18.9948 24.5222 18.9912 24.411C18.9838 24.184 19.0138 23.919 19.169 23.6255L19.1692 23.6251C19.3275 23.318 19.3383 23.0205 19.3491 22.7232L19.3493 22.7158C19.3602 22.4149 19.3723 22.112 19.5268 21.7797L19.447 21.7426C19.2842 22.0927 19.2723 22.412 19.2614 22.7126L19.2614 22.7133C19.2504 23.0146 19.2402 23.2951 19.0911 23.5846C18.9271 23.8947 18.8955 24.1757 18.9032 24.4138C18.907 24.5291 18.92 24.6344 18.9314 24.7269L18.9324 24.7349C18.9441 24.8301 18.9534 24.9089 18.9506 24.9744C18.9381 25.0983 18.8826 25.1766 18.8335 25.2336C18.8248 25.2438 18.8166 25.2528 18.8086 25.2617C18.8049 25.2658 18.8012 25.2699 18.7976 25.274C18.7866 25.2863 18.7756 25.2991 18.7669 25.3117C18.7585 25.3239 18.7495 25.3399 18.7469 25.3587C18.744 25.38 18.75 25.4001 18.7634 25.417L18.764 25.4177L18.7646 25.4185C18.7951 25.4536 18.8415 25.4556 18.8804 25.445C18.9203 25.4341 18.9634 25.4081 19.005 25.3701C19.0888 25.2935 19.1743 25.1615 19.2259 24.9721L19.2262 24.971C19.2497 24.8754 19.253 24.7902 19.2511 24.7062C19.2504 24.6758 19.2491 24.6463 19.2478 24.6167C19.2454 24.5628 19.243 24.5085 19.2443 24.4478C19.2481 24.2651 19.2858 24.0347 19.4704 23.6716C19.6608 23.297 19.6816 23.0238 19.701 22.7674L19.7013 22.7638C19.7127 22.6139 19.7239 22.4702 19.7682 22.3128L19.8882 25.4533L19.8882 25.4547C19.8882 25.4558 19.8883 25.4573 19.8884 25.4591C19.8885 25.4627 19.8889 25.4677 19.8895 25.4736C19.8908 25.4853 19.8934 25.5015 19.899 25.5184C19.9093 25.5499 19.9363 25.6006 19.9992 25.6028L20.0015 25.6029L20.0038 25.6027C20.0664 25.5982 20.0939 25.5489 20.1048 25.5163C20.1105 25.4991 20.1132 25.4827 20.1145 25.4709C20.1152 25.465 20.1155 25.4599 20.1157 25.4563C20.1157 25.4544 20.1158 25.4529 20.1158 25.4518L20.1158 25.4504Z" fill="#85340A"/>
<path d="M19.7457 19.892L17.8507 25.0114C17.8507 25.0114 17.8111 25.1076 17.8733 25.1359C17.9412 25.1585 17.9808 25.0624 17.9808 25.0624L20.2605 20.1013M18.8519 21.4307C18.2975 21.9398 18.3315 22.562 17.8167 22.9976C17.2906 23.4332 17.285 23.9593 17.1662 24.2138C17.0361 24.4571 16.8041 24.4401 16.8268 24.5193C16.8551 24.6042 17.1153 24.5702 17.3472 24.2704C17.5678 23.9706 17.449 23.6934 18.0769 23.156C18.7048 22.6186 18.5578 22.2 19.1517 21.7418" fill="#F6B40E"/>
<path fill-rule="evenodd" clip-rule="evenodd" d="M18.021 25.0798L20.3003 20.1197L20.2204 20.0829L17.9403 25.0448L17.94 25.0454L17.94 25.0455L17.94 25.0456L17.9399 25.0458C17.9397 25.0461 17.9394 25.0468 17.939 25.0477C17.9381 25.0496 17.9367 25.0524 17.9349 25.0558C17.931 25.0628 17.9257 25.0713 17.9191 25.0788C17.9062 25.0937 17.8972 25.0965 17.8895 25.0948C17.8851 25.092 17.8809 25.0857 17.8824 25.0665C17.8831 25.0566 17.8854 25.0468 17.8876 25.0392C17.8887 25.0354 17.8897 25.0324 17.8904 25.0305C17.8907 25.0295 17.891 25.0288 17.8912 25.0284L17.8912 25.0282L17.8913 25.0281L17.8915 25.0275L19.0569 21.8792C19.0936 21.8452 19.1339 21.811 19.1785 21.7766L19.1247 21.707C19.1228 21.7084 19.1209 21.7099 19.119 21.7114L19.7869 19.9073L19.7043 19.8767L18.9816 21.8292C18.7794 22.0214 18.684 22.2091 18.5877 22.3993L18.5864 22.402C18.4714 22.629 18.3541 22.8607 18.0482 23.1226C17.7297 23.3952 17.5982 23.604 17.5189 23.7846C17.4935 23.8425 17.473 23.8988 17.4539 23.9514C17.444 23.9785 17.4345 24.0046 17.4249 24.0295C17.3959 24.104 17.3637 24.1735 17.312 24.2439C17.2003 24.3881 17.0839 24.4657 16.9955 24.4977C16.9509 24.5139 16.9158 24.5176 16.8928 24.5147C16.8844 24.5137 16.8785 24.5118 16.8747 24.51C16.875 24.5098 16.8754 24.5095 16.8758 24.5093C16.8835 24.5043 16.8942 24.4987 16.909 24.4916C16.9131 24.4896 16.9176 24.4874 16.9224 24.4852C16.9335 24.4798 16.9461 24.4738 16.9589 24.4674C17.0343 24.4293 17.1338 24.3675 17.2049 24.2346L17.2054 24.2335L17.2059 24.2324C17.2375 24.1648 17.2611 24.0803 17.2863 23.9894L17.2881 23.9826C17.3132 23.8922 17.3406 23.7932 17.3798 23.6891C17.4598 23.4766 17.5889 23.2433 17.8447 23.0315L17.845 23.0312C18.1087 22.8081 18.2326 22.5373 18.3563 22.2668L18.3594 22.26C18.4846 21.9862 18.6116 21.711 18.8816 21.4631L18.822 21.3983C18.5376 21.6595 18.4044 21.9499 18.2793 22.2234L18.279 22.2241C18.1536 22.4983 18.0369 22.7535 17.7884 22.9639C17.5181 23.1877 17.3814 23.4351 17.2974 23.6581C17.2568 23.766 17.2285 23.8683 17.2036 23.9581L17.2014 23.9659C17.1759 24.0583 17.1543 24.1347 17.1267 24.1941C17.0677 24.3038 16.9865 24.3549 16.9193 24.3888C16.9073 24.3948 16.8963 24.4001 16.8855 24.4052C16.8805 24.4076 16.8756 24.41 16.8706 24.4124C16.8558 24.4195 16.8407 24.4271 16.8279 24.4355C16.8155 24.4435 16.801 24.4548 16.7914 24.4712C16.7806 24.4898 16.7784 24.5107 16.7843 24.5314L16.7846 24.5323L16.7849 24.5332C16.7996 24.5774 16.8417 24.5969 16.8817 24.602C16.9228 24.6072 16.9725 24.5997 17.0255 24.5805C17.1322 24.5418 17.2617 24.4526 17.3819 24.2973L17.3825 24.2965C17.4409 24.2172 17.4765 24.1396 17.5069 24.0613C17.5179 24.0329 17.528 24.0052 17.5381 23.9774C17.5565 23.9267 17.5751 23.8756 17.5995 23.82C17.673 23.6527 17.796 23.4543 18.1054 23.1894C18.4247 22.9162 18.5485 22.6717 18.6646 22.4423L18.6662 22.4391C18.7341 22.305 18.7994 22.1765 18.9006 22.048L17.8096 24.9954L17.8091 24.9967C17.8087 24.9977 17.8082 24.9991 17.8075 25.0008C17.8063 25.0042 17.8047 25.009 17.8031 25.0147C17.7998 25.0259 17.796 25.0419 17.7947 25.0597C17.7921 25.0927 17.7976 25.1499 17.855 25.176L17.8571 25.1769L17.8593 25.1777C17.9188 25.1975 17.9631 25.1624 17.9856 25.1364C17.9975 25.1228 18.0062 25.1086 18.0119 25.0983C18.0148 25.093 18.0171 25.0885 18.0186 25.0852C18.0194 25.0835 18.02 25.0821 18.0205 25.0811L18.021 25.0798Z" fill="#85340A"/>
<path d="M19.8063 19.8034L16.0964 23.8079C16.0964 23.8079 16.023 23.8816 16.0697 23.9316C16.1237 23.9784 16.1971 23.9047 16.1971 23.9047L20.2018 20.1937M18.3917 20.8829C17.6847 21.1411 17.478 21.729 16.8357 21.9344C16.183 22.1355 15.9764 22.6194 15.7692 22.8091C15.5559 22.984 15.3482 22.8796 15.3388 22.9614C15.3324 23.0506 15.5858 23.1188 15.9148 22.9306C16.2334 22.738 16.2297 22.4365 17.0155 22.1803C17.8012 21.9241 17.8256 21.4811 18.5497 21.285" fill="#F6B40E"/>
<path fill-rule="evenodd" clip-rule="evenodd" d="M16.2269 23.9362L20.2309 20.2258L20.1711 20.1613L16.1658 23.8729L16.1653 23.8734L16.1652 23.8734L16.1651 23.8735L16.165 23.8736C16.1647 23.8739 16.1642 23.8744 16.1634 23.8751C16.1619 23.8765 16.1596 23.8786 16.1565 23.881C16.1503 23.8859 16.1421 23.8917 16.1332 23.8962C16.1156 23.905 16.1062 23.9042 16.0997 23.8996C16.0967 23.8954 16.0952 23.888 16.104 23.8707C16.1084 23.8619 16.1142 23.8538 16.1192 23.8475C16.1217 23.8445 16.1237 23.8421 16.1251 23.8405C16.1258 23.8398 16.1264 23.8392 16.1266 23.8389L16.1268 23.8388L16.1269 23.8387L16.1273 23.8382L18.4088 21.3755C18.4557 21.3582 18.506 21.342 18.5604 21.3273L18.5374 21.2424C18.5351 21.243 18.5327 21.2437 18.5304 21.2443L19.8378 19.8331L19.7733 19.7733L18.3583 21.3005C18.098 21.4007 17.938 21.5376 17.7763 21.6765L17.774 21.6785C17.581 21.8442 17.3839 22.0135 17.0011 22.1383C16.6025 22.2682 16.4011 22.4109 16.2587 22.5474C16.2131 22.5911 16.1726 22.6353 16.1348 22.6765C16.1153 22.6978 16.0965 22.7183 16.0781 22.7376C16.0228 22.7954 15.9665 22.8472 15.8917 22.8925C15.7334 22.983 15.5961 23.0101 15.5023 23.0059C15.4549 23.0038 15.421 22.9938 15.4009 22.9823C15.3935 22.9781 15.3888 22.9741 15.3859 22.971C15.3863 22.9709 15.3868 22.9709 15.3872 22.9708C15.3963 22.9691 15.4083 22.9681 15.4246 22.9671C15.4292 22.9668 15.4342 22.9666 15.4395 22.9663C15.4518 22.9657 15.4658 22.9649 15.4801 22.9639C15.5643 22.9575 15.6799 22.9385 15.7964 22.8429L15.7973 22.8422L15.7982 22.8413C15.8532 22.7909 15.9073 22.7219 15.9654 22.6475L15.9697 22.642C16.0274 22.5681 16.0906 22.4871 16.1667 22.4059C16.322 22.2402 16.5306 22.074 16.8479 21.9762L16.8483 21.9761C17.1773 21.8709 17.3953 21.6681 17.6132 21.4655L17.6186 21.4605C17.8391 21.2554 18.0618 21.0497 18.4061 20.924L18.3759 20.8414C18.0131 20.9738 17.7789 21.1912 17.5587 21.396L17.5582 21.3965C17.3374 21.6018 17.1319 21.793 16.8217 21.8922C16.4864 21.9956 16.2654 22.1718 16.1025 22.3457C16.0237 22.4299 15.9583 22.5135 15.901 22.587L15.896 22.5934C15.837 22.6689 15.7879 22.7312 15.7396 22.7756C15.6432 22.8544 15.5486 22.8705 15.4735 22.8761C15.4602 22.8771 15.448 22.8777 15.436 22.8784C15.4305 22.8787 15.425 22.8789 15.4195 22.8793C15.4031 22.8802 15.3863 22.8815 15.3712 22.8842C15.3567 22.8869 15.3389 22.8918 15.3238 22.9033C15.3067 22.9163 15.2967 22.9348 15.2943 22.9562L15.2942 22.9571L15.2941 22.9581C15.2908 23.0046 15.3222 23.0387 15.3572 23.0587C15.3932 23.0793 15.442 23.0913 15.4983 23.0938C15.6117 23.0989 15.7655 23.0661 15.9359 22.9686L15.9368 22.9681C16.0211 22.9171 16.0837 22.8591 16.1417 22.7984C16.1627 22.7764 16.1827 22.7546 16.2027 22.7328C16.2391 22.693 16.2758 22.6529 16.3196 22.6109C16.4515 22.4844 16.6411 22.3482 17.0283 22.2219C17.4279 22.0917 17.6358 21.9132 17.8308 21.7457L17.8336 21.7433C17.9476 21.6454 18.0572 21.5517 18.1998 21.4717L16.0639 23.7772L16.0629 23.7782C16.0622 23.779 16.0612 23.7801 16.06 23.7814C16.0575 23.7841 16.0542 23.7879 16.0505 23.7925C16.0432 23.8017 16.0336 23.815 16.0255 23.8309C16.0105 23.8604 15.9937 23.9154 16.0367 23.9614L16.0383 23.9631L16.0401 23.9646C16.0875 24.0057 16.1418 23.9903 16.1726 23.9749C16.1888 23.9668 16.2023 23.9571 16.2115 23.9497C16.2162 23.9459 16.22 23.9426 16.2227 23.9402C16.2241 23.9389 16.2251 23.9379 16.226 23.9371L16.2269 23.9362Z" fill="#85340A"/>
<path d="M20.3441 21.9521C20.3841 22.6721 20.7921 22.9921 20.7121 23.6562C20.8881 23.1362 20.4641 22.7281 20.4881 21.9601M19.8721 20.0561L21.4321 23.4641L20.1281 19.9521" fill="#85340A"/>
<path d="M19.5711 21.9346C19.3325 22.6151 19.587 23.0669 19.259 23.6498C19.6206 23.2367 19.385 22.6975 19.7011 21.9971M19.8606 20.0023L19.9977 23.7479L20.1369 20.0042" fill="#85340A"/>
<path d="M18.8629 21.623C18.3821 22.1604 18.4443 22.6751 17.9182 23.0881C18.4104 22.8448 18.399 22.2565 18.9591 21.7304M19.8698 19.9485L18.5631 23.4614L20.1244 20.056" fill="#85340A"/>
<path d="M18.328 21.0647C17.6781 21.3772 17.5386 21.8766 16.8945 22.0568C17.4423 22.0204 17.657 21.4725 18.3757 21.2008M19.899 19.9031L17.3474 22.6485L20.0931 20.0998" fill="#85340A"/>
<path d="M19.8973 19.7441L14.9373 22.0241C14.9373 22.0241 14.8413 22.0641 14.8653 22.1281C14.8973 22.1921 14.9933 22.1521 14.9933 22.1521L20.1133 20.2561M18.1773 20.2001C17.4253 20.1681 17.0093 20.6321 16.3373 20.5761C15.6573 20.5121 15.2813 20.8801 15.0173 20.9761C14.7533 21.0561 14.6013 20.8801 14.5613 20.9521C14.5213 21.0321 14.7293 21.1921 15.1053 21.1441C15.4733 21.0881 15.5853 20.8081 16.4093 20.8721C17.2333 20.9361 17.4253 20.5361 18.1693 20.6321" fill="#F6B40E"/>
<path fill-rule="evenodd" clip-rule="evenodd" d="M15.0098 22.193L20.1289 20.2973L20.0983 20.2148L14.9775 22.1111L14.9769 22.1114L14.9768 22.1114L14.9767 22.1115L14.9765 22.1115C14.9762 22.1117 14.9755 22.1119 14.9745 22.1123C14.9726 22.113 14.9696 22.114 14.9659 22.1151C14.9583 22.1173 14.9484 22.1195 14.9385 22.1202C14.9188 22.1216 14.9105 22.1172 14.9062 22.1105C14.9051 22.1055 14.9066 22.0981 14.9213 22.0855C14.9287 22.0791 14.9372 22.0737 14.9442 22.0699C14.9476 22.068 14.9505 22.0666 14.9524 22.0657C14.9533 22.0653 14.954 22.065 14.9544 22.0648L14.9546 22.0647L14.9546 22.0647L14.9553 22.0644L18.0055 20.6623C18.0555 20.6642 18.1081 20.6685 18.164 20.6757L18.1753 20.5884C18.1729 20.5881 18.1705 20.5878 18.1681 20.5875L19.916 19.7841L19.8792 19.7041L17.9876 20.5737C17.7087 20.5666 17.5085 20.6318 17.3059 20.6983L17.3031 20.6992C17.0613 20.7785 16.8145 20.8594 16.413 20.8282C15.9951 20.7958 15.7544 20.8505 15.5706 20.9221C15.5117 20.9451 15.4575 20.9704 15.4068 20.994C15.3806 21.0062 15.3554 21.0179 15.331 21.0287C15.2578 21.061 15.1859 21.0873 15.0995 21.1005C14.9186 21.1235 14.7814 21.0961 14.6963 21.0562C14.6533 21.0361 14.6258 21.0139 14.6117 20.9956C14.6064 20.9889 14.6036 20.9834 14.6021 20.9795C14.6026 20.9796 14.603 20.9796 14.6034 20.9797C14.6125 20.9817 14.6239 20.9853 14.6394 20.9907C14.6438 20.9922 14.6485 20.9939 14.6534 20.9956C14.6651 20.9997 14.6782 21.0044 14.6919 21.0089C14.7721 21.0353 14.8862 21.0619 15.0304 21.0182L15.0315 21.0178L15.0327 21.0174C15.1028 20.9919 15.1792 20.9489 15.2613 20.9024L15.2675 20.8989C15.349 20.8527 15.4384 20.8021 15.5398 20.7562C15.7467 20.6625 16.0029 20.5888 16.3335 20.6199L16.334 20.6199C16.6782 20.6486 16.9572 20.5447 17.236 20.4409L17.243 20.4383C17.5252 20.3333 17.8096 20.2285 18.1758 20.244L18.1795 20.1561C17.7937 20.1397 17.4941 20.2509 17.2123 20.3558L17.2116 20.3561C16.929 20.4613 16.666 20.5592 16.3415 20.5323C15.9922 20.4994 15.7205 20.5777 15.5035 20.676C15.3984 20.7236 15.3061 20.7759 15.225 20.8218L15.2179 20.8258C15.1345 20.873 15.0653 20.9118 15.0037 20.9343C14.8845 20.9701 14.7909 20.9488 14.7194 20.9253C14.7067 20.9211 14.6952 20.917 14.6839 20.9131C14.6787 20.9112 14.6735 20.9094 14.6683 20.9076C14.6528 20.9022 14.6368 20.8969 14.6218 20.8937C14.6073 20.8906 14.5891 20.8883 14.5707 20.8932C14.5499 20.8986 14.5336 20.9119 14.5232 20.9307L14.5227 20.9315L14.5223 20.9324C14.5014 20.9741 14.5174 21.0176 14.5421 21.0495C14.5674 21.0822 14.6079 21.112 14.659 21.1359C14.7618 21.1841 14.9164 21.2126 15.1112 21.1877L15.1122 21.1876C15.2096 21.1728 15.2896 21.1431 15.3665 21.1092C15.3943 21.0969 15.4211 21.0845 15.4479 21.0719C15.4968 21.0491 15.546 21.0261 15.6026 21.0041C15.7729 20.9377 16.0002 20.8844 16.4062 20.9159C16.8252 20.9485 17.0856 20.8631 17.3299 20.783L17.3333 20.7819C17.4761 20.7351 17.6132 20.6904 17.7756 20.6711L14.92 21.9838L14.9187 21.9843C14.9177 21.9848 14.9164 21.9854 14.9147 21.9861C14.9115 21.9877 14.907 21.9899 14.9018 21.9928C14.8915 21.9984 14.8775 22.0071 14.864 22.0187C14.8389 22.0402 14.8023 22.0846 14.8244 22.1435L14.8252 22.1457L14.8263 22.1478C14.8543 22.2039 14.9105 22.2104 14.9448 22.208C14.9628 22.2067 14.979 22.2029 14.9904 22.1996C14.9961 22.1979 15.0009 22.1963 15.0044 22.1951C15.0061 22.1944 15.0075 22.1939 15.0085 22.1935L15.0098 22.193Z" fill="#85340A"/>
<path d="M20.0036 19.724L14.5486 19.9323C14.5486 19.9323 14.4446 19.9325 14.4423 20.0008C14.4474 20.0722 14.5514 20.072 14.5514 20.072L20.0072 20.2797M18.24 19.4871C17.5575 19.1697 16.9956 19.4392 16.3962 19.1303C15.7924 18.8109 15.3042 19.007 15.0236 18.9947C14.7491 18.9676 14.676 18.7468 14.6115 18.798C14.5439 18.8566 14.6748 19.0841 15.0406 19.1836C15.402 19.2727 15.6126 19.0569 16.3494 19.4313C17.0862 19.8058 17.4167 19.5097 18.0673 19.8831" fill="#F6B40E"/>
<path fill-rule="evenodd" clip-rule="evenodd" d="M14.5496 20.1158L20.0044 20.3235L20.0078 20.2355L14.5511 20.0278L14.5504 20.0278L14.5503 20.0278L14.5502 20.0278L14.55 20.0278C14.5496 20.0278 14.5489 20.0278 14.5478 20.0278C14.5458 20.0277 14.5427 20.0275 14.5388 20.027C14.5309 20.0262 14.521 20.0244 14.5115 20.0213C14.4928 20.0151 14.4868 20.0078 14.4854 20C14.4863 19.9949 14.4905 19.9886 14.5089 19.9826C14.5183 19.9796 14.5281 19.9779 14.5361 19.977C14.54 19.9766 14.5431 19.9763 14.5452 19.9762C14.5462 19.9762 14.547 19.9762 14.5474 19.9762L14.5476 19.9762L14.5477 19.9762L14.5484 19.9762L17.903 19.848C17.9485 19.8689 17.9954 19.8931 18.0443 19.9211L18.0881 19.8448C18.086 19.8436 18.0839 19.8424 18.0818 19.8412L20.0042 19.7678L20.0008 19.6799L17.9204 19.7593C17.6654 19.6461 17.4555 19.6297 17.2429 19.6136L17.24 19.6133C16.9862 19.5941 16.7272 19.5744 16.3682 19.3919C15.9945 19.202 15.7512 19.1604 15.5541 19.1563C15.4908 19.155 15.431 19.1576 15.3751 19.16C15.3463 19.1613 15.3185 19.1625 15.2919 19.1631C15.2119 19.1649 15.1354 19.1617 15.0505 19.1408C14.8745 19.0928 14.7583 19.015 14.6949 18.9456C14.6629 18.9106 14.646 18.8796 14.6399 18.8573C14.6377 18.849 14.6372 18.8429 14.6373 18.8387C14.6377 18.8389 14.638 18.8392 14.6384 18.8394C14.646 18.8447 14.6552 18.8524 14.6675 18.8633C14.6709 18.8664 14.6746 18.8697 14.6785 18.8732C14.6877 18.8815 14.6981 18.8908 14.709 18.9002C14.773 18.9553 14.8682 19.0235 15.0181 19.0383L15.0193 19.0385L15.0205 19.0385C15.0951 19.0418 15.1822 19.0312 15.2758 19.0197L15.2828 19.0188C15.3759 19.0074 15.4778 18.9948 15.589 18.9912C15.816 18.9838 16.081 19.0138 16.3745 19.169L16.3749 19.1692C16.682 19.3275 16.9795 19.3383 17.2768 19.3491L17.2842 19.3493C17.5851 19.3602 17.888 19.3723 18.2203 19.5268L18.2574 19.447C17.9073 19.2842 17.588 19.2723 17.2874 19.2614L17.2867 19.2614C16.9854 19.2504 16.7049 19.2402 16.4154 19.0911C16.1053 18.9271 15.8243 18.8955 15.5862 18.9032C15.4709 18.907 15.3656 18.92 15.2731 18.9314L15.2651 18.9324C15.1699 18.9441 15.0911 18.9534 15.0256 18.9506C14.9017 18.9381 14.8234 18.8826 14.7664 18.8335C14.7562 18.8248 14.7472 18.8166 14.7383 18.8086C14.7342 18.8049 14.7301 18.8012 14.726 18.7976C14.7137 18.7866 14.7009 18.7756 14.6883 18.7669C14.6761 18.7585 14.6601 18.7495 14.6413 18.7469C14.62 18.744 14.5999 18.75 14.583 18.7634L14.5823 18.764L14.5815 18.7646C14.5464 18.7951 14.5444 18.8415 14.555 18.8804C14.5659 18.9203 14.5919 18.9634 14.6299 19.005C14.7065 19.0888 14.8385 19.1743 15.0279 19.2259L15.029 19.2262C15.1246 19.2497 15.2098 19.253 15.2938 19.2511C15.3242 19.2504 15.3537 19.2491 15.3833 19.2478C15.4372 19.2454 15.4915 19.243 15.5522 19.2443C15.7349 19.2481 15.9653 19.2858 16.3284 19.4704C16.703 19.6608 16.9762 19.6816 17.2326 19.701L17.2362 19.7013C17.3861 19.7127 17.5298 19.7239 17.6872 19.7682L14.5467 19.8882L14.5453 19.8882C14.5442 19.8882 14.5427 19.8883 14.5409 19.8884C14.5373 19.8885 14.5323 19.8889 14.5264 19.8895C14.5147 19.8908 14.4985 19.8934 14.4816 19.899C14.4501 19.9093 14.3994 19.9363 14.3972 19.9992L14.3971 20.0015L14.3973 20.0038C14.4018 20.0664 14.4511 20.0939 14.4837 20.1048C14.5009 20.1105 14.5173 20.1132 14.5291 20.1145C14.535 20.1152 14.5401 20.1155 14.5437 20.1157C14.5456 20.1157 14.5471 20.1158 14.5482 20.1158L14.5496 20.1158Z" fill="#85340A"/>
<path d="M20.109 19.7457L14.9895 17.8507C14.9895 17.8507 14.8934 17.8111 14.8651 17.8733C14.8425 17.9412 14.9386 17.9808 14.9386 17.9808L19.8997 20.2605M18.5703 18.8519C18.0612 18.2975 17.4389 18.3315 17.0034 17.8167C16.5678 17.2906 16.0417 17.285 15.7871 17.1662C15.5439 17.0361 15.5609 16.8041 15.4817 16.8268C15.3968 16.8551 15.4308 17.1153 15.7306 17.3472C16.0304 17.5678 16.3076 17.449 16.845 18.0769C17.3824 18.7048 17.801 18.5578 18.2592 19.1517" fill="#F6B40E"/>
<path fill-rule="evenodd" clip-rule="evenodd" d="M14.9211 18.021L19.8813 20.3003L19.918 20.2204L14.9562 17.9403L14.9555 17.94L14.9555 17.94L14.9554 17.94L14.9552 17.9399C14.9548 17.9397 14.9542 17.9394 14.9532 17.939C14.9514 17.9381 14.9486 17.9367 14.9452 17.9349C14.9382 17.931 14.9297 17.9257 14.9222 17.9191C14.9073 17.9062 14.9045 17.8972 14.9062 17.8895C14.9089 17.8851 14.9152 17.8809 14.9345 17.8824C14.9443 17.8831 14.9541 17.8854 14.9618 17.8876C14.9655 17.8887 14.9685 17.8897 14.9705 17.8904C14.9715 17.8907 14.9722 17.891 14.9726 17.8912L14.9728 17.8912L14.9729 17.8913L14.9735 17.8915L18.1218 19.0569C18.1558 19.0936 18.1899 19.1339 18.2243 19.1785L18.294 19.1247C18.2925 19.1228 18.2911 19.1209 18.2896 19.119L20.0937 19.7869L20.1242 19.7043L18.1718 18.9816C17.9796 18.7794 17.7919 18.684 17.6016 18.5877L17.599 18.5864C17.372 18.4714 17.1402 18.3541 16.8784 18.0482C16.6058 17.7297 16.3969 17.5982 16.2164 17.5189C16.1584 17.4935 16.1022 17.473 16.0496 17.4539C16.0225 17.444 15.9964 17.4345 15.9715 17.4249C15.8969 17.3959 15.8275 17.3637 15.7571 17.312C15.6128 17.2003 15.5352 17.0839 15.5032 16.9955C15.4871 16.9509 15.4833 16.9158 15.4862 16.8928C15.4873 16.8844 15.4892 16.8785 15.491 16.8747C15.4912 16.875 15.4914 16.8754 15.4917 16.8758C15.4967 16.8835 15.5022 16.8942 15.5094 16.909C15.5114 16.9131 15.5135 16.9176 15.5158 16.9224C15.5211 16.9335 15.5271 16.9461 15.5336 16.9589C15.5717 17.0343 15.6335 17.1338 15.7664 17.2049L15.7674 17.2054L15.7685 17.2059C15.8362 17.2375 15.9207 17.2611 16.0116 17.2863L16.0184 17.2881C16.1087 17.3132 16.2077 17.3406 16.3119 17.3798C16.5244 17.4598 16.7577 17.5889 16.9695 17.8447L16.9698 17.845C17.1929 18.1087 17.4637 18.2326 17.7342 18.3563L17.741 18.3594C18.0148 18.4846 18.29 18.6116 18.5379 18.8816L18.6027 18.822C18.3415 18.5376 18.051 18.4044 17.7776 18.2793L17.7769 18.279C17.5027 18.1536 17.2475 18.0369 17.0371 17.7884C16.8133 17.5181 16.5659 17.3814 16.3429 17.2974C16.235 17.2568 16.1327 17.2285 16.0429 17.2036L16.0351 17.2014C15.9427 17.1759 15.8663 17.1543 15.8068 17.1267C15.6972 17.0677 15.6461 16.9865 15.6122 16.9193C15.6061 16.9073 15.6009 16.8963 15.5957 16.8855C15.5933 16.8805 15.591 16.8756 15.5886 16.8706C15.5814 16.8558 15.5738 16.8407 15.5655 16.8279C15.5575 16.8155 15.5461 16.801 15.5297 16.7914C15.5111 16.7806 15.4903 16.7784 15.4696 16.7843L15.4687 16.7846L15.4678 16.7849C15.4236 16.7996 15.404 16.8417 15.3989 16.8817C15.3937 16.9228 15.4013 16.9725 15.4205 17.0255C15.4592 17.1322 15.5483 17.2617 15.7036 17.3819L15.7045 17.3825C15.7838 17.4409 15.8613 17.4765 15.9397 17.5069C15.968 17.5179 15.9958 17.528 16.0236 17.5381C16.0743 17.5565 16.1253 17.5751 16.181 17.5995C16.3483 17.673 16.5467 17.796 16.8115 18.1054C17.0848 18.4247 17.3293 18.5485 17.5587 18.6646L17.5619 18.6662C17.696 18.7341 17.8245 18.7994 17.9529 18.9006L15.0056 17.8096L15.0043 17.8091C15.0033 17.8087 15.0019 17.8082 15.0002 17.8075C14.9968 17.8063 14.992 17.8047 14.9863 17.8031C14.9751 17.7998 14.959 17.796 14.9413 17.7947C14.9083 17.7921 14.8511 17.7976 14.825 17.855L14.8241 17.8571L14.8233 17.8593C14.8035 17.9188 14.8385 17.9631 14.8645 17.9856C14.8782 17.9975 14.8923 18.0062 14.9027 18.0119C14.908 18.0148 14.9125 18.0171 14.9158 18.0186C14.9175 18.0194 14.9188 18.02 14.9199 18.0205L14.9211 18.021Z" fill="#85340A"/>
<path d="M20.1976 19.8063L16.1931 16.0964C16.1931 16.0964 16.1194 16.023 16.0694 16.0697C16.0225 16.1237 16.0962 16.1971 16.0962 16.1971L19.8072 20.2018M19.1181 18.3917C18.8599 17.6847 18.272 17.478 18.0666 16.8357C17.8655 16.183 17.3816 15.9764 17.1919 15.7692C17.017 15.5559 17.1214 15.3482 17.0396 15.3388C16.9504 15.3324 16.8821 15.5858 17.0704 15.9148C17.2629 16.2334 17.5645 16.2297 17.8207 17.0155C18.0769 17.8012 18.5199 17.8256 18.7159 18.5497" fill="#F6B40E"/>
<path fill-rule="evenodd" clip-rule="evenodd" d="M16.0648 16.2279L19.7752 20.2319L19.8397 20.1721L16.1281 16.1667L16.1276 16.1663L16.1275 16.1662L16.1275 16.1661L16.1274 16.166C16.1271 16.1657 16.1266 16.1652 16.1259 16.1644C16.1245 16.1629 16.1224 16.1605 16.12 16.1575C16.115 16.1513 16.1092 16.1431 16.1048 16.1342C16.096 16.1165 16.0968 16.1072 16.1013 16.1006C16.1056 16.0977 16.113 16.0962 16.1302 16.105C16.139 16.1094 16.1472 16.1152 16.1535 16.1202C16.1565 16.1226 16.1589 16.1247 16.1604 16.1261C16.1612 16.1268 16.1617 16.1273 16.162 16.1276L16.1622 16.1278L16.1623 16.1278L16.1628 16.1283L18.6254 18.4098C18.6428 18.4567 18.6589 18.507 18.6736 18.5614L18.7586 18.5384C18.758 18.536 18.7573 18.5337 18.7567 18.5314L20.1679 19.8388L20.2277 19.7742L18.7004 18.3593C18.6002 18.099 18.4633 17.939 18.3244 17.7772L18.3225 17.775C18.1567 17.582 17.9875 17.3849 17.8627 17.002C17.7327 16.6035 17.5901 16.4021 17.4536 16.2597C17.4098 16.2141 17.3657 16.1736 17.3244 16.1358C17.3032 16.1163 17.2827 16.0975 17.2634 16.0791C17.2056 16.0238 17.1537 15.9675 17.1085 15.8927C17.018 15.7343 16.9908 15.5971 16.9951 15.5032C16.9972 15.4558 17.0072 15.4219 17.0187 15.4019C17.0229 15.3945 17.0268 15.3898 17.03 15.3869C17.03 15.3873 17.0301 15.3877 17.0302 15.3882C17.0319 15.3973 17.0329 15.4093 17.0339 15.4256C17.0341 15.4302 17.0344 15.4352 17.0347 15.4405C17.0353 15.4528 17.0361 15.4667 17.0371 15.481C17.0434 15.5653 17.0625 15.6808 17.1581 15.7973L17.1588 15.7983L17.1596 15.7992C17.21 15.8542 17.2791 15.9083 17.3534 15.9664L17.359 15.9707C17.4329 16.0284 17.5139 16.0916 17.5951 16.1677C17.7608 16.323 17.927 16.5315 18.0247 16.8488L18.0249 16.8493C18.1301 17.1783 18.3329 17.3963 18.5355 17.6142L18.5405 17.6196C18.7456 17.8401 18.9512 18.0628 19.077 18.407L19.1596 18.3768C19.0271 18.0141 18.8098 17.7799 18.605 17.5597L18.6044 17.5591C18.3991 17.3384 18.208 17.1328 18.1088 16.8227C18.0054 16.4874 17.8291 16.2664 17.6553 16.1035C17.5711 16.0246 17.4874 15.9593 17.414 15.902L17.4076 15.897C17.332 15.838 17.2697 15.7889 17.2253 15.7406C17.1466 15.6441 17.1305 15.5495 17.1249 15.4745C17.1239 15.4611 17.1232 15.4489 17.1226 15.437C17.1223 15.4315 17.122 15.426 17.1217 15.4205C17.1208 15.4041 17.1195 15.3873 17.1167 15.3722C17.1141 15.3576 17.1091 15.3399 17.0977 15.3248C17.0846 15.3077 17.0662 15.2977 17.0448 15.2953L17.0438 15.2951L17.0429 15.2951C16.9964 15.2918 16.9623 15.3231 16.9423 15.3582C16.9217 15.3941 16.9097 15.443 16.9072 15.4993C16.902 15.6127 16.9349 15.7665 17.0324 15.9369L17.0329 15.9378C17.0838 16.0221 17.1418 16.0846 17.2026 16.1427C17.2246 16.1637 17.2463 16.1836 17.2682 16.2036C17.308 16.2401 17.348 16.2767 17.3901 16.3206C17.5165 16.4525 17.6528 16.6421 17.779 17.0293C17.9093 17.4289 18.0878 17.6368 18.2553 17.8318L18.2577 17.8346C18.3556 17.9486 18.4493 18.0581 18.5292 18.2007L16.2237 16.0649L16.2228 16.0639C16.222 16.0632 16.2209 16.0621 16.2195 16.0609C16.2169 16.0585 16.2131 16.0552 16.2084 16.0515C16.1993 16.0442 16.1859 16.0345 16.1701 16.0265C16.1405 16.0115 16.0856 15.9947 16.0396 16.0377L16.0379 16.0393L16.0364 16.041C15.9952 16.0885 16.0107 16.1428 16.0261 16.1735C16.0342 16.1897 16.0439 16.2032 16.0513 16.2125C16.055 16.2172 16.0583 16.221 16.0608 16.2237C16.062 16.225 16.0631 16.2261 16.0639 16.2269L16.0648 16.2279Z" fill="#85340A"/>
<path d="M18.0488 20.3441C17.3288 20.3841 17.0088 20.7921 16.3448 20.7121C16.8648 20.8881 17.2728 20.4641 18.0408 20.4881M19.9448 19.8721L16.5368 21.4321L20.0488 20.1281" fill="#85340A"/>
<path d="M18.0663 19.5711C17.3858 19.3325 16.9341 19.587 16.3512 19.259C16.7643 19.6206 17.3035 19.385 18.0038 19.7011M19.9986 19.8606L16.2531 19.9977L19.9968 20.1369" fill="#85340A"/>
<path d="M18.378 18.8629C17.8406 18.3821 17.3258 18.4443 16.9129 17.9182C17.1561 18.4104 17.7444 18.399 18.2705 18.9591M20.0524 19.8698L16.5395 18.5631L19.945 20.1244" fill="#85340A"/>
<path d="M18.9363 18.329C18.6238 17.6791 18.1244 17.5396 17.9442 16.8955C17.9806 17.4433 18.5284 17.658 18.8002 18.3767M20.0979 19.9L17.3525 17.3484L19.9012 20.0941" fill="#85340A"/>
<path d="M20.2559 19.8963L17.9759 14.9363C17.9759 14.9363 17.9359 14.8403 17.8719 14.8643C17.8079 14.8963 17.8479 14.9923 17.8479 14.9923L19.7439 20.1123M19.7999 18.1763C19.8319 17.4243 19.3679 17.0083 19.4239 16.3363C19.4879 15.6563 19.1199 15.2803 19.0239 15.0163C18.9439 14.7523 19.1199 14.6003 19.0479 14.5603C18.9679 14.5203 18.8079 14.7283 18.8559 15.1043C18.9119 15.4723 19.1919 15.5843 19.1279 16.4083C19.0639 17.2323 19.4639 17.4243 19.3679 18.1683" fill="#F6B40E"/>
<path fill-rule="evenodd" clip-rule="evenodd" d="M17.807 15.0079L19.7027 20.127L19.7852 20.0964L17.8889 14.9756L17.8886 14.9749L17.8886 14.9748L17.8885 14.9748L17.8885 14.9746C17.8883 14.9742 17.8881 14.9735 17.8877 14.9726C17.887 14.9706 17.886 14.9677 17.8849 14.9639C17.8827 14.9563 17.8805 14.9465 17.8798 14.9365C17.8784 14.9169 17.8828 14.9086 17.8895 14.9042C17.8945 14.9031 17.9019 14.9046 17.9145 14.9193C17.9209 14.9268 17.9263 14.9353 17.9301 14.9423C17.932 14.9457 17.9334 14.9485 17.9343 14.9504C17.9347 14.9513 17.935 14.952 17.9352 14.9524L17.9353 14.9526L17.9353 14.9527L17.9356 14.9533L19.3377 18.0036C19.3358 18.0535 19.3315 18.1062 19.3243 18.162L19.4116 18.1733C19.4119 18.1709 19.4122 18.1685 19.4125 18.1661L20.2159 19.9141L20.2959 19.8773L19.4263 17.9856C19.4334 17.7068 19.3682 17.5066 19.3017 17.304L19.3008 17.3012C19.2215 17.0594 19.1406 16.8126 19.1718 16.4111C19.2042 15.9931 19.1495 15.7524 19.0779 15.5687C19.0549 15.5098 19.0296 15.4555 19.006 15.4048C18.9938 15.3787 18.9821 15.3535 18.9713 15.329C18.939 15.2559 18.9127 15.184 18.8995 15.0976C18.8765 14.9166 18.9039 14.7794 18.9438 14.6943C18.9639 14.6514 18.9861 14.6239 19.0044 14.6097C19.0111 14.6045 19.0166 14.6017 19.0205 14.6002C19.0204 14.6006 19.0204 14.601 19.0203 14.6015C19.0183 14.6105 19.0147 14.622 19.0093 14.6375C19.0078 14.6418 19.0061 14.6465 19.0044 14.6515C19.0003 14.6632 18.9956 14.6763 18.9911 14.6899C18.9647 14.7702 18.9381 14.8842 18.9818 15.0284L18.9822 15.0296L18.9826 15.0307C19.0081 15.1009 19.0511 15.1773 19.0976 15.2594L19.1011 15.2655C19.1473 15.3471 19.1979 15.4365 19.2438 15.5378C19.3375 15.7447 19.4112 16.001 19.3801 16.3316L19.3801 16.332C19.3514 16.6763 19.4553 16.9553 19.5591 17.2341L19.5617 17.241C19.6667 17.5232 19.7715 17.8076 19.756 18.1738L19.8439 18.1775C19.8603 17.7917 19.7491 17.4922 19.6442 17.2103L19.6439 17.2096C19.5387 16.9271 19.4408 16.6641 19.4677 16.3396C19.5006 15.9903 19.4223 15.7186 19.324 15.5015C19.2764 15.3965 19.2241 15.3041 19.1782 15.223L19.1742 15.216C19.127 15.1326 19.0882 15.0633 19.0657 15.0018C19.0299 14.8825 19.0512 14.789 19.0747 14.7174C19.0789 14.7047 19.083 14.6932 19.0869 14.682C19.0888 14.6767 19.0906 14.6716 19.0924 14.6664C19.0978 14.6509 19.1031 14.6348 19.1063 14.6199C19.1094 14.6054 19.1117 14.5871 19.1068 14.5687C19.1014 14.5479 19.0881 14.5317 19.0693 14.5212L19.0685 14.5207L19.0676 14.5203C19.0259 14.4995 18.9824 14.5154 18.9505 14.5401C18.9178 14.5655 18.888 14.606 18.8641 14.657C18.8159 14.7598 18.7874 14.9145 18.8123 15.1092L18.8124 15.1103C18.8272 15.2077 18.8569 15.2876 18.8908 15.3646C18.9031 15.3924 18.9155 15.4191 18.9281 15.4459C18.9509 15.4948 18.9739 15.544 18.9959 15.6007C19.0623 15.7709 19.1156 15.9982 19.0841 16.4043C19.0515 16.8233 19.1369 17.0836 19.217 17.3279L19.2181 17.3314C19.2649 17.4742 19.3096 17.6113 19.3289 17.7736L18.0162 14.918L18.0157 14.9168C18.0152 14.9158 18.0146 14.9144 18.0139 14.9128C18.0123 14.9095 18.0101 14.905 18.0072 14.8998C18.0016 14.8896 17.9929 14.8756 17.9813 14.862C17.9598 14.8369 17.9154 14.8004 17.8565 14.8225L17.8543 14.8233L17.8522 14.8243C17.7961 14.8524 17.7896 14.9085 17.792 14.9428C17.7933 14.9609 17.7971 14.977 17.8004 14.9884C17.8021 14.9942 17.8037 14.999 17.8049 15.0024C17.8056 15.0041 17.8061 15.0055 17.8065 15.0066L17.807 15.0079Z" fill="#85340A"/>
<path d="M20.276 20.0016L20.0677 14.5467C20.0677 14.5467 20.0675 14.4427 19.9992 14.4403C19.9278 14.4454 19.928 14.5494 19.928 14.5494L19.7203 20.0052M20.5129 18.238C20.8303 17.5555 20.5608 16.9936 20.8697 16.3942C21.1891 15.7905 20.993 15.3023 21.0053 15.0216C21.0324 14.7471 21.2532 14.674 21.202 14.6095C21.1434 14.5419 20.9159 14.6729 20.8164 15.0386C20.7273 15.4 20.9431 15.6107 20.5687 16.3475C20.1942 17.0842 20.4903 17.4147 20.1169 18.0653" fill="#F6B40E"/>
<path fill-rule="evenodd" clip-rule="evenodd" d="M19.8842 14.5496L19.6765 20.0044L19.7645 20.0078L19.9722 14.5511L19.9722 14.5504L19.9722 14.5503L19.9722 14.5502L19.9722 14.55C19.9722 14.5496 19.9722 14.5489 19.9722 14.5478C19.9723 14.5458 19.9725 14.5427 19.973 14.5388C19.9738 14.5309 19.9756 14.521 19.9787 14.5115C19.9849 14.4928 19.9922 14.4868 20 14.4854C20.0051 14.4863 20.0114 14.4905 20.0174 14.5089C20.0204 14.5183 20.0221 14.5281 20.023 14.5361C20.0234 14.54 20.0237 14.5431 20.0238 14.5452C20.0238 14.5462 20.0238 14.547 20.0238 14.5474L20.0238 14.5476L20.0238 14.5477L20.0238 14.5484L20.152 17.903C20.1311 17.9485 20.1069 17.9954 20.0789 18.0443L20.1552 18.0881C20.1564 18.086 20.1576 18.0839 20.1588 18.0818L20.2322 20.0042L20.3201 20.0008L20.2407 17.9204C20.3539 17.6654 20.3703 17.4555 20.3864 17.2429L20.3867 17.24C20.4059 16.9862 20.4256 16.7272 20.6081 16.3682C20.798 15.9945 20.8396 15.7512 20.8437 15.5541C20.845 15.4908 20.8424 15.431 20.84 15.3751C20.8387 15.3463 20.8375 15.3185 20.8369 15.2919C20.8351 15.2119 20.8383 15.1354 20.8592 15.0505C20.9072 14.8745 20.985 14.7583 21.0544 14.6949C21.0894 14.6629 21.1204 14.646 21.1427 14.6399C21.151 14.6377 21.1571 14.6372 21.1613 14.6373C21.1611 14.6377 21.1608 14.638 21.1606 14.6384C21.1553 14.646 21.1476 14.6552 21.1367 14.6675C21.1336 14.6709 21.1303 14.6746 21.1268 14.6785C21.1185 14.6877 21.1092 14.6981 21.0998 14.709C21.0447 14.773 20.9765 14.8682 20.9617 15.0181L20.9615 15.0193L20.9615 15.0205C20.9582 15.0951 20.9688 15.1822 20.9803 15.2758L20.9812 15.2828C20.9926 15.3759 21.0052 15.4778 21.0088 15.589C21.0162 15.816 20.9862 16.081 20.831 16.3745L20.8308 16.3749C20.6725 16.682 20.6617 16.9795 20.6509 17.2768L20.6507 17.2842C20.6398 17.5851 20.6277 17.888 20.4732 18.2203L20.553 18.2574C20.7158 17.9073 20.7277 17.588 20.7386 17.2874L20.7386 17.2867C20.7496 16.9854 20.7598 16.7049 20.9089 16.4154C21.0729 16.1053 21.1045 15.8243 21.0968 15.5862C21.093 15.4709 21.08 15.3656 21.0686 15.2731L21.0676 15.2651C21.0559 15.1699 21.0466 15.0911 21.0494 15.0256C21.0619 14.9017 21.1174 14.8234 21.1665 14.7664C21.1752 14.7562 21.1834 14.7472 21.1914 14.7383C21.1951 14.7342 21.1988 14.7301 21.2024 14.726C21.2134 14.7137 21.2244 14.7009 21.2331 14.6883C21.2415 14.6761 21.2505 14.6601 21.2531 14.6413C21.256 14.62 21.25 14.5999 21.2366 14.583L21.236 14.5823L21.2354 14.5815C21.2049 14.5464 21.1585 14.5444 21.1196 14.555C21.0797 14.5659 21.0366 14.5919 20.995 14.6299C20.9112 14.7065 20.8257 14.8385 20.7741 15.0279L20.7738 15.029C20.7503 15.1246 20.747 15.2098 20.7489 15.2938C20.7496 15.3242 20.7509 15.3537 20.7522 15.3833C20.7546 15.4372 20.757 15.4915 20.7557 15.5522C20.7519 15.7349 20.7142 15.9653 20.5296 16.3284C20.3392 16.703 20.3184 16.9762 20.299 17.2326L20.2987 17.2362C20.2873 17.3861 20.2761 17.5298 20.2318 17.6872L20.1118 14.5467L20.1118 14.5453C20.1118 14.5442 20.1117 14.5427 20.1116 14.5409C20.1115 14.5373 20.1111 14.5323 20.1105 14.5264C20.1092 14.5147 20.1066 14.4985 20.101 14.4816C20.0907 14.4501 20.0637 14.3994 20.0008 14.3972L19.9985 14.3971L19.9962 14.3973C19.9336 14.4018 19.9061 14.4511 19.8952 14.4837C19.8895 14.5009 19.8868 14.5173 19.8855 14.5291C19.8848 14.535 19.8845 14.5401 19.8843 14.5437C19.8843 14.5456 19.8842 14.5471 19.8842 14.5482L19.8842 14.5496Z" fill="#85340A"/>
<path d="M20.2543 20.108L22.1493 14.9886C22.1493 14.9886 22.1889 14.8924 22.1267 14.8641C22.0588 14.8415 22.0192 14.9376 22.0192 14.9376L19.7395 19.8987M21.1481 18.5693C21.7025 18.0602 21.6685 17.438 22.1833 17.0024C22.7094 16.5668 22.715 16.0407 22.8338 15.7862C22.9639 15.5429 23.1959 15.5599 23.1732 15.4807C23.1449 15.3958 22.8847 15.4298 22.6528 15.7296C22.4322 16.0294 22.551 16.3066 21.9231 16.844C21.2952 17.3814 21.4422 17.8 20.8483 18.2582" fill="#F6B40E"/>
<path fill-rule="evenodd" clip-rule="evenodd" d="M21.979 14.9202L19.6997 19.8803L19.7796 19.9171L22.0597 14.9552L22.06 14.9546L22.06 14.9545L22.06 14.9544L22.0601 14.9542C22.0603 14.9539 22.0606 14.9532 22.061 14.9523C22.0619 14.9504 22.0633 14.9476 22.0651 14.9442C22.069 14.9372 22.0743 14.9287 22.0809 14.9212C22.0938 14.9063 22.1028 14.9035 22.1105 14.9052C22.1149 14.908 22.1191 14.9143 22.1176 14.9335C22.1169 14.9434 22.1146 14.9532 22.1124 14.9608C22.1113 14.9646 22.1103 14.9676 22.1096 14.9695C22.1093 14.9705 22.109 14.9712 22.1088 14.9716L22.1088 14.9718L22.1087 14.9719L22.1085 14.9725L20.9431 18.1208C20.9064 18.1548 20.8661 18.189 20.8215 18.2234L20.8753 18.293C20.8772 18.2916 20.8791 18.2901 20.881 18.2886L20.2131 20.0927L20.2957 20.1233L21.0184 18.1708C21.2206 17.9786 21.316 17.7909 21.4123 17.6007L21.4136 17.598C21.5286 17.371 21.6459 17.1393 21.9518 16.8774C22.2703 16.6048 22.4018 16.396 22.4811 16.2154C22.5065 16.1575 22.527 16.1012 22.5461 16.0486C22.556 16.0215 22.5655 15.9954 22.5751 15.9705C22.6041 15.896 22.6363 15.8265 22.688 15.7561C22.7997 15.6119 22.9161 15.5343 23.0045 15.5023C23.0491 15.4861 23.0842 15.4824 23.1072 15.4853C23.1156 15.4863 23.1215 15.4882 23.1253 15.49C23.125 15.4902 23.1246 15.4905 23.1242 15.4907C23.1165 15.4957 23.1058 15.5013 23.091 15.5084C23.0869 15.5104 23.0824 15.5126 23.0776 15.5148C23.0665 15.5202 23.0539 15.5262 23.0411 15.5326C22.9657 15.5707 22.8662 15.6325 22.7951 15.7654L22.7946 15.7665L22.7941 15.7676C22.7625 15.8352 22.7389 15.9197 22.7137 16.0106L22.7119 16.0174C22.6868 16.1078 22.6594 16.2068 22.6202 16.3109C22.5402 16.5234 22.4111 16.7567 22.1553 16.9685L22.155 16.9688C21.8913 17.1919 21.7674 17.4627 21.6437 17.7332L21.6406 17.74C21.5154 18.0138 21.3884 18.289 21.1184 18.5369L21.178 18.6017C21.4624 18.3405 21.5956 18.0501 21.7207 17.7766L21.721 17.7759C21.8464 17.5017 21.9631 17.2465 22.2116 17.0361C22.4819 16.8123 22.6186 16.5649 22.7026 16.3419C22.7432 16.234 22.7715 16.1317 22.7964 16.0419L22.7986 16.0341C22.8241 15.9417 22.8457 15.8653 22.8733 15.8059C22.9323 15.6962 23.0135 15.6451 23.0807 15.6112C23.0927 15.6052 23.1037 15.5999 23.1145 15.5948C23.1195 15.5924 23.1244 15.59 23.1294 15.5876C23.1442 15.5805 23.1593 15.5729 23.1721 15.5645C23.1845 15.5565 23.199 15.5452 23.2086 15.5288C23.2194 15.5102 23.2216 15.4893 23.2157 15.4686L23.2154 15.4677L23.2151 15.4668C23.2004 15.4226 23.1583 15.4031 23.1183 15.398C23.0772 15.3928 23.0275 15.4003 22.9745 15.4195C22.8678 15.4582 22.7383 15.5474 22.6181 15.7027L22.6175 15.7035C22.5591 15.7828 22.5235 15.8604 22.4931 15.9387C22.4821 15.9671 22.472 15.9948 22.4619 16.0226C22.4435 16.0733 22.4249 16.1244 22.4005 16.18C22.327 16.3473 22.204 16.5457 21.8946 16.8106C21.5753 17.0838 21.4515 17.3283 21.3354 17.5577L21.3338 17.5609C21.2659 17.695 21.2006 17.8235 21.0994 17.952L22.1904 15.0046L22.1909 15.0033C22.1913 15.0023 22.1918 15.0009 22.1925 14.9992C22.1937 14.9958 22.1953 14.991 22.1969 14.9853C22.2002 14.9741 22.204 14.9581 22.2053 14.9403C22.2079 14.9073 22.2024 14.8501 22.145 14.824L22.1429 14.8231L22.1407 14.8223C22.0812 14.8025 22.0369 14.8376 22.0144 14.8636C22.0025 14.8772 21.9938 14.8914 21.9881 14.9017C21.9852 14.907 21.9829 14.9115 21.9814 14.9148C21.9806 14.9165 21.98 14.9179 21.9795 14.9189L21.979 14.9202Z" fill="#85340A"/>
<path d="M20.1937 20.1966L23.9036 16.1921C23.9036 16.1921 23.977 16.1184 23.9303 16.0684C23.8763 16.0216 23.8029 16.0953 23.8029 16.0953L19.7982 19.8063M21.6083 19.1171C22.3153 18.8589 22.522 18.271 23.1643 18.0656C23.817 17.8645 24.0236 17.3806 24.2308 17.1909C24.4441 17.016 24.6518 17.1204 24.6612 17.0386C24.6676 16.9494 24.4142 16.8812 24.0852 17.0694C23.7666 17.262 23.7703 17.5635 22.9845 17.8197C22.1988 18.0759 22.1744 18.5189 21.4503 18.715" fill="#F6B40E"/>
<path fill-rule="evenodd" clip-rule="evenodd" d="M23.7731 16.0638L19.7691 19.7742L19.8289 19.8387L23.8342 16.1271L23.8347 16.1266L23.8348 16.1266L23.8349 16.1265L23.835 16.1264C23.8353 16.1261 23.8358 16.1256 23.8366 16.1249C23.8381 16.1235 23.8404 16.1214 23.8435 16.119C23.8497 16.1141 23.8579 16.1083 23.8668 16.1038C23.8844 16.095 23.8938 16.0958 23.9003 16.1004C23.9033 16.1046 23.9048 16.112 23.896 16.1293C23.8916 16.1381 23.8858 16.1462 23.8808 16.1525C23.8783 16.1555 23.8763 16.1579 23.8749 16.1595C23.8742 16.1602 23.8736 16.1608 23.8734 16.1611L23.8732 16.1612L23.8731 16.1613L23.8727 16.1618L21.5912 18.6245C21.5443 18.6418 21.494 18.658 21.4396 18.6727L21.4626 18.7576C21.4649 18.757 21.4673 18.7563 21.4696 18.7557L20.1622 20.1669L20.2267 20.2267L21.6417 18.6995C21.902 18.5993 22.062 18.4624 22.2237 18.3235L22.226 18.3215C22.419 18.1558 22.6161 17.9865 22.9989 17.8617C23.3975 17.7318 23.5989 17.5891 23.7413 17.4526C23.7869 17.4089 23.8274 17.3647 23.8652 17.3235C23.8847 17.3022 23.9035 17.2817 23.9219 17.2624C23.9772 17.2046 24.0335 17.1528 24.1083 17.1075C24.2666 17.017 24.4039 16.9899 24.4977 16.9941C24.5451 16.9962 24.579 17.0062 24.5991 17.0177C24.6065 17.0219 24.6112 17.0259 24.6141 17.029C24.6137 17.0291 24.6132 17.0291 24.6128 17.0292C24.6037 17.0309 24.5917 17.0319 24.5754 17.0329C24.5708 17.0332 24.5658 17.0334 24.5605 17.0337C24.5482 17.0343 24.5342 17.0351 24.5199 17.0361C24.4357 17.0425 24.3201 17.0615 24.2036 17.1571L24.2027 17.1578L24.2018 17.1587C24.1468 17.2091 24.0927 17.2781 24.0346 17.3525L24.0303 17.358C23.9726 17.4319 23.9094 17.5129 23.8333 17.5941C23.678 17.7598 23.4694 17.926 23.1521 18.0238L23.1517 18.0239C22.8227 18.1291 22.6047 18.3319 22.3868 18.5345L22.3814 18.5395C22.1609 18.7446 21.9382 18.9503 21.5939 19.076L21.6241 19.1586C21.9869 19.0262 22.2211 18.8088 22.4413 18.604L22.4418 18.6035C22.6626 18.3982 22.8681 18.207 23.1783 18.1078C23.5136 18.0044 23.7346 17.8282 23.8975 17.6543C23.9763 17.5701 24.0417 17.4865 24.099 17.413L24.104 17.4066C24.163 17.3311 24.2121 17.2688 24.2604 17.2244C24.3568 17.1456 24.4514 17.1295 24.5265 17.1239C24.5398 17.1229 24.552 17.1223 24.564 17.1216C24.5695 17.1213 24.575 17.1211 24.5805 17.1207C24.5969 17.1198 24.6137 17.1185 24.6288 17.1158C24.6433 17.1131 24.6611 17.1082 24.6762 17.0967C24.6933 17.0837 24.7033 17.0652 24.7057 17.0438L24.7058 17.0429L24.7059 17.0419C24.7092 16.9954 24.6778 16.9613 24.6428 16.9413C24.6068 16.9207 24.558 16.9087 24.5017 16.9062C24.3883 16.9011 24.2345 16.9339 24.0641 17.0314L24.0632 17.0319C23.9789 17.0829 23.9163 17.1409 23.8583 17.2016C23.8373 17.2236 23.8173 17.2454 23.7973 17.2672C23.7609 17.307 23.7242 17.3471 23.6804 17.3891C23.5485 17.5156 23.3589 17.6518 22.9717 17.7781C22.5721 17.9083 22.3642 18.0868 22.1692 18.2543L22.1664 18.2567C22.0524 18.3546 21.9428 18.4483 21.8002 18.5283L23.9361 16.2228L23.9371 16.2218C23.9378 16.221 23.9388 16.2199 23.94 16.2186C23.9425 16.2159 23.9458 16.2121 23.9495 16.2075C23.9568 16.1983 23.9664 16.185 23.9745 16.1691C23.9895 16.1396 24.0063 16.0846 23.9633 16.0386L23.9617 16.0369L23.9599 16.0354C23.9125 15.9943 23.8582 16.0097 23.8274 16.0251C23.8112 16.0332 23.7977 16.0429 23.7885 16.0503C23.7838 16.0541 23.78 16.0574 23.7773 16.0598C23.7759 16.0611 23.7749 16.0621 23.774 16.0629L23.7731 16.0638Z" fill="#85340A"/>
<path d="M19.6559 18.0479C19.6159 17.3279 19.2079 17.0079 19.2879 16.3438C19.1119 16.8638 19.5359 17.2719 19.5119 18.0399M20.1279 19.9439L18.5679 16.5359L19.8719 20.0479" fill="#85340A"/>
<path d="M20.4289 18.0654C20.6675 17.3849 20.413 16.9331 20.741 16.3502C20.3794 16.7633 20.615 17.3025 20.2989 18.0029M20.1394 19.9977L20.0023 16.2521L19.8631 19.9958" fill="#85340A"/>
<path d="M21.1371 18.377C21.6179 17.8396 21.5557 17.3249 22.0818 16.9119C21.5896 17.1552 21.601 17.7435 21.0409 18.2696M20.1302 20.0515L21.4369 16.5386L19.8756 19.944" fill="#85340A"/>
<path d="M21.672 18.9353C22.3219 18.6228 22.4614 18.1234 23.1055 17.9432C22.5577 17.9796 22.343 18.5275 21.6243 18.7992M20.101 20.0969L22.6526 17.3515L19.9069 19.9002" fill="#85340A"/>
<path d="M20.1027 20.2559L25.0627 17.9759C25.0627 17.9759 25.1587 17.9359 25.1347 17.8719C25.1027 17.8079 25.0067 17.8479 25.0067 17.8479L19.8867 19.7439M21.8227 19.7999C22.5747 19.8319 22.9907 19.3679 23.6627 19.4239C24.3427 19.4879 24.7187 19.1199 24.9827 19.0239C25.2467 18.9439 25.3987 19.1199 25.4387 19.0479C25.4787 18.9679 25.2707 18.8079 24.8947 18.8559C24.5267 18.9119 24.4147 19.1919 23.5907 19.1279C22.7667 19.0639 22.5747 19.4639 21.8307 19.3679" fill="#F6B40E"/>
<path fill-rule="evenodd" clip-rule="evenodd" d="M24.9902 17.807L19.8711 19.7027L19.9017 19.7852L25.0225 17.8889L25.0231 17.8886L25.0232 17.8886L25.0233 17.8885L25.0235 17.8885C25.0238 17.8883 25.0245 17.8881 25.0255 17.8877C25.0274 17.887 25.0304 17.886 25.0341 17.8849C25.0417 17.8827 25.0516 17.8805 25.0615 17.8798C25.0812 17.8784 25.0895 17.8828 25.0938 17.8895C25.0949 17.8945 25.0934 17.9019 25.0787 17.9145C25.0713 17.9209 25.0628 17.9263 25.0558 17.9301C25.0524 17.932 25.0495 17.9334 25.0476 17.9343C25.0467 17.9347 25.046 17.935 25.0456 17.9352L25.0454 17.9353L25.0454 17.9353L25.0447 17.9356L21.9945 19.3377C21.9445 19.3358 21.8919 19.3315 21.836 19.3243L21.8247 19.4116C21.8271 19.4119 21.8295 19.4122 21.8319 19.4125L20.084 20.2159L20.1208 20.2959L22.0124 19.4263C22.2913 19.4334 22.4915 19.3682 22.6941 19.3017L22.6969 19.3008C22.9387 19.2215 23.1855 19.1406 23.587 19.1718C24.0049 19.2042 24.2456 19.1495 24.4294 19.0779C24.4883 19.0549 24.5425 19.0296 24.5932 19.006C24.6194 18.9938 24.6446 18.9821 24.669 18.9713C24.7422 18.939 24.8141 18.9127 24.9005 18.8995C25.0814 18.8765 25.2186 18.9039 25.3037 18.9438C25.3467 18.9639 25.3742 18.9861 25.3883 19.0044C25.3936 19.0111 25.3964 19.0166 25.3979 19.0205C25.3974 19.0204 25.397 19.0204 25.3966 19.0203C25.3875 19.0183 25.3761 19.0147 25.3606 19.0093C25.3562 19.0078 25.3515 19.0061 25.3466 19.0044C25.3349 19.0003 25.3218 18.9956 25.3081 18.9911C25.2279 18.9647 25.1138 18.9381 24.9696 18.9818L24.9685 18.9822L24.9673 18.9826C24.8972 19.0081 24.8208 19.0511 24.7387 19.0976L24.7325 19.1011C24.651 19.1473 24.5616 19.1979 24.4602 19.2438C24.2533 19.3375 23.9971 19.4112 23.6665 19.3801L23.666 19.3801C23.3218 19.3514 23.0428 19.4553 22.764 19.5591L22.757 19.5617C22.4748 19.6667 22.1904 19.7715 21.8242 19.756L21.8205 19.8439C22.2063 19.8603 22.5059 19.7491 22.7877 19.6442L22.7884 19.6439C23.071 19.5387 23.334 19.4408 23.6585 19.4677C24.0078 19.5006 24.2795 19.4223 24.4965 19.324C24.6016 19.2764 24.6939 19.2241 24.775 19.1782L24.7821 19.1742C24.8655 19.127 24.9347 19.0882 24.9963 19.0657C25.1155 19.0299 25.2091 19.0512 25.2806 19.0747C25.2933 19.0789 25.3048 19.083 25.3161 19.0869C25.3213 19.0888 25.3265 19.0906 25.3317 19.0924C25.3472 19.0978 25.3632 19.1031 25.3782 19.1063C25.3927 19.1094 25.4109 19.1117 25.4293 19.1068C25.4501 19.1014 25.4664 19.0881 25.4768 19.0693L25.4773 19.0685L25.4777 19.0676C25.4986 19.0259 25.4826 18.9824 25.4579 18.9505C25.4326 18.9178 25.3921 18.888 25.341 18.8641C25.2382 18.8159 25.0836 18.7874 24.8888 18.8123L24.8878 18.8124C24.7904 18.8272 24.7104 18.8569 24.6335 18.8908C24.6057 18.9031 24.5789 18.9155 24.5521 18.9281C24.5032 18.9509 24.454 18.9739 24.3974 18.9959C24.2271 19.0623 23.9998 19.1156 23.5938 19.0841C23.1748 19.0515 22.9144 19.1369 22.6701 19.217L22.6667 19.2181C22.5239 19.2649 22.3868 19.3096 22.2244 19.3289L25.08 18.0162L25.0813 18.0157C25.0823 18.0152 25.0836 18.0146 25.0853 18.0139C25.0885 18.0123 25.093 18.0101 25.0982 18.0072C25.1085 18.0016 25.1225 17.9929 25.136 17.9813C25.1611 17.9598 25.1977 17.9154 25.1756 17.8565L25.1748 17.8543L25.1737 17.8522C25.1457 17.7961 25.0895 17.7896 25.0552 17.792C25.0372 17.7933 25.021 17.7971 25.0096 17.8004C25.0039 17.8021 24.9991 17.8037 24.9956 17.8049C24.9939 17.8056 24.9925 17.8061 24.9915 17.8065L24.9902 17.807Z" fill="#85340A"/>
<path d="M19.9964 20.276L25.4514 20.0677C25.4514 20.0677 25.5554 20.0675 25.5577 19.9992C25.5526 19.9278 25.4486 19.928 25.4486 19.928L19.9928 19.7203M21.76 20.5129C22.4425 20.8303 23.0044 20.5608 23.6038 20.8697C24.2076 21.1891 24.6958 20.993 24.9764 21.0053C25.2509 21.0324 25.324 21.2532 25.3885 21.202C25.4561 21.1434 25.3252 20.9159 24.9594 20.8164C24.598 20.7273 24.3874 20.9431 23.6506 20.5687C22.9138 20.1942 22.5833 20.4903 21.9327 20.1169" fill="#F6B40E"/>
<path fill-rule="evenodd" clip-rule="evenodd" d="M25.4504 19.8842L19.9956 19.6765L19.9922 19.7645L25.4489 19.9722L25.4496 19.9722L25.4497 19.9722L25.4498 19.9722L25.45 19.9722C25.4504 19.9722 25.4511 19.9722 25.4522 19.9722C25.4542 19.9723 25.4573 19.9725 25.4612 19.973C25.4691 19.9738 25.479 19.9756 25.4885 19.9787C25.5072 19.9849 25.5132 19.9922 25.5146 20C25.5137 20.0051 25.5095 20.0114 25.4911 20.0174C25.4817 20.0204 25.4719 20.0221 25.4639 20.023C25.46 20.0234 25.4569 20.0237 25.4548 20.0238C25.4538 20.0238 25.453 20.0238 25.4526 20.0238L25.4524 20.0238L25.4523 20.0238L25.4516 20.0238L22.097 20.152C22.0515 20.1311 22.0046 20.1069 21.9557 20.0789L21.9119 20.1552C21.914 20.1564 21.9161 20.1576 21.9182 20.1588L19.9958 20.2322L19.9992 20.3201L22.0796 20.2407C22.3346 20.3539 22.5445 20.3703 22.7571 20.3864L22.76 20.3867C23.0138 20.4059 23.2728 20.4256 23.6318 20.6081C24.0055 20.798 24.2488 20.8396 24.4459 20.8437C24.5092 20.845 24.569 20.8424 24.6249 20.84C24.6537 20.8387 24.6815 20.8375 24.7081 20.8369C24.7881 20.8351 24.8646 20.8383 24.9495 20.8592C25.1255 20.9072 25.2417 20.985 25.3051 21.0544C25.3371 21.0894 25.354 21.1204 25.3601 21.1427C25.3623 21.151 25.3628 21.1571 25.3627 21.1613C25.3623 21.1611 25.362 21.1608 25.3616 21.1606C25.354 21.1553 25.3448 21.1476 25.3325 21.1367C25.3291 21.1336 25.3254 21.1303 25.3215 21.1268C25.3123 21.1185 25.3019 21.1092 25.291 21.0998C25.227 21.0447 25.1318 20.9765 24.9819 20.9617L24.9807 20.9615L24.9795 20.9615C24.9049 20.9582 24.8178 20.9688 24.7242 20.9803L24.7172 20.9812C24.6241 20.9926 24.5222 21.0052 24.411 21.0088C24.184 21.0162 23.919 20.9862 23.6255 20.831L23.6251 20.8308C23.318 20.6725 23.0205 20.6617 22.7232 20.6509L22.7158 20.6507C22.4149 20.6398 22.112 20.6277 21.7797 20.4732L21.7426 20.553C22.0927 20.7158 22.412 20.7277 22.7126 20.7386L22.7133 20.7386C23.0146 20.7496 23.2951 20.7598 23.5846 20.9089C23.8947 21.0729 24.1757 21.1045 24.4138 21.0968C24.5291 21.093 24.6344 21.08 24.7269 21.0686L24.7349 21.0676C24.8301 21.0559 24.9089 21.0466 24.9744 21.0494C25.0983 21.0619 25.1766 21.1174 25.2336 21.1665C25.2438 21.1752 25.2528 21.1834 25.2617 21.1914C25.2658 21.1951 25.2699 21.1988 25.274 21.2024C25.2863 21.2134 25.2991 21.2244 25.3117 21.2331C25.3239 21.2415 25.3399 21.2505 25.3587 21.2531C25.38 21.256 25.4001 21.25 25.417 21.2366L25.4177 21.236L25.4185 21.2354C25.4536 21.2049 25.4556 21.1585 25.445 21.1196C25.4341 21.0797 25.4081 21.0366 25.3701 20.995C25.2935 20.9112 25.1615 20.8257 24.9721 20.7741L24.971 20.7738C24.8754 20.7503 24.7902 20.747 24.7062 20.7489C24.6758 20.7496 24.6463 20.7509 24.6167 20.7522C24.5628 20.7546 24.5085 20.757 24.4478 20.7557C24.2651 20.7519 24.0347 20.7142 23.6716 20.5296C23.297 20.3392 23.0238 20.3184 22.7674 20.299L22.7638 20.2987C22.6139 20.2873 22.4702 20.2761 22.3128 20.2318L25.4533 20.1118L25.4547 20.1118C25.4558 20.1118 25.4573 20.1117 25.4591 20.1116C25.4627 20.1115 25.4677 20.1111 25.4736 20.1105C25.4853 20.1092 25.5015 20.1066 25.5184 20.101C25.5499 20.0907 25.6006 20.0637 25.6028 20.0008L25.6029 19.9985L25.6027 19.9962C25.5982 19.9336 25.5489 19.9061 25.5163 19.8952C25.4991 19.8895 25.4827 19.8868 25.4709 19.8855C25.465 19.8848 25.4599 19.8845 25.4563 19.8843C25.4544 19.8843 25.4529 19.8842 25.4518 19.8842L25.4504 19.8842Z" fill="#85340A"/>
<path d="M19.891 20.2543L25.0105 22.1493C25.0105 22.1493 25.1066 22.1889 25.1349 22.1267C25.1575 22.0588 25.0614 22.0192 25.0614 22.0192L20.1003 19.7395M21.4297 21.1481C21.9388 21.7025 22.5611 21.6685 22.9966 22.1833C23.4322 22.7094 23.9583 22.715 24.2129 22.8338C24.4561 22.9639 24.4391 23.1959 24.5183 23.1732C24.6032 23.1449 24.5692 22.8847 24.2694 22.6528C23.9696 22.4322 23.6924 22.551 23.155 21.9231C22.6176 21.2952 22.199 21.4422 21.7408 20.8483" fill="#F6B40E"/>
<path fill-rule="evenodd" clip-rule="evenodd" d="M25.0789 21.979L20.1187 19.6997L20.082 19.7796L25.0438 22.0597L25.0445 22.06L25.0445 22.06L25.0446 22.06L25.0448 22.0601C25.0452 22.0603 25.0458 22.0606 25.0468 22.061C25.0486 22.0619 25.0514 22.0633 25.0548 22.0651C25.0618 22.069 25.0703 22.0743 25.0778 22.0809C25.0927 22.0938 25.0955 22.1028 25.0938 22.1105C25.0911 22.1149 25.0848 22.1191 25.0655 22.1176C25.0557 22.1169 25.0459 22.1146 25.0382 22.1124C25.0345 22.1113 25.0315 22.1103 25.0295 22.1096C25.0285 22.1093 25.0278 22.109 25.0274 22.1088L25.0272 22.1088L25.0271 22.1087L25.0265 22.1085L21.8782 20.9431C21.8442 20.9064 21.8101 20.8661 21.7757 20.8215L21.706 20.8753C21.7075 20.8772 21.7089 20.8791 21.7104 20.881L19.9063 20.2131L19.8758 20.2957L21.8282 21.0184C22.0204 21.2206 22.2081 21.316 22.3984 21.4123L22.401 21.4136C22.628 21.5286 22.8598 21.6459 23.1216 21.9518C23.3942 22.2703 23.6031 22.4018 23.7836 22.4811C23.8416 22.5065 23.8978 22.527 23.9504 22.5461C23.9775 22.556 24.0036 22.5655 24.0285 22.5751C24.1031 22.6041 24.1725 22.6363 24.2429 22.688C24.3872 22.7997 24.4648 22.9161 24.4968 23.0045C24.5129 23.0491 24.5167 23.0842 24.5138 23.1072C24.5127 23.1156 24.5108 23.1215 24.509 23.1253C24.5088 23.125 24.5086 23.1246 24.5083 23.1242C24.5033 23.1165 24.4978 23.1058 24.4906 23.091C24.4886 23.0869 24.4865 23.0824 24.4842 23.0776C24.4789 23.0665 24.4729 23.0539 24.4664 23.0411C24.4283 22.9657 24.3665 22.8662 24.2336 22.7951L24.2326 22.7946L24.2315 22.7941C24.1638 22.7625 24.0793 22.7389 23.9884 22.7137L23.9816 22.7119C23.8913 22.6868 23.7923 22.6594 23.6881 22.6202C23.4756 22.5402 23.2423 22.4111 23.0305 22.1553L23.0302 22.155C22.8071 21.8913 22.5363 21.7674 22.2658 21.6437L22.259 21.6406C21.9852 21.5154 21.71 21.3884 21.4621 21.1184L21.3973 21.178C21.6585 21.4624 21.949 21.5956 22.2224 21.7207L22.2231 21.721C22.4973 21.8464 22.7525 21.9631 22.9629 22.2116C23.1867 22.4819 23.4341 22.6186 23.6571 22.7026C23.765 22.7432 23.8673 22.7715 23.9571 22.7964L23.9649 22.7986C24.0573 22.8241 24.1337 22.8457 24.1932 22.8733C24.3028 22.9323 24.3539 23.0135 24.3878 23.0807C24.3939 23.0927 24.3991 23.1037 24.4043 23.1145C24.4067 23.1195 24.409 23.1244 24.4114 23.1294C24.4186 23.1442 24.4262 23.1593 24.4345 23.1721C24.4425 23.1845 24.4539 23.199 24.4703 23.2086C24.4889 23.2194 24.5097 23.2216 24.5304 23.2157L24.5313 23.2154L24.5322 23.2151C24.5764 23.2004 24.596 23.1583 24.6011 23.1183C24.6063 23.0772 24.5987 23.0275 24.5795 22.9745C24.5408 22.8678 24.4517 22.7383 24.2964 22.6181L24.2955 22.6175C24.2162 22.5591 24.1387 22.5235 24.0603 22.4931C24.032 22.4821 24.0042 22.472 23.9764 22.4619C23.9257 22.4435 23.8747 22.4249 23.819 22.4005C23.6517 22.327 23.4533 22.204 23.1885 21.8946C22.9152 21.5753 22.6707 21.4515 22.4413 21.3354L22.4381 21.3338C22.304 21.2659 22.1755 21.2006 22.0471 21.0994L24.9944 22.1904L24.9957 22.1909C24.9967 22.1913 24.9981 22.1918 24.9998 22.1925C25.0032 22.1937 25.008 22.1953 25.0137 22.1969C25.0249 22.2002 25.041 22.204 25.0587 22.2053C25.0917 22.2079 25.1489 22.2024 25.175 22.145L25.1759 22.1429L25.1767 22.1407C25.1965 22.0812 25.1615 22.0369 25.1355 22.0144C25.1218 22.0025 25.1077 21.9938 25.0973 21.9881C25.092 21.9852 25.0875 21.9829 25.0842 21.9814C25.0825 21.9806 25.0812 21.98 25.0801 21.9795L25.0789 21.979Z" fill="#85340A"/>
<path d="M19.8024 20.1937L23.8069 23.9036C23.8069 23.9036 23.8806 23.977 23.9306 23.9303C23.9775 23.8763 23.9038 23.8029 23.9038 23.8029L20.1928 19.7982M20.8819 21.6083C21.1401 22.3153 21.728 22.522 21.9334 23.1643C22.1345 23.817 22.6184 24.0236 22.8081 24.2308C22.983 24.4441 22.8786 24.6518 22.9604 24.6612C23.0496 24.6676 23.1179 24.4142 22.9296 24.0852C22.7371 23.7666 22.4355 23.7703 22.1793 22.9845C21.9231 22.1988 21.4801 22.1744 21.2841 21.4503" fill="#F6B40E"/>
<path fill-rule="evenodd" clip-rule="evenodd" d="M23.9352 23.7721L20.2248 19.7681L20.1603 19.8279L23.8719 23.8333L23.8724 23.8337L23.8725 23.8338L23.8725 23.8339L23.8726 23.834C23.8729 23.8343 23.8734 23.8348 23.8741 23.8356C23.8755 23.8371 23.8776 23.8395 23.88 23.8425C23.885 23.8487 23.8908 23.8569 23.8952 23.8658C23.904 23.8835 23.9032 23.8928 23.8987 23.8994C23.8944 23.9023 23.887 23.9038 23.8698 23.895C23.861 23.8906 23.8528 23.8848 23.8465 23.8798C23.8435 23.8774 23.8411 23.8753 23.8396 23.8739C23.8388 23.8732 23.8383 23.8727 23.838 23.8724L23.8378 23.8722L23.8377 23.8722L23.8372 23.8717L21.3746 21.5902C21.3572 21.5433 21.3411 21.493 21.3264 21.4386L21.2414 21.4616C21.242 21.464 21.2427 21.4663 21.2433 21.4686L19.8321 20.1612L19.7723 20.2258L21.2996 21.6407C21.3998 21.901 21.5367 22.061 21.6756 22.2228L21.6775 22.225C21.8433 22.418 22.0125 22.6151 22.1373 22.998C22.2673 23.3965 22.4099 23.5979 22.5464 23.7403C22.5902 23.7859 22.6343 23.8264 22.6756 23.8642C22.6968 23.8837 22.7173 23.9025 22.7366 23.9209C22.7944 23.9762 22.8463 24.0325 22.8915 24.1073C22.982 24.2657 23.0092 24.4029 23.0049 24.4968C23.0028 24.5442 22.9928 24.5781 22.9813 24.5981C22.9771 24.6055 22.9732 24.6102 22.97 24.6131C22.97 24.6127 22.9699 24.6123 22.9698 24.6118C22.9681 24.6027 22.9671 24.5907 22.9661 24.5744C22.9659 24.5698 22.9656 24.5648 22.9653 24.5595C22.9647 24.5472 22.9639 24.5333 22.9629 24.519C22.9566 24.4347 22.9375 24.3192 22.8419 24.2027L22.8412 24.2017L22.8404 24.2008C22.79 24.1458 22.7209 24.0917 22.6466 24.0336L22.641 24.0293C22.5671 23.9716 22.4861 23.9084 22.4049 23.8323C22.2392 23.677 22.073 23.4685 21.9753 23.1512L21.9751 23.1507C21.8699 22.8217 21.6671 22.6037 21.4645 22.3858L21.4595 22.3804C21.2544 22.1599 21.0488 21.9372 20.923 21.593L20.8404 21.6232C20.9729 21.9859 21.1902 22.2201 21.395 22.4403L21.3956 22.4409C21.6009 22.6616 21.792 22.8672 21.8912 23.1773C21.9946 23.5126 22.1709 23.7336 22.3447 23.8965C22.4289 23.9754 22.5126 24.0407 22.586 24.098L22.5924 24.103C22.668 24.162 22.7303 24.2111 22.7747 24.2594C22.8534 24.3559 22.8695 24.4505 22.8751 24.5255C22.8761 24.5389 22.8768 24.5511 22.8774 24.563C22.8777 24.5685 22.878 24.574 22.8783 24.5795C22.8792 24.5959 22.8805 24.6127 22.8833 24.6278C22.8859 24.6424 22.8909 24.6601 22.9023 24.6752C22.9154 24.6923 22.9338 24.7023 22.9552 24.7047L22.9562 24.7049L22.9571 24.7049C23.0036 24.7082 23.0377 24.6769 23.0577 24.6418C23.0783 24.6059 23.0903 24.557 23.0928 24.5007C23.098 24.3873 23.0651 24.2335 22.9676 24.0631L22.9671 24.0622C22.9162 23.9779 22.8582 23.9154 22.7974 23.8573C22.7754 23.8363 22.7537 23.8164 22.7318 23.7964C22.692 23.7599 22.652 23.7233 22.6099 23.6794C22.4835 23.5475 22.3472 23.3579 22.221 22.9707C22.0907 22.5711 21.9122 22.3632 21.7447 22.1682L21.7423 22.1654C21.6444 22.0514 21.5507 21.9419 21.4708 21.7993L23.7763 23.9351L23.7772 23.9361C23.778 23.9368 23.7791 23.9379 23.7805 23.9391C23.7831 23.9415 23.7869 23.9448 23.7916 23.9485C23.8007 23.9558 23.8141 23.9655 23.8299 23.9735C23.8595 23.9885 23.9144 24.0053 23.9604 23.9623L23.9621 23.9607L23.9636 23.959C24.0048 23.9115 23.9893 23.8572 23.9739 23.8265C23.9658 23.8103 23.9561 23.7968 23.9487 23.7875C23.945 23.7828 23.9417 23.779 23.9392 23.7763C23.938 23.775 23.9369 23.7739 23.9361 23.7731L23.9352 23.7721Z" fill="#85340A"/>
<path d="M21.9512 19.6559C22.6712 19.6159 22.9912 19.2079 23.6552 19.2879C23.1352 19.1119 22.7272 19.5359 21.9592 19.5119M20.0552 20.1279L23.4632 18.5679L19.9512 19.8719" fill="#85340A"/>
<path d="M21.9337 20.4289C22.6142 20.6675 23.0659 20.413 23.6488 20.741C23.2357 20.3794 22.6965 20.615 21.9962 20.2989M20.0014 20.1394L23.7469 20.0023L20.0032 19.8631" fill="#85340A"/>
<path d="M21.622 21.1371C22.1594 21.6179 22.6742 21.5557 23.0871 22.0818C22.8439 21.5896 22.2556 21.601 21.7295 21.0409M19.9476 20.1302L23.4605 21.4369L20.055 19.8756" fill="#85340A"/>
<path d="M21.0637 21.671C21.3762 22.3209 21.8756 22.4604 22.0558 23.1045C22.0194 22.5567 21.4716 22.342 21.1998 21.6233M19.9021 20.1L22.6475 22.6516L20.0988 19.9059" fill="#85340A"/>
<path d="M20 22.2187C21.2254 22.2187 22.2187 21.2254 22.2187 20C22.2187 18.7746 21.2254 17.7812 20 17.7812C18.7746 17.7812 17.7812 18.7746 17.7812 20C17.7812 21.2254 18.7746 22.2187 20 22.2187Z" fill="#F6B40E"/>
<path fill-rule="evenodd" clip-rule="evenodd" d="M20 17.8398C18.807 17.8398 17.8398 18.807 17.8398 20C17.8398 21.193 18.807 22.1602 20 22.1602C21.193 22.1602 22.1602 21.193 22.1602 20C22.1602 18.807 21.193 17.8398 20 17.8398ZM17.7227 20C17.7227 18.7423 18.7423 17.7227 20 17.7227C21.2577 17.7227 22.2773 18.7423 22.2773 20C22.2773 21.2577 21.2577 22.2773 20 22.2773C18.7423 22.2773 17.7227 21.2577 17.7227 20Z" fill="#85340A"/>
<path d="M20.7578 19.5313C20.6016 19.5313 20.4609 19.5938 20.375 19.7266C20.5469 19.8828 20.9219 19.8984 21.1797 19.7109C21.1257 19.6527 21.0605 19.6061 20.988 19.5739C20.9155 19.5417 20.8372 19.5245 20.7578 19.5234V19.5313ZM20.7578 19.5625C20.9063 19.5625 21.0391 19.625 21.0625 19.6953C20.8906 19.8828 20.6172 19.8672 20.4453 19.7266C20.5234 19.6094 20.6406 19.5625 20.7578 19.5625Z" fill="#843511"/>
<path d="M20.7888 19.4219C20.5701 19.4219 20.5154 19.4687 20.4138 19.5547C20.3123 19.6406 20.2576 19.625 20.242 19.6406C20.2263 19.6562 20.242 19.7109 20.2732 19.6953C20.3123 19.6719 20.3826 19.6406 20.4842 19.5547C20.5857 19.4766 20.6873 19.4766 20.7967 19.4766C21.0935 19.4766 21.2654 19.7266 21.3045 19.7109C21.3357 19.6953 21.1326 19.4219 20.7888 19.4219V19.4219Z" fill="#85340A"/>
<path d="M21.4062 19.5237C21.0156 19.18 20.5156 19.1331 20.2422 19.3831C20.1782 19.4682 20.1354 19.5673 20.1172 19.6722C20.0781 19.8675 20.1406 20.0784 20.2969 20.2972C20.2734 20.2972 20.2422 20.305 20.2188 20.3284C20.0859 20.0628 20.0391 19.7972 20.0859 19.5472L20.1406 19.3519C20.5156 19.0394 21.0312 19.0081 21.4062 19.5237V19.5237Z" fill="#85340A"/>
<path d="M20.75 19.8516C20.8363 19.8516 20.9062 19.7816 20.9062 19.6953C20.9062 19.609 20.8363 19.5391 20.75 19.5391C20.6637 19.5391 20.5938 19.609 20.5938 19.6953C20.5938 19.7816 20.6637 19.8516 20.75 19.8516Z" fill="#85340A"/>
<path d="M21.1953 19.7969C20.9062 20.0156 20.6172 20 20.4453 19.8984C20.2734 19.7969 20.2734 19.7578 20.3125 19.7578C20.3437 19.7578 20.3828 19.7969 20.5156 19.8672C20.6562 19.9297 20.8594 19.9297 21.2031 19.7891L21.1953 19.7969Z" fill="#85340A"/>
<path d="M19.6563 20.3125C19.6301 20.3162 19.6053 20.3265 19.5842 20.3423C19.563 20.3582 19.5463 20.3792 19.5355 20.4033C19.5247 20.4274 19.5202 20.4539 19.5224 20.4802C19.5246 20.5066 19.5334 20.5319 19.5481 20.5539C19.5627 20.5759 19.5827 20.5938 19.6062 20.6059C19.6296 20.6181 19.6558 20.6241 19.6822 20.6234C19.7086 20.6227 19.7344 20.6153 19.7572 20.6019C19.78 20.5886 19.799 20.5696 19.8125 20.5469C19.875 20.5938 19.9531 20.5938 20 20.5938H20.0234C20.0625 20.5938 20.1484 20.5938 20.2031 20.5469C20.2344 20.5859 20.2813 20.6094 20.3281 20.6094C20.364 20.6059 20.3976 20.59 20.4231 20.5646C20.4487 20.5392 20.4647 20.5057 20.4683 20.4698C20.472 20.4339 20.4632 20.3979 20.4433 20.3678C20.4235 20.3377 20.3938 20.3154 20.3594 20.3047C20.3984 20.3203 20.4297 20.3594 20.4297 20.4063C20.4297 20.4342 20.4186 20.461 20.3988 20.4808C20.379 20.5006 20.3522 20.5117 20.3242 20.5117C20.2962 20.5117 20.2694 20.5006 20.2496 20.4808C20.2299 20.461 20.2187 20.4342 20.2187 20.4063C20.2008 20.4475 20.1713 20.4826 20.1339 20.5075C20.0965 20.5325 20.0528 20.5461 20.0078 20.5469C19.9635 20.5436 19.9208 20.5289 19.8839 20.5043C19.8469 20.4796 19.8169 20.4459 19.7969 20.4063C19.7969 20.4609 19.75 20.5078 19.6953 20.5078C19.6684 20.512 19.6409 20.5052 19.6189 20.4891C19.5969 20.473 19.5823 20.4488 19.5781 20.4219C19.574 20.3949 19.5807 20.3675 19.5968 20.3455C19.6129 20.3235 19.6371 20.3088 19.6641 20.3047L19.6563 20.3125ZM19.8281 20.7656C19.6562 20.7656 19.5938 20.9219 19.4375 21.0234C19.5156 20.9844 19.5938 20.9219 19.7109 20.8516C19.8281 20.7813 19.9297 20.8672 20 20.8672C20.0703 20.8672 20.1719 20.7813 20.2891 20.8516C20.4063 20.9219 20.4766 20.9844 20.5625 21.0234C20.4063 20.9141 20.3438 20.7656 20.1719 20.7656C20.1121 20.7701 20.0538 20.786 20 20.8125C19.9219 20.7812 19.8594 20.7656 19.8281 20.7656Z" fill="#85340A"/>
<path d="M19.7656 20.9609C19.7031 20.9609 19.6094 20.9844 19.4844 21.0234C19.7969 20.9453 19.8594 21.0547 20 21.0547C20.1328 21.0547 20.2031 20.9531 20.5156 21.0234C20.1719 20.9141 20.1016 20.9844 20 20.9844C19.9297 20.9844 19.8828 20.9609 19.7656 20.9609Z" fill="#85340A"/>
<path d="M19.5 21.0156H19.4375C19.7969 21.0547 19.625 21.2578 20 21.2578C20.375 21.2578 20.2031 21.0547 20.5625 21.0234C20.1875 20.9844 20.3047 21.2109 20 21.2109C19.7109 21.2109 19.7969 21.0156 19.5 21.0156Z" fill="#85340A"/>
<path d="M20.3125 21.5703C20.3125 21.4874 20.2796 21.4079 20.221 21.3493C20.1624 21.2907 20.0829 21.2578 20 21.2578C19.9171 21.2578 19.8376 21.2907 19.779 21.3493C19.7204 21.4079 19.6875 21.4874 19.6875 21.5703C19.6875 21.4874 19.7204 21.4079 19.779 21.3493C19.8376 21.2907 19.9171 21.2578 20 21.2578C20.0829 21.2578 20.1624 21.2907 20.221 21.3493C20.2796 21.4079 20.3125 21.4874 20.3125 21.5703Z" fill="#85340A"/>
<path d="M18.6172 19.5237C19.0078 19.18 19.5078 19.1331 19.7812 19.3831C19.8452 19.4682 19.8881 19.5673 19.9062 19.6722C19.9453 19.8675 19.8828 20.0784 19.7266 20.2972C19.75 20.2972 19.7812 20.305 19.8047 20.3284C19.9375 20.0628 19.9844 19.7972 19.9375 19.5472L19.8828 19.3519C19.5078 19.0394 18.9922 19.0081 18.6172 19.5237V19.5237Z" fill="#85340A"/>
<path d="M19.2346 19.4219C19.4533 19.4219 19.508 19.4687 19.6096 19.5547C19.7112 19.6406 19.7658 19.625 19.7815 19.6406C19.7971 19.6562 19.7815 19.7109 19.7502 19.6953C19.7112 19.6719 19.6408 19.6406 19.5393 19.5547C19.4377 19.4766 19.3362 19.4766 19.2268 19.4766C18.9299 19.4766 18.758 19.7266 18.719 19.7109C18.6877 19.6953 18.8908 19.4219 19.2346 19.4219V19.4219Z" fill="#85340A"/>
<path d="M19.2266 19.5313C19.0703 19.5313 18.9297 19.5938 18.8438 19.7266C19.0156 19.8828 19.3906 19.8984 19.6484 19.7109C19.5945 19.6527 19.5293 19.6061 19.4567 19.5739C19.3842 19.5417 19.3059 19.5245 19.2266 19.5234V19.5313ZM19.2266 19.5625C19.375 19.5625 19.5078 19.625 19.5313 19.6953C19.3594 19.8828 19.0859 19.8672 18.9141 19.7266C18.9922 19.6094 19.1094 19.5625 19.2266 19.5625Z" fill="#843511"/>
<path d="M19.2422 19.8516C19.3285 19.8516 19.3984 19.7816 19.3984 19.6953C19.3984 19.609 19.3285 19.5391 19.2422 19.5391C19.1559 19.5391 19.0859 19.609 19.0859 19.6953C19.0859 19.7816 19.1559 19.8516 19.2422 19.8516Z" fill="#85340A"/>
<path d="M18.8281 19.7969C19.1172 20.0156 19.4063 20 19.5781 19.8984C19.75 19.7969 19.75 19.7578 19.7109 19.7578C19.6797 19.7578 19.6406 19.7969 19.5078 19.8672C19.3672 19.9297 19.1641 19.9297 18.8203 19.7891L18.8281 19.7969Z" fill="#85340A"/>
</g>
<defs>
<clipPath id="clip0_674_3064">
<rect width="40" height="40" rx="20" fill="white"/>
</clipPath>
</defs>
</svg>
