<svg width="40" height="40" viewBox="0 0 40 40" fill="none" xmlns="http://www.w3.org/2000/svg">
<g clip-path="url(#clip0_674_3063)">
<path d="M20 40C31.0457 40 40 31.0457 40 20C40 8.95431 31.0457 0 20 0C8.95431 0 0 8.95431 0 20C0 31.0457 8.95431 40 20 40Z" fill="#012169"/>
<path d="M35.4106 7.25488L19.9999 16.5016L4.58924 7.25488C3.3075 8.8048 2.26732 10.5395 1.50391 12.4002L14.1706 20.0002L1.50391 27.6002C2.26673 29.4614 3.30648 31.1965 4.58791 32.7469L19.9999 23.4989L35.4119 32.7456C36.6933 31.1952 37.7331 29.46 38.4959 27.5989L25.8292 19.9989L38.4959 12.3989C37.7324 10.5386 36.6922 8.80439 35.4106 7.25488Z" fill="white"/>
<path d="M3.98418 31.943L21.9429 21.167L37.1322 30.2803C37.4766 29.7075 37.7921 29.1179 38.0775 28.5136L21.9442 18.8336L37.1322 9.72162C36.7864 9.14739 36.4144 8.59273 36.0162 8.05762L18.0562 18.8336L2.86685 9.72162C2.52463 10.2923 2.20996 10.8807 1.92285 11.487L18.0562 21.167L2.86685 30.2803C3.21129 30.8528 3.5842 31.4077 3.98418 31.943Z" fill="#C8102E"/>
<path d="M25 0.656007C21.7241 -0.218669 18.276 -0.218669 15 0.656007V15H0.656007C-0.218669 18.276 -0.218669 21.7241 0.656007 25H15V39.344C18.276 40.2187 21.7241 40.2187 25 39.344V25H39.344C40.2187 21.7241 40.2187 18.276 39.344 15H25V0.656007Z" fill="white"/>
<path d="M23 0.249333C22.0077 0.0911352 21.0048 0.00778904 20 0C18.9952 0.00778904 17.9923 0.0911352 17 0.249333V17H0.249333C0.0911352 17.9923 0.00778904 18.9952 0 20C0.00778904 21.0048 0.0911352 22.0077 0.249333 23H17V39.7507C17.9923 39.9089 18.9952 39.9922 20 40C21.0048 39.9922 22.0077 39.9089 23 39.7507V23H39.7507C39.9089 22.0077 39.9922 21.0048 40 20C39.9922 18.9952 39.9089 17.9923 39.7507 17H23V0.249333Z" fill="#C8102E"/>
</g>
<defs>
<clipPath id="clip0_674_3063">
<rect width="40" height="40" fill="white"/>
</clipPath>
</defs>
</svg>
