<svg width="40" height="40" viewBox="0 0 40 40" fill="none" xmlns="http://www.w3.org/2000/svg">
<g clip-path="url(#clip0_674_3069)">
<path fill-rule="evenodd" clip-rule="evenodd" d="M20 0C31.0458 0 40 8.95422 40 20C40 31.0458 31.0458 40 20 40C8.95422 40 0 31.0458 0 20C0 8.95422 8.95422 0 20 0Z" fill="#003399"/>
<path fill-rule="evenodd" clip-rule="evenodd" d="M20.0464 4.78125L19.5066 6.27523L17.9837 6.32342L19.256 7.25836L18.7355 8.76197L20.0367 7.82703L20.0464 7.80776L20.056 7.82703L21.3572 8.76197L20.8367 7.25836L22.109 6.32342L20.5861 6.27523L20.0464 4.78125ZM13.3958 6.57402L12.856 8.068L11.3331 8.11619L12.6054 9.05113L12.0849 10.5547L13.3861 9.6198L13.3958 9.60053L13.4054 9.6198L14.7066 10.5547L14.1861 9.05113L15.4584 8.11619L13.9355 8.068L13.3958 6.57402ZM26.5813 6.57402L26.0416 8.068L24.5187 8.11619L25.791 9.05113L25.2705 10.5547L26.5717 9.6198L26.5813 9.60053L26.591 9.6198L27.8922 10.5547L27.3717 9.05113L28.644 8.11619L27.1211 8.068L26.5813 6.57402ZM8.57651 11.3355L8.03675 12.8294L6.51386 12.8776L7.78614 13.8126L7.26566 15.3162L8.56687 14.3812L8.57651 14.362L8.58614 14.3812L9.88735 15.3162L9.36687 13.8126L10.6392 12.8776L9.11626 12.8294L8.57651 11.3355ZM31.4584 11.3355L30.9187 12.8294L29.3958 12.8776L30.6681 13.8126L30.1476 15.3162L31.4488 14.3812L31.4584 14.362L31.4681 14.3812L32.7693 15.3162L32.2488 13.8126L33.5211 12.8776L31.9982 12.8294L31.4584 11.3355ZM6.81265 17.9572L6.27289 19.4511L4.75 19.4993L6.02229 20.4343L5.50181 21.9379L6.80301 21.0029L6.81265 20.9837L6.82229 21.0029L8.12349 21.9379L7.60301 20.4343L8.8753 19.4993L7.35241 19.4511L6.81265 17.9572ZM33.203 17.9572L32.6633 19.4511L31.1404 19.4993L32.4126 20.4343L31.8922 21.9379L33.1934 21.0029L33.203 20.9837L33.2126 21.0029L34.5139 21.9379L33.9934 20.4343L35.2657 19.4993L33.7428 19.4511L33.203 17.9572ZM8.57651 24.521L8.03675 26.015L6.51386 26.0632L7.78614 26.9981L7.26566 28.5017L8.56687 27.5668L8.57651 27.5475L8.58614 27.5668L9.88735 28.5017L9.36687 26.9981L10.6392 26.0632L9.11626 26.015L8.57651 24.521ZM31.4584 24.521L30.9187 26.015L29.3958 26.0632L30.6681 26.9981L30.1476 28.5017L31.4488 27.5668L31.4584 27.5475L31.4681 27.5668L32.7693 28.5017L32.2488 26.9981L33.5211 26.0632L31.9982 26.015L31.4584 24.521ZM13.3958 29.3306L12.856 30.8246L11.3331 30.8728L12.6054 31.8078L12.0849 33.3114L13.3861 32.3764L13.3958 32.3571L13.4054 32.3764L14.7066 33.3114L14.1861 31.8078L15.4584 30.8728L13.9355 30.8246L13.3958 29.3306ZM26.5813 29.3306L26.0416 30.8246L24.5187 30.8728L25.791 31.8078L25.2705 33.3114L26.5717 32.3764L26.5813 32.3571L26.591 32.3764L27.8922 33.3114L27.3717 31.8078L28.644 30.8728L27.1211 30.8246L26.5813 29.3306ZM20.056 31.2294L19.5163 32.7234L17.9934 32.7716L19.2657 33.7065L18.7452 35.2102L20.0464 34.2752L20.056 34.2559L20.0657 34.2752L21.3669 35.2102L20.8464 33.7065L22.1187 32.7716L20.5958 32.7234L20.056 31.2294Z" fill="#FFED00"/>
</g>
<defs>
<clipPath id="clip0_674_3069">
<rect width="40" height="40" fill="white"/>
</clipPath>
</defs>
</svg>
