<svg width="40" height="40" viewBox="0 0 40 40" fill="none" xmlns="http://www.w3.org/2000/svg">
<g clip-path="url(#clip0_674_3066)">
<mask id="mask0_674_3066" style="mask-type:luminance" maskUnits="userSpaceOnUse" x="0" y="0" width="40" height="40">
<path d="M40 20C40 22.6264 39.4827 25.2272 38.4776 27.6537C37.4725 30.0802 35.9993 32.285 34.1421 34.1421C32.285 35.9993 30.0802 37.4725 27.6537 38.4776C25.2272 39.4827 22.6264 40 20 40C17.3736 40 14.7728 39.4827 12.3463 38.4776C9.91982 37.4725 7.71503 35.9993 5.85786 34.1421C4.00069 32.285 2.5275 30.0802 1.52241 27.6537C0.517317 25.2272 -7.82739e-08 22.6264 0 20C0 14.6957 2.10713 9.60859 5.85786 5.85786C9.60859 2.10714 14.6957 0 20 0C25.3043 0 30.3914 2.10714 34.1421 5.85786C37.8929 9.60859 40 14.6957 40 20Z" fill="white"/>
</mask>
<g mask="url(#mask0_674_3066)">
<path d="M40.0054 0.000976562H26.6738V39.9956H40.0054V0.000976562Z" fill="#E32D3C"/>
<path d="M26.6743 0.000976562H13.3428V39.9956H26.6743V0.000976562Z" fill="white"/>
<path d="M13.3413 0.000976562H0.00976562V39.9956H13.3413V0.000976562Z" fill="#2B4896"/>
</g>
</g>
<defs>
<clipPath id="clip0_674_3066">
<rect width="40" height="40" fill="white"/>
</clipPath>
</defs>
</svg>
