<svg width="40" height="40" viewBox="0 0 40 40" fill="none" xmlns="http://www.w3.org/2000/svg">
<g clip-path="url(#clip0_674_3067)">
<path fill-rule="evenodd" clip-rule="evenodd" d="M-1.48438 -1.48438H41.4844V41.4844H-1.48438V-1.48438Z" fill="#00ABC2"/>
<path fill-rule="evenodd" clip-rule="evenodd" d="M4.92041 37.1333C5.16821 37.367 5.08325 37.7705 5.77002 37.721C6.81079 37.721 6.83911 37.0838 6.83911 36.6377C6.83911 36.1917 5.28149 35.5757 5.21069 34.9173C5.13989 34.2588 5.57178 34.0818 5.93286 34.0818C6.28687 34.0818 6.54175 34.2942 6.54175 34.4712C6.54175 34.6482 6.36475 34.7049 6.11694 34.7049C5.86914 34.7049 6.22314 34.5774 6.00366 34.4712C5.78418 34.365 5.64966 34.627 5.64966 34.7898C5.64966 34.9456 6.18774 34.9952 6.54175 34.8819C6.61255 35.2359 6.65503 35.2571 6.14526 35.8589C6.50635 35.6253 6.54175 35.5757 6.93823 35.7032C6.54175 35.3633 6.83911 34.6695 6.85327 34.4925C6.86743 34.3155 6.78247 34.1031 6.61963 33.9969C6.32935 33.742 5.69922 33.7278 5.32397 33.8977C4.77173 34.1385 4.74341 34.8606 4.89209 35.1014L6.41431 36.659C6.52051 36.8431 6.55591 37.3528 5.91162 37.3811C5.22485 37.4307 4.99121 36.5032 4.87085 36.1917C4.70801 36.5315 4.53101 37.4661 3.84424 37.4095C3.19995 37.3882 3.07251 36.8785 3.17871 36.6944L4.74341 35.1014C4.88501 34.8606 4.86377 34.1385 4.3186 33.8977C3.93628 33.7278 3.30615 33.742 3.01587 34.0039C2.86011 34.1031 2.76807 34.3155 2.78223 34.4925C2.79639 34.6695 3.09375 35.3633 2.69727 35.6961C3.09375 35.5686 3.12207 35.6253 3.48315 35.8589C2.98755 35.2571 3.01587 35.2288 3.09375 34.8748C3.44775 34.9952 3.99292 34.9456 3.99292 34.7898C3.99292 34.627 3.85132 34.365 3.63184 34.4712C3.41943 34.5774 3.77344 34.7049 3.52563 34.7049C3.27075 34.7049 3.09375 34.6553 3.09375 34.4712C3.09375 34.2872 3.34155 34.0818 3.70264 34.0818C4.06372 34.0818 4.49561 34.2659 4.41772 34.9173C4.34692 35.5686 2.75391 36.2837 2.75391 36.7298C2.75391 37.1758 2.86719 37.721 3.90796 37.721C4.59473 37.7705 4.67261 37.367 4.92041 37.1263V37.1333Z" fill="#FFEC2D"/>
<path fill-rule="evenodd" clip-rule="evenodd" d="M4.8352 27.7881C5.08301 27.5474 5.28125 26.8323 5.96802 26.8889C7.00879 26.8889 7.40527 27.4624 7.40527 27.9085C7.40527 28.3545 5.28125 31.9937 5.21045 32.6521C5.13965 33.3035 5.57153 33.4876 5.93262 33.4876C6.28662 33.4876 6.5415 33.2752 6.5415 33.0911C6.5415 32.907 6.3645 32.8574 6.1167 32.8574C5.8689 32.8574 6.21582 32.9849 6.00342 33.0911C5.79102 33.1973 5.64941 32.9353 5.64941 32.7796C5.64941 32.6167 6.18042 32.5671 6.5415 32.6875C6.6123 32.3335 6.6477 32.3052 6.14502 31.7034C6.5061 31.937 6.5415 31.9866 6.93799 31.8591C6.5415 32.199 6.83887 32.8928 6.85303 33.0698C6.86719 33.2468 6.78223 33.4592 6.6123 33.5654C6.3291 33.8274 5.69189 33.8345 5.32373 33.6646C4.77148 33.4238 4.74316 32.7017 4.89185 32.4609L6.93799 28.0359C7.04419 27.8518 6.76099 27.2571 6.10962 27.2288C5.42993 27.1721 5.18921 27.8872 5.07593 28.1987L6.00342 28.1279C6.00342 28.1279 6.03882 28.2695 6.00342 28.3687C5.52197 28.397 5.07593 28.489 5.07593 28.489L5.04053 28.9563H5.50073L5.45825 29.1687C5.45825 29.1687 5.07593 29.1404 5.03345 29.1687C4.99805 29.197 4.96265 29.6431 4.96265 29.6431C4.96265 29.6431 4.89185 29.6643 4.82104 29.6643C4.73608 29.6643 4.66528 29.6431 4.66528 29.6431C4.66528 29.6431 4.62988 29.197 4.59448 29.1687C4.55908 29.1404 4.16968 29.1687 4.16968 29.1687L4.13428 28.9563H4.59448L4.55908 28.489C4.55908 28.489 4.10596 28.397 3.62451 28.3687C3.58911 28.2766 3.62451 28.135 3.62451 28.135L4.55908 28.2058C4.43872 27.8872 4.20508 27.1721 3.51831 27.2288C2.87402 27.25 2.58374 27.8518 2.68994 28.0359L4.74316 32.4609C4.88477 32.7017 4.85645 33.4238 4.31128 33.6646C3.93604 33.8345 3.30591 33.8274 3.01562 33.5654C2.85278 33.4592 2.76782 33.2468 2.78198 33.0698C2.79614 32.8928 3.08643 32.199 2.68994 31.8662C3.08643 31.9937 3.12183 31.937 3.48291 31.7034C2.9873 32.3052 3.01562 32.3335 3.08643 32.6875C3.44751 32.5671 3.9856 32.6167 3.9856 32.7796C3.9856 32.9353 3.84399 33.1973 3.63159 33.0911C3.41211 32.9849 3.77319 32.8574 3.51831 32.8574C3.27051 32.8574 3.09351 32.907 3.09351 33.0911C3.09351 33.2752 3.34131 33.4876 3.70239 33.4876C4.06348 33.4876 4.48828 33.3035 4.41748 32.645C4.34668 31.9937 2.22266 28.3545 2.22266 27.9014C2.22266 27.4624 2.61914 26.8889 3.65991 26.8889C4.34668 26.8323 4.5874 27.5474 4.8352 27.7881V27.7881Z" fill="#FFEC2D"/>
<path fill-rule="evenodd" clip-rule="evenodd" d="M4.82764 25.9825C5.07544 26.2233 5.27368 26.9384 5.96045 26.8817C7.00122 26.8817 7.3977 26.3082 7.3977 25.8622C7.3977 25.4161 5.27368 21.777 5.20288 21.1185C5.13208 20.4672 5.56397 20.2831 5.92505 20.2831C6.27905 20.2831 6.53394 20.4955 6.53394 20.6796C6.53394 20.8636 6.35693 20.9132 6.10913 20.9132C5.86133 20.9132 6.21533 20.7858 5.99585 20.6796C5.77637 20.5734 5.64185 20.8353 5.64185 20.9911C5.64185 21.1539 6.17285 21.2035 6.53394 21.0831C6.60474 21.4371 6.64014 21.4655 6.13745 22.0673C6.49854 21.8336 6.53394 21.7841 6.93042 21.9115C6.53394 21.5717 6.8313 20.8778 6.84546 20.7008C6.85962 20.5238 6.77466 20.3114 6.60474 20.2052C6.32153 19.9432 5.68433 19.9362 5.31616 20.1061C4.76392 20.3468 4.7356 21.069 4.88428 21.3097L6.93042 25.7347C7.03662 25.9188 6.75342 26.5135 6.10205 26.5419C5.42236 26.5985 5.18164 25.8834 5.06836 25.5719L5.99585 25.6427C5.99585 25.6427 6.03125 25.5011 5.99585 25.402C5.5144 25.3666 5.06836 25.2816 5.06836 25.2816L5.03296 24.8143H5.479L5.4436 24.6019C5.4436 24.6019 5.06128 24.6302 5.0188 24.6019C4.99048 24.5736 4.948 24.1276 4.948 24.1276C4.948 24.1276 4.8772 24.1063 4.8064 24.1063C4.72144 24.1063 4.65063 24.1276 4.65063 24.1276C4.65063 24.1276 4.61523 24.5736 4.57983 24.6019C4.54443 24.6302 4.15503 24.6019 4.15503 24.6019L4.11963 24.8143H4.57983L4.54443 25.2816C4.54443 25.2816 4.09131 25.3666 3.60986 25.402C3.57446 25.494 3.60986 25.6356 3.60986 25.6356L4.54443 25.5648C4.42407 25.8834 4.19043 26.5985 3.50366 26.5419C2.85937 26.5206 2.56909 25.9188 2.68237 25.7347L4.72852 21.3097C4.87012 21.069 4.8418 20.3468 4.29663 20.1061C3.92139 19.9362 3.29126 19.9432 3.00098 20.2052C2.83813 20.3114 2.75317 20.5238 2.76733 20.7008C2.78149 20.8778 3.07178 21.5716 2.67529 21.9044C3.07178 21.777 3.10718 21.8336 3.46826 22.0673C2.96558 21.4655 3.00098 21.4371 3.07178 21.0831C3.43286 21.2035 3.97095 21.1539 3.97095 20.9911C3.97095 20.8282 3.82935 20.5734 3.61694 20.6796C3.40454 20.7858 3.75854 20.9132 3.50366 20.9132C3.25586 20.9132 3.07886 20.8636 3.07886 20.6796C3.07886 20.4955 3.32666 20.2902 3.68774 20.2902C4.04883 20.2902 4.47363 20.4672 4.40283 21.1256C4.33203 21.777 2.20801 25.4161 2.20801 25.8693C2.20801 26.3082 2.60449 26.8817 3.64526 26.8817C4.33203 26.9384 4.57275 26.2233 4.82056 25.9825H4.82764Z" fill="#FFEC2D"/>
<path fill-rule="evenodd" clip-rule="evenodd" d="M4.8352 13.9966C5.08301 13.7559 5.28125 13.0408 5.96802 13.0903C7.00879 13.0903 7.40527 13.6709 7.40527 14.117C7.40527 14.5559 5.28125 18.1951 5.21045 18.8535C5.13965 19.5049 5.57153 19.689 5.93262 19.689C6.28662 19.689 6.5415 19.4766 6.5415 19.2996C6.5415 19.1226 6.3645 19.0588 6.1167 19.0588C5.8689 19.0588 6.21582 19.1934 6.00342 19.2996C5.79102 19.4058 5.64941 19.1438 5.64941 18.981C5.64941 18.8252 6.18042 18.7686 6.5415 18.8889C6.6123 18.5349 6.6477 18.5137 6.14502 17.9119C6.5061 18.1455 6.5415 18.1951 6.93799 18.0676C6.5415 18.4075 6.83887 19.1013 6.85303 19.2713C6.86719 19.4412 6.78223 19.6607 6.6123 19.7669C6.3291 20.0288 5.69189 20.043 5.32373 19.8731C4.77148 19.6253 4.74316 18.9031 4.89185 18.6694L6.93799 14.2444C7.04419 14.0603 6.76099 13.4585 6.10962 13.4302C5.42993 13.3806 5.18921 14.0957 5.07593 14.4072L6.00342 14.3364C6.00342 14.3364 6.03882 14.478 6.00342 14.5772C5.52197 14.6055 5.07593 14.6904 5.07593 14.6904L5.04053 15.1648H5.50073L5.45825 15.3772C5.45825 15.3772 5.07593 15.3489 5.03345 15.3772C4.99805 15.3984 4.96265 15.8445 4.96265 15.8445C4.96265 15.8445 4.89185 15.8728 4.82104 15.8728C4.73608 15.8728 4.66528 15.8445 4.66528 15.8445C4.66528 15.8445 4.62988 15.3984 4.59448 15.3772C4.55908 15.3489 4.16968 15.3772 4.16968 15.3772L4.13428 15.1648H4.59448L4.55908 14.6904C4.55908 14.6904 4.10596 14.6055 3.62451 14.5772C3.58911 14.4851 3.62451 14.3364 3.62451 14.3364L4.55908 14.4072C4.43872 14.0957 4.20508 13.3806 3.51831 13.4302C2.87402 13.4585 2.58374 14.0603 2.68994 14.2444L4.74316 18.6694C4.88477 18.9031 4.85645 19.6253 4.31128 19.8731C3.93604 20.043 3.30591 20.0288 3.01562 19.7669C2.85278 19.6677 2.76782 19.4553 2.78198 19.2713C2.79614 19.0872 3.08643 18.4075 2.68994 18.0676C3.08643 18.1951 3.12183 18.1455 3.48291 17.9119C2.9873 18.5137 3.01562 18.542 3.08643 18.8889C3.44751 18.7756 3.9856 18.8252 3.9856 18.981C3.9856 19.1367 3.84399 19.4058 3.63159 19.2996C3.41211 19.1934 3.77319 19.0588 3.51831 19.0588C3.27051 19.0588 3.09351 19.1155 3.09351 19.2996C3.09351 19.4837 3.34131 19.689 3.70239 19.689C4.06348 19.689 4.48828 19.5049 4.41748 18.8535C4.34668 18.1951 2.22266 14.5559 2.22266 14.1099C2.22266 13.6709 2.61914 13.0903 3.65991 13.0903C4.34668 13.0408 4.5874 13.7559 4.8352 13.9966V13.9966Z" fill="#FFEC2D"/>
<path fill-rule="evenodd" clip-rule="evenodd" d="M4.8352 12.1909C5.08301 12.4316 5.28125 13.1396 5.96802 13.0901C7.00879 13.0901 7.40527 12.5166 7.40527 12.0705C7.40527 11.6245 5.28125 7.98531 5.21045 7.32687C5.13965 6.6755 5.57153 6.49142 5.93262 6.49142C6.28662 6.49142 6.5415 6.70382 6.5415 6.88082C6.5415 7.05782 6.3645 7.12154 6.1167 7.12154C5.8689 7.12154 6.2229 6.98702 6.00342 6.88082C5.78394 6.77462 5.64941 7.04366 5.64941 7.19943C5.64941 7.35519 6.18042 7.41183 6.5415 7.29147C6.6123 7.64547 6.6477 7.66671 6.14502 8.26852C6.5061 8.03487 6.5415 7.98531 6.93799 8.11276C6.5415 7.77291 6.83887 7.07906 6.85303 6.90914C6.86719 6.73922 6.78223 6.51974 6.6123 6.41354C6.3291 6.15157 5.69189 6.13741 5.32373 6.30734C4.77148 6.55514 4.74316 7.27731 4.89185 7.51095L6.93799 11.936C7.04419 12.1201 6.76099 12.7219 6.10962 12.7502C5.42993 12.7998 5.18921 12.0847 5.07593 11.7732L6.00342 11.844C6.00342 11.844 6.03882 11.7024 6.00342 11.6032C5.69237 11.583 5.38271 11.5451 5.07593 11.49L5.04053 11.0156H5.48657L5.45117 10.8032C5.45117 10.8032 5.06885 10.8315 5.02637 10.8032C4.99805 10.7819 4.95557 10.3359 4.95557 10.3359C4.95557 10.3359 4.88477 10.3076 4.81396 10.3076C4.729 10.3076 4.6582 10.3359 4.6582 10.3359C4.6582 10.3359 4.6228 10.7819 4.5874 10.8103C4.552 10.8315 4.1626 10.8103 4.1626 10.8103L4.1272 11.0227H4.5874L4.552 11.49C4.552 11.49 4.09888 11.5749 3.61743 11.6032C3.59765 11.6823 3.59765 11.7649 3.61743 11.844L4.552 11.7732C4.43164 12.0847 4.198 12.7998 3.51123 12.7502C2.86694 12.7219 2.57666 12.1201 2.68994 11.936L4.73608 7.51095C4.87769 7.27731 4.84936 6.55514 4.3042 6.30734C3.92895 6.13741 3.29883 6.15157 3.00854 6.41354C2.8457 6.51974 2.76074 6.72506 2.7749 6.90914C2.78906 7.09322 3.07935 7.77291 2.68286 8.11276C3.07935 7.98531 3.11475 8.04195 3.47583 8.26852C2.97314 7.66671 3.00854 7.64547 3.07935 7.29147C3.44043 7.40475 3.97852 7.36227 3.97852 7.19943C3.97852 7.03658 3.83691 6.77462 3.62451 6.88082C3.41211 6.98702 3.76611 7.12154 3.51123 7.12154C3.26343 7.12154 3.08643 7.0649 3.08643 6.88082C3.08643 6.69674 3.33423 6.49142 3.69531 6.49142C4.0564 6.49142 4.48828 6.6755 4.41748 7.32687C4.34668 7.98531 2.22266 11.6245 2.22266 12.0705C2.22266 12.5166 2.61914 13.0901 3.65991 13.0901C4.34668 13.1396 4.5874 12.4316 4.8352 12.1909V12.1909Z" fill="#FFEC2D"/>
<path fill-rule="evenodd" clip-rule="evenodd" d="M4.92041 2.84499C5.16821 2.60427 5.08325 2.20779 5.77002 2.25027C6.81079 2.25027 6.83911 2.88747 6.83911 3.33352C6.83911 3.77956 5.28149 4.40261 5.21069 5.05398C5.13989 5.71242 5.57178 5.89651 5.93286 5.89651C6.28687 5.89651 6.54175 5.6841 6.54175 5.50002C6.54175 5.31594 6.36475 5.27346 6.12402 5.27346C5.8833 5.27346 6.23023 5.40798 6.01074 5.5071C5.79126 5.60622 5.65674 5.35134 5.65674 5.19558C5.65674 5.03982 6.19482 4.98318 6.54883 5.10354C6.61963 4.74953 6.66211 4.72121 6.15234 4.11941C6.50635 4.35305 6.54883 4.40261 6.93823 4.28225C6.54175 4.62209 6.83911 5.31594 6.85327 5.48586C6.86743 5.65578 6.78247 5.87527 6.61963 5.98147C6.32935 6.24343 5.69922 6.25759 5.32397 6.08767C4.77173 5.83987 4.74341 5.1177 4.89209 4.88406L6.41431 3.32644C6.52051 3.13528 6.55591 2.62551 5.91162 2.59719C5.22485 2.54763 4.99121 3.4822 4.87085 3.78664C4.70801 3.4468 4.53101 2.51223 3.84424 2.56179C3.19995 2.59011 3.07251 3.09988 3.17871 3.28396L4.74341 4.87698C4.88501 5.11062 4.86377 5.83279 4.3186 6.08059C3.93628 6.25051 3.30615 6.23635 3.01587 5.97439C2.86011 5.86819 2.76807 5.66286 2.78223 5.47878C2.79639 5.2947 3.09375 4.61501 2.69727 4.27517C3.09375 4.40261 3.12207 4.34597 3.48315 4.11233C2.98755 4.71413 3.01587 4.74953 3.09375 5.09646C3.44775 4.9761 3.99292 5.02566 3.99292 5.1885C3.99292 5.34426 3.85132 5.6133 3.63184 5.50002C3.41943 5.4009 3.77344 5.26638 3.52563 5.26638C3.27075 5.26638 3.09375 5.32302 3.09375 5.50002C3.09375 5.67702 3.34155 5.89651 3.70264 5.89651C4.06372 5.89651 4.49561 5.71242 4.41772 5.05398C4.34692 4.40261 2.75391 3.68752 2.75391 3.24148C2.75391 2.79543 2.86719 2.25027 3.90796 2.25027C4.59473 2.20071 4.67261 2.60427 4.92041 2.84499V2.84499Z" fill="#FFEC2D"/>
<path d="M28.5024 17.8165C28.5024 14.6629 25.8049 12.1064 22.4773 12.1064C19.1497 12.1064 16.4521 14.6629 16.4521 17.8165C16.4521 20.9701 19.1497 23.5266 22.4773 23.5266C25.8049 23.5266 28.5024 20.9701 28.5024 17.8165Z" fill="#FFEC2D"/>
<path fill-rule="evenodd" clip-rule="evenodd" d="M22.1943 8.70044C22.1377 8.70044 21.8687 10.5979 21.7695 11.0227C21.6704 11.9785 23.0439 11.9431 22.8174 10.9873L22.1943 8.69336V8.70044ZM22.6758 27.0945C22.7253 27.0945 23.136 25.2183 23.2705 24.8005C23.4333 23.8589 22.0598 23.8093 22.2085 24.7722L22.6758 27.0945V27.0945ZM13.0752 17.7771C13.0752 17.8267 15.0505 18.2231 15.4895 18.3506C16.4807 18.5134 16.5515 17.2178 15.532 17.3594L13.0752 17.7842V17.7771ZM32.3118 18.0037C32.3118 17.9541 30.3152 17.6284 29.8691 17.5151C28.8709 17.3948 28.8638 18.6904 29.8691 18.5134L32.3118 18.0037ZM15.1001 11.759C15.0647 11.7944 16.3674 13.2671 16.6294 13.6282C17.3091 14.3362 18.2083 13.345 17.3091 12.8635L15.1001 11.7661V11.759ZM30.0461 23.866C30.0815 23.8306 28.6514 22.4712 28.354 22.1384C27.6106 21.4871 26.8105 22.542 27.7451 22.9526L30.0461 23.873V23.866ZM18.0808 9.70581C18.0383 9.72705 18.6472 11.5537 18.7463 11.9856C19.0862 12.8848 20.3181 12.2971 19.6809 11.5254L18.0879 9.70581H18.0808ZM26.7964 26.1599C26.8459 26.1387 26.3716 24.2766 26.3079 23.8447C26.0317 22.9243 24.7644 23.4199 25.3379 24.2412L26.8035 26.1528L26.7964 26.1599ZM28.9416 10.9802C28.8992 10.9448 27.3274 12.1555 26.9451 12.3962C26.1875 13.0334 27.2141 13.8972 27.738 13.0547L28.9416 10.9802ZM15.9851 24.6943C16.0205 24.7297 17.6843 23.6323 18.0808 23.4128C18.8809 22.8323 17.925 21.8977 17.3374 22.7048L15.9922 24.6943H15.9851ZM13.5071 14.4919C13.4858 14.5344 15.2063 15.5327 15.5815 15.7947C16.4666 16.2549 16.9834 15.0513 15.9709 14.8601L13.5071 14.4919V14.4919ZM31.4692 21.4587C31.4905 21.4163 29.8408 20.3047 29.4868 20.0215C28.6372 19.4976 28.0354 20.6658 29.0337 20.9207L31.4692 21.4587V21.4587ZM25.7627 9.21729C25.7131 9.20313 24.729 10.874 24.467 11.2351C24.4675 11.3504 24.5041 11.4627 24.5716 11.5562C24.6391 11.6496 24.7342 11.7196 24.8435 11.7563C24.9528 11.793 25.0709 11.7946 25.1811 11.7608C25.2914 11.727 25.3883 11.6595 25.4582 11.5679L25.7627 9.21729ZM19.1145 26.5139C19.1641 26.5352 20.2686 24.928 20.5518 24.5811C21.0686 23.7598 19.8154 23.2358 19.5818 24.1846L19.1145 26.5139V26.5139ZM13.6274 21.6074C13.6487 21.6499 15.6099 21.1826 16.0701 21.1118C17.033 20.8428 16.4949 19.6533 15.6453 20.2056L13.6274 21.6074ZM31.4763 14.3362C31.4622 14.2937 29.4727 14.6265 29.0124 14.6689C28.0212 14.8743 28.4814 16.0991 29.3665 15.6035L31.4763 14.3362V14.3362Z" fill="#FFEC2D"/>
<path fill-rule="evenodd" clip-rule="evenodd" d="M24.1482 8.82056C24.0986 8.81348 23.4331 10.6189 23.2349 11.0154C22.9446 11.9358 24.2969 12.1624 24.2756 11.1853L24.1553 8.81348L24.1482 8.82056ZM20.7144 26.9385C20.7639 26.9526 21.564 25.1897 21.7905 24.8003C22.1445 23.9082 20.8135 23.5967 20.7639 24.5667L20.7073 26.9385H20.7144ZM20.0276 8.99756C19.978 9.01172 20.1621 10.9233 20.1621 11.3623C20.2966 12.304 21.6206 11.9783 21.1816 11.1003L20.0276 8.99756V8.99756ZM24.842 26.8323C24.8916 26.8252 24.842 24.9065 24.8774 24.4675C24.8137 23.5117 23.4614 23.7524 23.8437 24.6587L24.835 26.8323H24.842ZM16.615 10.5835C16.5725 10.6118 17.5142 12.304 17.6912 12.7075C18.2009 13.5359 19.2983 12.7571 18.5266 12.0986L16.615 10.5835ZM28.283 25.303C28.3254 25.2747 27.5041 23.5188 27.3625 23.1082C26.9165 22.2515 25.7695 22.9595 26.4846 23.6604L28.283 25.303ZM14.1228 12.9624C14.0945 13.0049 15.6167 14.2651 15.9353 14.5908C16.7212 15.1855 17.4504 14.0811 16.4875 13.7341L14.1228 12.9624ZM30.7043 22.8533C30.7327 22.8108 29.3096 21.4514 29.0122 21.1116C28.2759 20.4673 27.4688 21.5222 28.4033 21.9329L30.7043 22.8533ZM13.0325 15.929C13.0183 15.9785 14.8945 16.6936 15.3052 16.8989C16.2539 17.2175 16.5583 15.9502 15.5247 15.9219L13.0325 15.929V15.929ZM31.9646 20.0212C31.9858 19.9788 30.1663 19.1433 29.7698 18.9097C28.8494 18.5273 28.4458 19.7734 29.4724 19.8726L31.9646 20.0212ZM12.9688 19.5752C12.9758 19.6177 15.0007 19.5894 15.4609 19.6248C16.4663 19.5752 16.2256 18.2937 15.2627 18.6406L12.9688 19.5752ZM32.0991 16.3892C32.0991 16.3396 30.0742 16.2334 29.6211 16.1697C28.6086 16.1555 28.7573 17.4512 29.7415 17.1609L32.0991 16.3821V16.3892ZM14.7034 23.356C14.7317 23.3984 16.5442 22.5347 16.969 22.3718C17.8469 21.9116 17.0398 20.8567 16.3389 21.5718L14.7034 23.356ZM30.4424 12.573C30.4141 12.5305 28.552 13.2739 28.106 13.4084C27.1926 13.812 27.9219 14.9165 28.6724 14.251L30.4424 12.573V12.573ZM17.6487 25.8623C17.6912 25.8835 18.9868 24.4109 19.3125 24.0994C19.9285 23.3418 18.7461 22.6833 18.3992 23.6038L17.6487 25.8623ZM27.5396 10.0171C27.5041 9.98877 26.1023 11.3694 25.7554 11.6597C25.0898 12.3748 26.2227 13.1111 26.6333 12.219L27.5325 10.0171H27.5396Z" fill="#FFEC2D"/>
<path fill-rule="evenodd" clip-rule="evenodd" d="M13.2721 21.6147C13.3803 21.9799 13.3957 24.0246 15.5744 25.9964C17.7376 27.9535 21.446 28.3917 21.446 28.3917C21.446 28.3917 21.4614 28.6692 21.1988 28.6838C20.9361 28.713 19.6691 28.4647 19.0355 28.2748C18.4175 28.0996 17.8612 27.7783 17.7994 27.7929C17.7222 27.8221 17.5985 28.0265 17.4131 27.9973C17.2277 27.9681 16.3315 27.0918 15.9298 26.8581C15.1262 26.2016 14.4148 25.4506 13.8129 24.6235C13.3803 23.9662 13.2721 23.5281 13.133 23.5281C12.994 23.5281 12.4841 23.8494 12.4841 23.8494C12.4841 23.8494 12.0205 23.1921 11.6188 22.1405C11.2016 21.0889 11.248 20.4755 11.3407 20.4317C11.4488 20.3879 11.4488 21.2058 11.7579 21.9507C12.0669 22.7101 12.4995 22.9438 12.4995 22.9438C12.4995 22.9438 12.2214 22.5495 12.0051 21.5709C11.7888 20.5924 11.696 19.643 11.8506 19.3509C12.0051 19.0588 12.1441 18.9711 12.1596 18.9857C12.1905 19.015 11.8969 19.4385 12.0978 20.5631C12.2987 21.6878 12.8395 22.6371 12.9631 22.5933C13.0867 22.5495 12.8858 22.3158 12.8086 21.6586C12.7313 21.0013 12.8858 20.5924 13.0558 20.5339C13.133 20.4755 13.2567 21.2642 13.2721 21.6147V21.6147ZM11.7579 23.4842C11.3407 23.1191 10.6917 21.8484 10.5526 21.9068C10.3981 21.9799 11.6033 23.8056 11.6342 23.9516C11.6651 24.1269 11.9278 24.6235 11.727 24.5504C11.5261 24.4774 10.0891 23.0461 10.2591 23.3236C10.429 23.6011 11.5106 24.8572 11.4488 24.9302C11.387 25.0032 10.5526 24.2291 10.5217 24.3314C10.5063 24.419 11.3407 25.1785 11.3252 25.2661C11.3098 25.3537 10.7844 24.7841 10.7844 24.901C10.7844 25.0178 11.3252 25.5874 11.3252 25.6751C11.3252 25.7627 10.8617 25.2661 11.0162 25.529C11.1552 25.8211 11.557 26.0694 11.5415 26.157C11.5261 26.2447 11.2016 26.0402 11.2016 26.084C11.2016 26.1278 11.8042 26.3323 11.9433 26.493C12.0978 26.6536 13.0867 27.7344 13.8284 28.2748C14.57 28.8152 16.7024 29.7646 16.8569 29.7646C16.9959 29.7646 17.2123 29.4725 17.1659 29.3556C17.1195 29.2388 15.0336 28.567 14.4619 28.0704C13.8747 27.5738 12.4532 26.3761 12.3296 26.3177C12.2214 26.2447 11.8969 26.2739 11.8969 26.2009C11.8969 26.1278 12.3141 26.2447 12.2832 26.2009C12.2678 26.157 11.7115 25.9234 11.727 25.8795C11.7579 25.8357 12.1132 25.9672 12.1132 25.9234C12.1132 25.8795 11.4643 25.5436 11.4952 25.4706C11.5106 25.3976 11.9742 25.6751 11.9742 25.6166C11.9742 25.5874 11.3561 25.1785 11.3716 25.1054C11.387 25.0324 11.8506 25.4268 11.8351 25.3391C11.8197 25.2515 11.4643 24.7549 11.4643 24.6965C11.4643 24.6235 12.0205 25.1931 12.0823 25.0762C12.1132 24.974 11.8815 24.0246 11.8969 24.01C11.9124 23.9954 12.3141 24.2145 12.3759 24.0831C12.4532 23.937 12.0978 23.7471 11.7579 23.4842V23.4842ZM18.881 30.6701C18.5874 30.714 18.4484 30.6117 18.6183 30.378C18.8501 30.378 19.4682 30.1882 19.6845 30.1005C19.9008 30.0129 20.1326 29.8961 20.318 29.7354C20.5034 29.5455 20.6271 29.8376 20.5189 29.9983C20.4416 30.1005 20.0862 30.2904 19.8236 30.3926C19.4373 30.5095 19.0973 30.6847 18.881 30.6701ZM20.8125 29.9253C20.6116 29.7208 20.7816 29.5747 21.0751 29.4141C21.5078 29.195 21.3842 28.8883 21.9404 28.64C22.1877 28.4939 25.6488 27.1794 26.7768 26.4784C27.9047 25.7773 31.0723 23.5134 31.9221 21.9507C32.7565 20.4025 32.3548 20.2856 32.4784 20.2272C32.5866 20.1542 32.7102 20.4463 32.6947 20.7968C32.6638 21.1328 32.3857 22.1551 32.4784 22.2574C32.5711 22.3596 33.7454 21.4541 34.2399 20.3587C34.7343 19.2633 35.1052 18.124 35.3369 18.124C35.5842 18.124 34.9352 19.9935 34.518 20.7238C34.1163 21.4541 33.6373 21.8192 33.7454 21.9799C33.869 22.1259 35.0743 21.1766 35.4915 20.4755C35.8932 19.7598 36.2795 19.1318 36.3567 19.2633C36.2338 20.1188 35.877 20.9293 35.3215 21.6147C34.6725 22.3158 33.8999 22.827 34.0236 22.9292C34.1317 23.0461 35.0125 23.1629 35.9241 22.5787C36.8512 21.9799 36.9439 21.1181 37.0521 21.162C37.1757 21.2058 36.9439 22.3888 36.0632 23.1191C35.1824 23.8494 34.0236 23.9224 34.0545 24.0831C34.1163 24.2291 36.5731 23.4112 36.5267 23.6011C36.4804 23.7763 33.3437 24.9448 33.3128 25.0616C33.3128 25.1493 33.8536 25.1785 34.7034 24.9886C35.5378 24.8133 36.3413 24.1853 36.4495 24.3314C36.4804 24.5358 35.8468 25.0324 34.8888 25.2661C33.9154 25.4998 33.4364 25.8065 33.4055 25.8795C33.39 25.9526 35.1361 25.6751 35.1361 25.7627C35.1361 25.8503 32.8492 26.2739 32.8338 26.3907C32.8029 26.493 34.997 25.9672 34.9661 26.0986C34.9043 26.2009 31.9839 27.0188 32.0149 27.0626C32.0303 27.121 34.4562 26.566 34.4098 26.6536C34.348 26.7559 30.3306 27.8221 30.2997 27.8951C30.2688 27.9535 33.8536 27.1356 33.8227 27.2086C33.7918 27.2817 31.9685 27.7052 31.9685 27.749C31.9685 27.7929 33.4364 27.53 33.4055 27.603C33.39 27.6614 29.6971 28.5523 29.6199 28.6838C29.5426 28.8298 31.5359 28.3187 31.505 28.5816C31.4741 28.8445 27.2249 30.1882 27.2094 29.9399C27.1785 29.6916 29.7898 29.0635 29.7744 28.9905C29.7435 28.9175 28.2756 29.1366 28.2447 29.0051C28.2292 28.8591 29.2181 28.567 29.1409 28.5085C29.0636 28.4355 28.3219 28.713 28.3837 28.5523C28.461 28.3917 29.8671 27.7783 29.8362 27.7344C29.8207 27.6906 29.3263 27.8805 29.3726 27.7344C29.4344 27.5738 32.4166 26.7559 32.3702 26.6536C32.3239 26.566 30.9951 26.8581 30.8714 26.8873C30.8251 26.7997 32.7256 26.1278 32.6947 26.011C32.6329 25.9088 31.6749 26.4053 31.6131 26.2739C31.5822 26.1278 33.2973 25.4998 33.1892 25.3976C33.081 25.2953 32.3084 25.6605 32.2003 25.5582C32.0921 25.456 33.8227 24.3314 33.56 24.3021C33.2973 24.2875 32.9728 24.6527 32.9419 24.419C32.9728 24.1269 34.2862 23.6449 33.9927 23.4112C33.5291 23.2798 31.9685 23.5134 31.3195 23.8786C30.6706 24.2437 28.5073 26.2739 27.982 26.5952C27.4566 26.9019 25.6643 27.6176 25.3243 27.7636C24.799 27.9389 24.7063 28.2018 24.1655 28.4647C23.192 28.713 23.2075 28.9905 22.7439 29.1512C22.5739 29.195 20.8279 29.9837 20.8125 29.9253V29.9253ZM18.3711 30.9476C18.0775 31.0937 17.8149 31.4442 17.9848 31.5903C18.0775 31.7656 18.3711 31.1959 18.6029 31.2252L19.839 31.2836C20.5034 31.3274 20.8279 31.1521 21.1988 31.1813C21.5696 31.2105 22.3885 30.9915 22.7748 30.9915C23.1611 30.9915 23.2384 31.0353 23.2693 30.8746C23.3156 30.7286 22.064 30.8308 21.5078 30.8162C20.9515 30.787 20.2562 30.9184 19.839 30.9184C19.4527 30.9038 18.7883 30.787 18.3711 30.9476V30.9476Z" fill="#FFEC2D"/>
<path d="M20.2177 30.7728C20.2177 30.6518 20.1001 30.5537 19.9551 30.5537C19.81 30.5537 19.6924 30.6518 19.6924 30.7728C19.6924 30.8938 19.81 30.9919 19.9551 30.9919C20.1001 30.9919 20.2177 30.8938 20.2177 30.7728Z" fill="#FFEC2D"/>
<path fill-rule="evenodd" clip-rule="evenodd" d="M26.3833 30.3492C26.646 30.3053 27.3568 30.539 27.8512 30.6413C28.7474 30.9772 30.4162 30.8165 30.4162 30.9772C30.4162 31.1379 30.308 31.3277 29.9218 31.3569C29.5355 31.3861 28.562 31.2109 28.5929 31.2109C28.6238 31.2109 29.3655 31.5468 29.1492 31.6344C28.9329 31.7221 28.2993 31.4446 28.1912 31.5176C28.083 31.5906 28.7783 31.7221 28.6547 31.7659C28.562 31.8097 28.083 31.7075 27.9285 31.7221C27.774 31.7513 28.0521 31.9119 27.8667 31.9704C27.6813 32.0434 27.3722 31.8827 27.2486 31.9266C27.1096 31.9704 27.5268 32.2187 27.3413 32.2479C27.1559 32.2771 26.7233 32.131 26.4761 32.1018C26.2288 32.1018 26.7078 32.3355 26.5533 32.3647C26.3988 32.3793 25.9662 32.1748 25.858 32.1748C25.7498 32.1748 25.858 32.467 25.7035 32.467C25.549 32.467 25.3635 32.2187 25.2708 32.2187C25.1781 32.2187 25.2708 32.5108 25.1163 32.5108C24.9618 32.5108 24.9 32.2041 24.7764 32.2187C24.6219 32.2479 24.7764 32.613 24.5601 32.5838C24.3592 32.5692 24.3283 32.2041 24.1583 32.2187C24.0038 32.2479 24.1892 32.5838 24.0347 32.5838C23.8802 32.5838 23.8493 32.2479 23.6948 32.2187C23.5403 32.2041 23.6021 32.54 23.5094 32.54C23.4166 32.54 23.3239 32.2187 23.2621 32.2187C23.2158 32.2187 23.2621 32.54 23.0767 32.5108C22.8913 32.4816 22.8913 32.1602 22.8449 32.1748C22.7831 32.2041 22.7831 32.4377 22.6595 32.4377C22.5359 32.4377 22.5205 32.2041 22.4741 32.2333C22.4123 32.2479 22.2269 32.54 22.1033 32.4962C21.9642 32.4523 22.1342 32.2187 22.0724 32.2187C22.0106 32.2187 21.856 32.3793 21.7633 32.3647C21.6706 32.3501 21.7633 32.1602 21.7324 32.1602C21.7015 32.1602 21.4697 32.2771 21.3616 32.2771C21.2534 32.2771 20.9598 32.4231 20.8826 32.2917C20.8053 32.1456 21.0835 32.1456 21.1453 32.0142C21.1916 31.8827 20.9908 31.4884 21.2071 31.3569C21.4079 31.2109 22.0724 31.5468 23.0613 31.3131C24.8536 30.8603 26.2443 30.3346 26.3833 30.3492V30.3492Z" fill="#FFEC2D"/>
</g>
<defs>
<clipPath id="clip0_674_3067">
<rect width="40" height="40" rx="20" fill="white"/>
</clipPath>
</defs>
</svg>
