<svg width="24" height="24" viewBox="0 0 24 24" fill="none" xmlns="http://www.w3.org/2000/svg">
<path d="M19.7 3.2H17.5V2.1C17.5 1.80826 17.3841 1.52847 17.1778 1.32218C16.9715 1.11589 16.6917 1 16.4 1C16.1083 1 15.8285 1.11589 15.6222 1.32218C15.4159 1.52847 15.3 1.80826 15.3 2.1V3.2H8.7V2.1C8.7 1.80826 8.58411 1.52847 8.37782 1.32218C8.17153 1.11589 7.89174 1 7.6 1C7.30826 1 7.02847 1.11589 6.82218 1.32218C6.61589 1.52847 6.5 1.80826 6.5 2.1V3.2H4.3C3.42479 3.2 2.58542 3.54768 1.96655 4.16655C1.34768 4.78542 1 5.62479 1 6.5V19.7C1 20.5752 1.34768 21.4146 1.96655 22.0335C2.58542 22.6523 3.42479 23 4.3 23H19.7C20.5752 23 21.4146 22.6523 22.0335 22.0335C22.6523 21.4146 23 20.5752 23 19.7V6.5C23 5.62479 22.6523 4.78542 22.0335 4.16655C21.4146 3.54768 20.5752 3.2 19.7 3.2ZM20.8 19.7C20.8 19.9917 20.6841 20.2715 20.4778 20.4778C20.2715 20.6841 19.9917 20.8 19.7 20.8H4.3C4.00826 20.8 3.72847 20.6841 3.52218 20.4778C3.31589 20.2715 3.2 19.9917 3.2 19.7V12H20.8V19.7ZM20.8 9.8H3.2V6.5C3.2 6.20826 3.31589 5.92847 3.52218 5.72218C3.72847 5.51589 4.00826 5.4 4.3 5.4H6.5V6.5C6.5 6.79174 6.61589 7.07153 6.82218 7.27782C7.02847 7.48411 7.30826 7.6 7.6 7.6C7.89174 7.6 8.17153 7.48411 8.37782 7.27782C8.58411 7.07153 8.7 6.79174 8.7 6.5V5.4H15.3V6.5C15.3 6.79174 15.4159 7.07153 15.6222 7.27782C15.8285 7.48411 16.1083 7.6 16.4 7.6C16.6917 7.6 16.9715 7.48411 17.1778 7.27782C17.3841 7.07153 17.5 6.79174 17.5 6.5V5.4H19.7C19.9917 5.4 20.2715 5.51589 20.4778 5.72218C20.6841 5.92847 20.8 6.20826 20.8 6.5V9.8Z" fill="#454545"/>
</svg>
