<svg width="24" height="24" viewBox="0 0 24 24" fill="none" xmlns="http://www.w3.org/2000/svg">
<path d="M4.66716 19C4.39216 19 4.20882 18.9125 4.02549 18.7375L1.27549 16.1125C0.908822 15.7625 0.908822 15.2375 1.27549 14.8875L4.02549 12.2625C4.39216 11.9125 4.94215 11.9125 5.30882 12.2625C5.67549 12.6125 5.67549 13.1375 5.30882 13.4875L4.11716 14.625H13.8338C14.3838 14.625 14.7505 14.975 14.7505 15.5C14.7505 16.025 14.3838 16.375 13.8338 16.375H4.11716L5.30882 17.5125C5.85882 18.0375 5.49216 19 4.66716 19ZM19.3338 12C18.5088 12 18.1422 11.0375 18.6922 10.5125L19.8838 9.375H10.1672C9.61716 9.375 9.25049 9.025 9.25049 8.5C9.25049 7.975 9.61716 7.625 10.1672 7.625H19.8838L18.6922 6.4875C18.3255 6.1375 18.3255 5.6125 18.6922 5.2625C19.0588 4.9125 19.6088 4.9125 19.9755 5.2625L22.7255 7.8875C23.0922 8.2375 23.0922 8.7625 22.7255 9.1125L19.9755 11.7375C19.7922 11.9125 19.6088 12 19.3338 12Z" fill="black"/>
</svg>
