<svg width="24" height="24" viewBox="0 0 24 24" fill="none" xmlns="http://www.w3.org/2000/svg">
<path d="M21.8219 10.15C21.7974 10.0193 21.7318 9.8998 21.6347 9.80897C21.5375 9.71813 21.4139 9.66068 21.2819 9.645C21.1498 9.62902 21.0161 9.65571 20.9003 9.72115C20.7844 9.7866 20.6926 9.88737 20.6381 10.0088C20.44 10.4463 20.005 10.7506 19.5006 10.75C18.9412 10.7513 18.4687 10.3738 18.3112 9.85563C18.2162 9.53938 17.8913 9.35188 17.57 9.42688C17.3725 9.47313 17.1856 9.5 17 9.5C15.6231 9.4975 14.5025 8.37688 14.5 7C14.5 6.81438 14.5269 6.6275 14.5731 6.43063C14.6488 6.10938 14.4606 5.78375 14.1444 5.68875C13.6262 5.53187 13.2487 5.05937 13.25 4.5C13.2494 3.995 13.5538 3.56063 13.9913 3.3625C14.1126 3.30798 14.2133 3.21611 14.2787 3.10031C14.3442 2.9845 14.3709 2.85081 14.355 2.71875C14.3394 2.58658 14.282 2.46284 14.1912 2.36558C14.1004 2.26833 13.9808 2.20265 13.85 2.17812C13.2537 2.06625 12.6363 2 12 2C6.48375 2.00125 2.00125 6.48375 2 12C2.00125 17.5163 6.48375 21.9987 12 22C17.5163 21.9987 21.9987 17.5163 22 12C22 11.3637 21.9338 10.7462 21.8219 10.15ZM18.1844 18.1844C16.5975 19.77 14.4137 20.75 12 20.75C9.58625 20.75 7.4025 19.77 5.81563 18.1844C4.23 16.5975 3.25 14.4137 3.25 12C3.25 9.58625 4.23 7.4025 5.81563 5.81563C7.4025 4.23 9.58625 3.25 12 3.25C12.1125 3.25 12.2225 3.26187 12.3344 3.26687C12.1256 3.63062 12.0006 4.04937 12 4.5C12.0013 5.43313 12.5188 6.23312 13.2731 6.66C13.2613 6.77125 13.25 6.8825 13.25 7C13.2513 9.06938 14.9306 10.7487 17 10.75C17.1175 10.75 17.2288 10.7388 17.34 10.7269C17.7669 11.4806 18.5663 11.9987 19.5 12C19.9506 11.9994 20.3694 11.8744 20.7331 11.6656C20.7381 11.7769 20.75 11.8875 20.75 12C20.75 14.4137 19.77 16.5975 18.1844 18.1844Z" fill="black"/>
<path d="M9.5 8.25C10.1904 8.25 10.75 7.69036 10.75 7C10.75 6.30964 10.1904 5.75 9.5 5.75C8.80964 5.75 8.25 6.30964 8.25 7C8.25 7.69036 8.80964 8.25 9.5 8.25Z" fill="black"/>
<path d="M7 13.25C7.69036 13.25 8.25 12.6904 8.25 12C8.25 11.3096 7.69036 10.75 7 10.75C6.30964 10.75 5.75 11.3096 5.75 12C5.75 12.6904 6.30964 13.25 7 13.25Z" fill="black"/>
<path d="M13.25 18.25C13.9404 18.25 14.5 17.6904 14.5 17C14.5 16.3096 13.9404 15.75 13.25 15.75C12.5596 15.75 12 16.3096 12 17C12 17.6904 12.5596 18.25 13.25 18.25Z" fill="black"/>
<path d="M12.625 13.25C12.9702 13.25 13.25 12.9702 13.25 12.625C13.25 12.2798 12.9702 12 12.625 12C12.2798 12 12 12.2798 12 12.625C12 12.9702 12.2798 13.25 12.625 13.25Z" fill="black"/>
<path d="M17.625 15.75C17.9702 15.75 18.25 15.4702 18.25 15.125C18.25 14.7798 17.9702 14.5 17.625 14.5C17.2798 14.5 17 14.7798 17 15.125C17 15.4702 17.2798 15.75 17.625 15.75Z" fill="black"/>
<path d="M8.875 17C9.22018 17 9.5 16.7202 9.5 16.375C9.5 16.0298 9.22018 15.75 8.875 15.75C8.52982 15.75 8.25 16.0298 8.25 16.375C8.25 16.7202 8.52982 17 8.875 17Z" fill="black"/>
</svg>
