<svg width="24" height="24" viewBox="0 0 24 24" fill="none" xmlns="http://www.w3.org/2000/svg">
<g clip-path="url(#clip0_583_4795)">
<path d="M17.0508 19.0711L12 14.0204L6.94924 19.0711C6.68133 19.339 6.31796 19.4895 5.93908 19.4895C5.5602 19.4895 5.19684 19.339 4.92893 19.0711C4.66102 18.8032 4.51051 18.4398 4.51051 18.061C4.51051 17.6821 4.66102 17.3187 4.92893 17.0508L9.97969 12L4.92893 6.94928C4.66102 6.68137 4.51051 6.31801 4.51051 5.93913C4.51051 5.56025 4.66102 5.19689 4.92893 4.92898C5.19684 4.66107 5.5602 4.51056 5.93908 4.51056C6.31796 4.51056 6.68133 4.66107 6.94924 4.92898L12 9.97974L17.0508 4.92898C17.3187 4.66107 17.682 4.51056 18.0609 4.51056C18.4398 4.51056 18.8032 4.66107 19.0711 4.92898C19.339 5.19689 19.4895 5.56025 19.4895 5.93913C19.4895 6.31801 19.339 6.68137 19.0711 6.94928L14.0203 12L19.0711 17.0508C19.339 17.3187 19.4895 17.6821 19.4895 18.061C19.4895 18.4398 19.339 18.8032 19.0711 19.0711C18.8032 19.339 18.4398 19.4895 18.0609 19.4895C17.682 19.4895 17.3187 19.339 17.0508 19.0711Z" fill="black"/>
</g>
<defs>
<clipPath id="clip0_583_4795">
<rect width="24" height="24" fill="white"/>
</clipPath>
</defs>
</svg>
