<svg width="24" height="24" viewBox="0 0 24 24" fill="none" xmlns="http://www.w3.org/2000/svg">
<path d="M19.9331 5H4.06689C3.1321 5 2.375 5.78797 2.375 6.75V17.25C2.375 18.2178 3.13767 19 4.06689 19H19.9331C20.8601 19 21.625 18.2211 21.625 17.25V6.75C21.625 5.78968 20.8709 5 19.9331 5ZM19.6962 6.16667L13.1964 12.8543C12.8768 13.1848 12.4519 13.3668 12 13.3668C11.5481 13.3668 11.1232 13.1848 10.8026 12.8532L4.30383 6.16667H19.6962ZM3.50293 17.0125V6.98819L8.37701 12.0031L3.50293 17.0125ZM4.30455 17.8333L9.17672 12.8259L10.0061 13.6792C10.5387 14.2301 11.2468 14.5335 12 14.5335C12.7532 14.5335 13.4613 14.2301 13.9929 13.6803L14.8233 12.8259L19.6955 17.8333H4.30455ZM20.4971 17.0125L15.623 12.0031L20.4971 6.98819V17.0125Z" fill="currentColor"/>
</svg>
