<svg width="24" height="24" viewBox="0 0 24 24" fill="none" xmlns="http://www.w3.org/2000/svg">
<path d="M24 9.01687C24 8.07782 23.6343 7.19498 22.9703 6.53094L18.9928 2.55351C18.3288 1.88948 17.4459 1.5238 16.5069 1.5238C15.5678 1.5238 14.685 1.88948 14.021 2.55351L4.07728 12.4972C2.70652 13.868 2.70652 16.0983 4.07728 17.469L8.8785 22.2703C9.01035 22.4021 9.18918 22.4762 9.37566 22.4762H23.2969C23.6852 22.4762 24 22.1614 24 21.7731C24 21.3848 23.6852 21.07 23.2969 21.07H13.4032L22.9703 11.5028C23.6343 10.8388 24 9.95596 24 9.01687ZM11.4144 21.0699H9.66694L5.07164 16.4746C4.24922 15.6522 4.24922 14.314 5.07164 13.4915L9.54628 9.01687L16.5069 15.9775L11.4144 21.0699ZM21.9759 10.5084L17.5012 14.9831L10.5407 8.02251L15.0153 3.54787C15.8378 2.72544 17.176 2.72549 17.9985 3.54787L21.9759 7.52535C22.7984 8.34777 22.7984 9.68601 21.9759 10.5084ZM2.90625 20.3668C2.90625 19.9785 2.59144 19.6637 2.20312 19.6637H0.703125C0.314812 19.6637 0 19.9785 0 20.3668C0 20.7551 0.314812 21.0699 0.703125 21.0699H2.20312C2.59144 21.0699 2.90625 20.7552 2.90625 20.3668ZM0.505641 16.56C0.231047 16.8346 0.231047 17.2798 0.505641 17.5544L1.5 18.5487C1.6373 18.686 1.81725 18.7546 1.99716 18.7546C2.17706 18.7546 2.35706 18.686 2.49431 18.5487C2.76891 18.2741 2.76891 17.8289 2.49431 17.5543L1.5 16.56C1.22545 16.2854 0.780234 16.2854 0.505641 16.56Z" fill="black"/>
</svg>
