<svg width="24" height="24" viewBox="0 0 24 24" fill="none" xmlns="http://www.w3.org/2000/svg">
<g clip-path="url(#clip0_670_2900)">
<path d="M8.50207 24C8.37583 24 8.25192 23.966 8.14333 23.9016C8.03473 23.8373 7.94546 23.7449 7.88487 23.6341L5.22659 18.7735L0.365901 16.1152C0.255144 16.0546 0.162729 15.9653 0.0983501 15.8567C0.033971 15.7481 0 15.6242 0 15.498C0 15.3717 0.033971 15.2478 0.0983501 15.1392C0.162729 15.0306 0.255144 14.9414 0.365901 14.8808L5.22659 12.2225L7.88487 7.36322C7.94545 7.25246 8.03472 7.16005 8.14331 7.09567C8.25191 7.03129 8.37582 6.99732 8.50207 6.99732C8.62831 6.99732 8.75223 7.03129 8.86082 7.09567C8.96942 7.16005 9.05869 7.25246 9.11927 7.36322L11.7775 12.2234L16.6378 14.8817C16.7485 14.9423 16.8409 15.0316 16.9053 15.1402C16.9697 15.2488 17.0037 15.3727 17.0037 15.4989C17.0037 15.6252 16.9697 15.7491 16.9053 15.8577C16.8409 15.9663 16.7485 16.0555 16.6378 16.1161L11.7775 18.7735L9.11927 23.6341C9.05868 23.7449 8.9694 23.8373 8.86081 23.9016C8.75221 23.966 8.6283 24 8.50207 24ZM2.1706 15.498L6.08345 17.638C6.20218 17.703 6.29983 17.8007 6.36485 17.9194L8.50488 21.8323L10.6421 17.9157C10.7069 17.7967 10.8046 17.699 10.9235 17.6343L14.8359 15.4942L10.9235 13.3547C10.8046 13.2899 10.7069 13.1922 10.6421 13.0733L8.50207 9.16089L6.36203 13.0733C6.2971 13.1921 6.19943 13.2897 6.08063 13.3547L2.1706 15.498ZM17.6166 12.7675C17.4903 12.7675 17.3664 12.7335 17.2578 12.6692C17.1492 12.6048 17.06 12.5124 16.9994 12.4017L15.0896 8.91091L11.5984 7.00115C11.4876 6.94057 11.3952 6.8513 11.3308 6.74271C11.2665 6.63411 11.2325 6.5102 11.2325 6.38395C11.2325 6.25771 11.2665 6.13379 11.3308 6.0252C11.3952 5.9166 11.4876 5.82733 11.5984 5.76675L15.0896 3.857L16.9994 0.365779C17.0599 0.255022 17.1492 0.162607 17.2578 0.098228C17.3664 0.033849 17.4903 -0.00012207 17.6166 -0.00012207C17.7428 -0.00012207 17.8667 0.033849 17.9753 0.098228C18.0839 0.162607 18.1732 0.255022 18.2338 0.365779L20.143 3.857L23.6343 5.76863C23.745 5.82921 23.8374 5.91848 23.9018 6.02707C23.9662 6.13567 24.0002 6.25959 24.0002 6.38583C24.0002 6.51207 23.9662 6.63599 23.9018 6.74458C23.8374 6.85318 23.745 6.94245 23.6343 7.00303L20.143 8.91091L18.2338 12.4021C18.1731 12.5128 18.0838 12.6051 17.9752 12.6694C17.8666 12.7336 17.7427 12.7675 17.6166 12.7675ZM13.4022 6.38395L15.946 7.775C16.0649 7.83976 16.1626 7.93747 16.2274 8.0564L17.6166 10.5993L19.0076 8.05593C19.0721 7.93679 19.1699 7.83901 19.289 7.77453L21.8324 6.38348L19.289 4.99244C19.1701 4.92768 19.0724 4.82997 19.0076 4.71104L17.6166 2.16954L16.2274 4.71292C16.1626 4.83184 16.0649 4.92955 15.946 4.99431L13.4022 6.38395ZM20.4404 24C20.3142 24 20.1902 23.966 20.0817 23.9016C19.9731 23.8373 19.8838 23.7449 19.8232 23.6341L18.9124 21.9683L17.247 21.0579C17.1362 20.9974 17.0438 20.9081 16.9794 20.7995C16.9151 20.6909 16.8811 20.567 16.8811 20.4407C16.8811 20.3145 16.9151 20.1906 16.9794 20.082C17.0438 19.9734 17.1362 19.8841 17.247 19.8235L18.9129 18.9127L19.8237 17.2469C19.8843 17.1361 19.9735 17.0437 20.0821 16.9794C20.1907 16.915 20.3146 16.881 20.4409 16.8811C20.5671 16.881 20.691 16.915 20.7996 16.9794C20.9082 17.0437 20.9975 17.1361 21.0581 17.2469L21.9689 18.9123L23.6347 19.8231C23.7455 19.8837 23.8379 19.9729 23.9023 20.0815C23.9667 20.1901 24.0006 20.314 24.0006 20.4403C24.0006 20.5665 23.9667 20.6904 23.9023 20.799C23.8379 20.9076 23.7455 20.9969 23.6347 21.0575L21.9693 21.9687L21.0581 23.6341C20.9974 23.745 20.9081 23.8374 20.7994 23.9018C20.6907 23.9661 20.5667 24.0001 20.4404 24ZM19.0503 20.4403L19.7683 20.8328C19.8872 20.8976 19.985 20.9953 20.0497 21.1142L20.4423 21.8318L20.8348 21.1142C20.8996 20.9953 20.9973 20.8976 21.1162 20.8328L21.8338 20.4403L21.1162 20.0477C20.9973 19.983 20.8996 19.8852 20.8348 19.7663L20.4423 19.0483L20.0497 19.7663C19.985 19.8852 19.8872 19.983 19.7683 20.0477L19.0503 20.4403Z" fill="black"/>
</g>
<defs>
<clipPath id="clip0_670_2900">
<rect width="24" height="24" fill="white"/>
</clipPath>
</defs>
</svg>
