<svg width="24" height="24" viewBox="0 0 24 24" fill="none" xmlns="http://www.w3.org/2000/svg">
<path d="M5.12549 22C4.85049 22 4.57549 21.8667 4.50674 21.6L3.75049 19.7333C3.68174 19.5333 3.54424 19.4 3.33799 19.3333L1.41299 18.6C1.13799 18.5333 1.00049 18.2667 1.00049 18C1.00049 17.7333 1.13799 17.4667 1.41299 17.4L3.33799 16.6667C3.54424 16.6 3.68174 16.4667 3.75049 16.2667L4.50674 14.4C4.57549 14.1333 4.85049 14 5.12549 14C5.40049 14 5.67549 14.1333 5.74424 14.4L6.50049 16.2667C6.56924 16.4667 6.70674 16.6 6.91299 16.6667L8.83799 17.4C9.11299 17.5333 9.25049 17.7333 9.25049 18C9.25049 18.2667 9.11299 18.5333 8.83799 18.6L6.91299 19.3333C6.70674 19.4 6.56924 19.5333 6.50049 19.7333L5.74424 21.6C5.67549 21.8667 5.40049 22 5.12549 22ZM3.54424 18L3.88799 18.1333C4.43799 18.3333 4.85049 18.7333 5.05674 19.2667L5.12549 19.5333L5.26299 19.2C5.46924 18.6667 5.88174 18.2667 6.43174 18.0667L6.77549 17.9333L6.43174 17.8C5.88174 17.6 5.46924 17.2 5.26299 16.6667L5.12549 16.4667L4.98799 16.8C4.78174 17.3333 4.36924 17.7333 3.81924 17.9333L3.54424 18ZM17.5005 20.6667C17.2255 20.6667 16.9505 20.5333 16.8817 20.2667L15.9192 18C15.713 17.4667 15.3005 17.0667 14.7505 16.8667L12.413 15.9333C12.138 15.8667 12.0005 15.6 12.0005 15.3333C12.0005 15.0667 12.138 14.8 12.413 14.7333L14.7505 13.8C15.3005 13.6 15.713 13.2 15.9192 12.6667L16.8817 10.4C17.0192 10.1333 17.2255 10 17.5005 10C17.7755 10 18.0505 10.1333 18.1192 10.4L19.0817 12.6667C19.288 13.2 19.7005 13.6 20.2505 13.8L22.588 14.7333C22.863 14.8667 23.0005 15.0667 23.0005 15.3333C23.0005 15.6 22.863 15.8667 22.588 15.9333L20.2505 16.8667C19.7005 17.0667 19.288 17.4667 19.0817 18L18.1192 20.2667C18.0505 20.5333 17.7755 20.6667 17.5005 20.6667ZM14.5442 15.3333L15.3005 15.6C16.1942 15.9333 16.8817 16.6 17.2255 17.4667L17.5005 18.2L17.7755 17.4667C18.1192 16.6 18.8067 15.9333 19.7005 15.6L20.4567 15.3333L19.7005 15.0667C18.8067 14.7333 18.1192 14.0667 17.7755 13.2L17.5005 12.4667L17.2255 13.2C16.8817 14.0667 16.1942 14.7333 15.3005 15.0667L14.5442 15.3333ZM9.25049 12.6667C8.97549 12.6667 8.70049 12.5333 8.63174 12.2667L7.66924 10C7.46299 9.46667 7.05049 9.06667 6.50049 8.86667L4.16299 7.93333C3.88799 7.86667 3.75049 7.6 3.75049 7.33333C3.75049 7.06667 3.88799 6.8 4.16299 6.73333L6.50049 5.8C7.05049 5.6 7.46299 5.2 7.66924 4.66667L8.63174 2.4C8.70049 2.13333 8.97549 2 9.25049 2C9.52549 2 9.80049 2.13333 9.86924 2.4L10.8317 4.66667C11.038 5.2 11.4505 5.6 12.0005 5.8L14.338 6.73333C14.613 6.86667 14.7505 7.06667 14.7505 7.33333C14.7505 7.6 14.613 7.86667 14.338 7.93333L12.0005 8.86667C11.4505 9.06667 11.038 9.46667 10.8317 10L9.86924 12.2667C9.80049 12.5333 9.52549 12.6667 9.25049 12.6667ZM6.29424 7.33333L7.05049 7.6C7.94424 7.93333 8.63174 8.6 8.97549 9.46667L9.25049 10.2L9.52549 9.46667C9.86924 8.6 10.5567 7.93333 11.4505 7.6L12.2067 7.33333L11.4505 7.06667C10.6255 6.73333 9.86924 6 9.52549 5.2L9.25049 4.46667L8.97549 5.2C8.63174 6.06667 7.94424 6.73333 7.05049 7.06667L6.29424 7.33333Z" fill="black"/>
</svg>
