<svg width="32" height="32" viewBox="0 0 32 32" fill="none" xmlns="http://www.w3.org/2000/svg">
<style>
  .drop { animation: drop-bob 2.4s ease-in-out infinite; transform-origin: 16px 16px; }
  @keyframes drop-bob {
    0%, 100% { transform: translateY(0); }
    50% { transform: translateY(-1.5px); }
  }
</style>
<g class="drop">
<path fill-rule="evenodd" clip-rule="evenodd" d="M16.5884 4.44456C16.518 4.35189 16.4285 4.27705 16.3267 4.22561C16.2248 4.17417 16.1132 4.14746 16.0001 4.14746C15.887 4.14746 15.7754 4.17417 15.6736 4.22561C15.5717 4.27705 15.4822 4.35189 15.4118 4.44456C15.4118 4.44456 11.6671 9.34249 9.42023 13.7964C8.40127 15.8151 7.70361 17.758 7.70361 19.1605C7.70361 23.9573 11.4212 27.8518 16.0001 27.8518C20.579 27.8518 24.2966 23.9573 24.2966 19.1605C24.2966 17.758 23.599 15.8151 22.58 13.7964C20.3332 9.34249 16.5884 4.44456 16.5884 4.44456Z" fill="#ACE2FB"/>
<path fill-rule="evenodd" clip-rule="evenodd" d="M16.6935 2.99929C16.6105 2.89503 16.5051 2.81084 16.385 2.75296C16.265 2.69509 16.1335 2.66504 16.0002 2.66504C15.8669 2.66504 15.7354 2.69509 15.6153 2.75296C15.4953 2.81084 15.3898 2.89503 15.3068 2.99929C15.3068 2.99929 10.8934 8.50965 8.24533 13.5204C7.04441 15.7916 6.22217 17.9774 6.22217 19.5553C6.22217 24.9518 10.6036 29.3333 16.0002 29.3333C21.3968 29.3333 25.7782 24.9518 25.7782 19.5553C25.7782 17.9774 24.956 15.7916 23.755 13.5204C21.107 8.50965 16.6935 2.99929 16.6935 2.99929ZM16.0002 5.00112C17.3211 6.72561 20.2403 10.6759 22.1835 14.3507C23.2226 16.3178 24.0004 18.189 24.0004 19.5553C24.0004 23.9705 20.4154 27.5555 16.0002 27.5555C11.585 27.5555 7.99999 23.9705 7.99999 19.5553C7.99999 18.189 8.77779 16.3178 9.81692 14.3507C11.7601 10.6759 14.6793 6.72561 16.0002 5.00112Z" fill="#0BA1F9"/>
</g>
</svg>
