<svg width="24" height="24" viewBox="0 0 24 24" fill="none" xmlns="http://www.w3.org/2000/svg">
<style>
  .drop { animation: drop-bob 2.4s ease-in-out infinite; transform-origin: 12px 12px; }
  @keyframes drop-bob {
    0%, 100% { transform: translateY(0); }
    50% { transform: translateY(-1.5px); }
  }
</style>
<path class="drop" fill-rule="evenodd" clip-rule="evenodd" d="M12.8535 2.25069C12.7913 2.1725 12.7122 2.10935 12.6222 2.06594C12.5321 2.02254 12.4335 2 12.3335 2C12.2336 2 12.1349 2.02254 12.0449 2.06594C11.9548 2.10935 11.8758 2.1725 11.8135 2.25069C11.8135 2.25069 8.50342 6.38346 6.51737 10.1416C5.61668 11.8449 5 13.4843 5 14.6677C5 18.7151 8.28608 22.0012 12.3335 22.0012C16.3809 22.0012 19.667 18.7151 19.667 14.6677C19.667 13.4843 19.0504 11.8449 18.1497 10.1416C16.1636 6.38346 12.8535 2.25069 12.8535 2.25069ZM12.3335 3.75206C13.3242 5.04543 15.5136 8.00817 16.971 10.7642C17.7503 12.2396 18.3337 13.643 18.3337 14.6677C18.3337 17.9791 15.6449 20.6678 12.3335 20.6678C9.0221 20.6678 6.33337 17.9791 6.33337 14.6677C6.33337 13.643 6.91671 12.2396 7.69607 10.7642C9.15344 8.00817 11.3428 5.04543 12.3335 3.75206ZM15.0002 14.6677C15.0002 16.1397 13.8056 17.3344 12.3335 17.3344C12.1567 17.3344 11.9871 17.4046 11.8621 17.5297C11.7371 17.6547 11.6668 17.8243 11.6668 18.0011C11.6668 18.1779 11.7371 18.3475 11.8621 18.4725C11.9871 18.5975 12.1567 18.6678 12.3335 18.6678C14.5409 18.6678 16.3336 16.8751 16.3336 14.6677C16.3336 14.4909 16.2634 14.3213 16.1383 14.1962C16.0133 14.0712 15.8437 14.001 15.6669 14.001C15.4901 14.001 15.3205 14.0712 15.1955 14.1962C15.0705 14.3213 15.0002 14.4909 15.0002 14.6677Z" fill="#0BA1F9"/>
</svg>
