<svg width="24" height="24" viewBox="0 0 24 24" fill="none" xmlns="http://www.w3.org/2000/svg">
<g clip-path="url(#clip0_670_2887)">
<path d="M22.8402 6.25713L18.8398 2.31668C18.3974 1.88036 17.6772 1.88468 17.2322 2.32206L15.2123 4.30964L18.2133 7.26756C18.3244 7.37837 18.323 7.5526 18.2122 7.66367L17.808 8.0605C17.6972 8.17157 17.5161 8.17202 17.405 8.06121L14.4049 5.10674L12.7893 6.69749L14.1905 8.07542C14.3016 8.18622 14.3002 8.36046 14.1894 8.47153L13.7852 8.86836C13.6744 8.97943 13.4933 8.97987 13.3822 8.86907L11.9819 7.4946L10.3662 9.08535L13.3706 12.0423C13.4808 12.1497 13.4803 12.3274 13.3695 12.4385L12.9653 12.8353C12.8545 12.9464 12.6734 12.9468 12.5623 12.836L9.56134 9.87807L7.94566 11.4688L9.34693 12.8468C9.458 12.9576 9.4566 13.1318 9.34579 13.2429L8.94164 13.6397C8.83083 13.7508 8.6497 13.7512 8.53863 13.6404L7.13643 12.259L5.52074 13.8498L8.5217 16.8077C8.63185 16.9151 8.63137 17.0927 8.52056 17.2038L8.11641 17.6006C8.00561 17.7117 7.82447 17.7122 7.7134 17.6014L4.71521 14.6538L2.69537 16.6414C2.25122 17.0822 2.24494 17.7904 2.68737 18.2267L6.68865 22.1706C7.13109 22.607 7.85127 22.6026 8.29634 22.1653L22.8357 7.84158C23.2807 7.4042 23.2826 6.69345 22.8402 6.25713Z" fill="#7B7BF6"/>
</g>
<defs>
<clipPath id="clip0_670_2887">
<rect width="24" height="24" fill="white"/>
</clipPath>
</defs>
</svg>
