<svg width="24" height="24" viewBox="0 0 24 24" fill="none" xmlns="http://www.w3.org/2000/svg">
<path fill-rule="evenodd" clip-rule="evenodd" d="M6.5625 5.25C6.5625 4.91848 6.68761 4.60054 6.91031 4.36612C7.13301 4.1317 7.43506 4 7.75 4H20.8125C21.1274 4 21.4295 4.1317 21.6522 4.36612C21.8749 4.60054 22 4.91848 22 5.25C22 5.58152 21.8749 5.89946 21.6522 6.13388C21.4295 6.3683 21.1274 6.5 20.8125 6.5H7.75C7.43506 6.5 7.13301 6.3683 6.91031 6.13388C6.68761 5.89946 6.5625 5.58152 6.5625 5.25ZM6.5625 11.5C6.5625 11.1685 6.68761 10.8505 6.91031 10.6161C7.13301 10.3817 7.43506 10.25 7.75 10.25H20.8125C21.1274 10.25 21.4295 10.3817 21.6522 10.6161C21.8749 10.8505 22 11.1685 22 11.5C22 11.8315 21.8749 12.1495 21.6522 12.3839C21.4295 12.6183 21.1274 12.75 20.8125 12.75H7.75C7.43506 12.75 7.13301 12.6183 6.91031 12.3839C6.68761 12.1495 6.5625 11.8315 6.5625 11.5ZM6.5625 17.75C6.5625 17.4185 6.68761 17.1005 6.91031 16.8661C7.13301 16.6317 7.43506 16.5 7.75 16.5H20.8125C21.1274 16.5 21.4295 16.6317 21.6522 16.8661C21.8749 17.1005 22 17.4185 22 17.75C22 18.0815 21.8749 18.3995 21.6522 18.6339C21.4295 18.8683 21.1274 19 20.8125 19H7.75C7.43506 19 7.13301 18.8683 6.91031 18.6339C6.68761 18.3995 6.5625 18.0815 6.5625 17.75Z" fill="currentColor"/>
<path d="M5.375 5.25C5.375 5.58152 5.24989 5.89946 5.02719 6.13388C4.80449 6.3683 4.50244 6.5 4.1875 6.5C3.87256 6.5 3.57051 6.3683 3.34781 6.13388C3.12511 5.89946 3 5.58152 3 5.25C3 4.91848 3.12511 4.60054 3.34781 4.36612C3.57051 4.1317 3.87256 4 4.1875 4C4.50244 4 4.80449 4.1317 5.02719 4.36612C5.24989 4.60054 5.375 4.91848 5.375 5.25ZM5.375 11.5C5.375 11.8315 5.24989 12.1495 5.02719 12.3839C4.80449 12.6183 4.50244 12.75 4.1875 12.75C3.87256 12.75 3.57051 12.6183 3.34781 12.3839C3.12511 12.1495 3 11.8315 3 11.5C3 11.1685 3.12511 10.8505 3.34781 10.6161C3.57051 10.3817 3.87256 10.25 4.1875 10.25C4.50244 10.25 4.80449 10.3817 5.02719 10.6161C5.24989 10.8505 5.375 11.1685 5.375 11.5ZM5.375 17.75C5.375 18.0815 5.24989 18.3995 5.02719 18.6339C4.80449 18.8683 4.50244 19 4.1875 19C3.87256 19 3.57051 18.8683 3.34781 18.6339C3.12511 18.3995 3 18.0815 3 17.75C3 17.4185 3.12511 17.1005 3.34781 16.8661C3.57051 16.6317 3.87256 16.5 4.1875 16.5C4.50244 16.5 4.80449 16.6317 5.02719 16.8661C5.24989 17.1005 5.375 17.4185 5.375 17.75Z" fill="currentColor"/>
</svg>
