<svg width="24" height="24" viewBox="0 0 24 24" fill="none" xmlns="http://www.w3.org/2000/svg">
<path d="M12.0007 24L11.5056 23.3062C11.2007 22.88 4.0387 12.7937 3.91199 8.10459C3.85574 6.00558 4.64465 4.00636 6.13537 2.47448C7.66565 0.901406 9.80348 0 12.0007 0C14.1971 0 16.3349 0.901406 17.8653 2.47444C19.3559 4.00472 20.1449 6.00553 20.0886 8.10455C19.9619 12.7936 12.8007 22.8784 12.4958 23.3061L12.0007 24ZM12.0007 1.21664C10.1298 1.21664 8.31041 1.98497 7.00743 3.32358C5.74804 4.61625 5.08031 6.30338 5.12863 8.07291C5.22684 11.7212 10.3635 19.4978 12.0007 21.8868C13.6379 19.4979 18.7738 11.7196 18.872 8.07291C18.9203 6.30342 18.2526 4.61625 16.9932 3.32358C15.6902 1.98497 13.8708 1.21664 12.0007 1.21664Z" fill="black"/>
<path d="M12.0004 12C9.79421 12 8 10.2059 8 8.00072C8 5.79401 9.79421 4 12.0004 4C14.2058 4 16 5.79406 16 8.00072C16 10.2059 14.2058 12 12.0004 12ZM12.0004 5.13585C10.4207 5.13585 9.13599 6.42111 9.13599 8.00072C9.13599 9.58034 10.4206 10.8641 12.0004 10.8641C13.5794 10.8641 14.864 9.58034 14.864 8.00072C14.864 6.42111 13.5794 5.13585 12.0004 5.13585Z" fill="black"/>
</svg>
