<svg width="24" height="24" viewBox="0 0 24 24" fill="none" xmlns="http://www.w3.org/2000/svg">
<path d="M11.5 5.88889C10.837 5.88889 10.2011 5.63135 9.73223 5.17293C9.26339 4.71451 9 4.09275 9 3.44444C9 2.79614 9.26339 2.17438 9.73223 1.71596C10.2011 1.25754 10.837 1 11.5 1C12.163 1 12.7989 1.25754 13.2678 1.71596C13.7366 2.17438 14 2.79614 14 3.44444C14 4.09275 13.7366 4.71451 13.2678 5.17293C12.7989 5.63135 12.163 5.88889 11.5 5.88889ZM11.5 14.4444C10.837 14.4444 10.2011 14.1869 9.73223 13.7285C9.26339 13.2701 9 12.6483 9 12C9 11.3517 9.26339 10.7299 9.73223 10.2715C10.2011 9.81309 10.837 9.55556 11.5 9.55556C12.163 9.55556 12.7989 9.81309 13.2678 10.2715C13.7366 10.7299 14 11.3517 14 12C14 12.6483 13.7366 13.2701 13.2678 13.7285C12.7989 14.1869 12.163 14.4444 11.5 14.4444ZM11.5 23C10.837 23 10.2011 22.7425 9.73223 22.284C9.26339 21.8256 9 21.2039 9 20.5556C9 19.9072 9.26339 19.2855 9.73223 18.8271C10.2011 18.3687 10.837 18.1111 11.5 18.1111C12.163 18.1111 12.7989 18.3687 13.2678 18.8271C13.7366 19.2855 14 19.9072 14 20.5556C14 21.2039 13.7366 21.8256 13.2678 22.284C12.7989 22.7425 12.163 23 11.5 23Z" fill="black"/>
</svg>
