<svg width="24" height="24" viewBox="0 0 24 24" fill="none" xmlns="http://www.w3.org/2000/svg">
<path d="M17 9.5H15V7.25C15 5.5955 13.6545 4.25 12 4.25C10.3455 4.25 9 5.5955 9 7.25V9.5H7V7.25C7 4.493 9.243 2.25 12 2.25C14.757 2.25 17 4.493 17 7.25V9.5Z" fill="currentColor"/>
<path d="M18 21H6C4.897 21 4 20.103 4 19V10.5C4 9.397 4.897 8.5 6 8.5H18C19.103 8.5 20 9.397 20 10.5V19C20 20.103 19.103 21 18 21ZM6 10.5V19H18.001L18 10.5H6Z" fill="currentColor"/>
<path d="M12 15C12.8284 15 13.5 14.3284 13.5 13.5C13.5 12.6716 12.8284 12 12 12C11.1716 12 10.5 12.6716 10.5 13.5C10.5 14.3284 11.1716 15 12 15Z" fill="currentColor"/>
<path d="M12 18C11.7348 18 11.4804 17.8946 11.2929 17.7071C11.1054 17.5196 11 17.2652 11 17V14.5C11 14.2348 11.1054 13.9804 11.2929 13.7929C11.4804 13.6054 11.7348 13.5 12 13.5C12.2652 13.5 12.5196 13.6054 12.7071 13.7929C12.8946 13.9804 13 14.2348 13 14.5V17C13 17.2652 12.8946 17.5196 12.7071 17.7071C12.5196 17.8946 12.2652 18 12 18Z" fill="currentColor"/>
</svg>
