<svg width="32" height="32" viewBox="0 0 32 32" fill="none" xmlns="http://www.w3.org/2000/svg">
<path d="M16.052 2.6665C8.76584 2.6665 2.66663 8.55322 2.66663 15.9478C2.66663 23.3014 8.73168 29.3332 16.052 29.3332C23.4546 29.3332 29.3333 23.226 29.3333 15.9478C29.3333 8.60718 23.3932 2.6665 16.052 2.6665ZM16.052 27.7811C9.53288 27.7811 4.21871 22.4669 4.21871 15.9478C4.21871 9.48603 9.53288 4.21859 16.052 4.21859C22.5138 4.21859 27.7812 9.48603 27.7812 15.9478C27.7812 22.4669 22.5138 27.7811 16.052 27.7811Z" fill="#7B7BF6"/>
<path d="M16.052 5.7915C10.438 5.7915 5.79163 10.3483 5.79163 15.9478C5.79163 18.6875 6.87584 21.343 8.76631 23.2335C9.07116 23.5384 9.5661 23.5385 9.87116 23.2335L10.9787 22.1259C11.2838 21.8208 11.2838 21.3262 10.9787 21.0211C10.6737 20.716 10.179 20.716 9.87387 21.0211L9.34517 21.5498C8.23376 20.204 7.54558 18.5084 7.38866 16.729H8.13538C8.56683 16.729 8.91663 16.3792 8.91663 15.9478C8.91663 15.5163 8.56683 15.1665 8.13538 15.1665H7.39043C7.5534 13.3886 8.26626 11.7653 9.3598 10.4646L9.87387 10.9786C10.1789 11.2837 10.6736 11.2837 10.9787 10.9786C11.2838 10.6735 11.2838 10.1789 10.9787 9.8738L10.4688 9.36385C11.7931 8.26572 13.4522 7.54984 15.2708 7.38911V8.13525C15.2708 8.56671 15.6206 8.9165 16.052 8.9165C16.4835 8.9165 16.8333 8.56671 16.8333 8.13525V7.38989C18.5634 7.54656 20.147 8.21801 21.4295 9.24973L14.6951 14.0366C14.012 14.5222 13.6041 15.2366 13.6041 15.9478C13.6041 16.0011 13.6061 16.0542 13.61 16.1068C13.6987 17.3065 14.7809 18.2915 16.052 18.2915C16.8094 18.2915 17.5238 17.9227 17.9632 17.3046L22.75 10.5702C23.7817 11.8527 24.4532 13.4363 24.6099 15.1665H23.8645C23.4331 15.1665 23.0833 15.5163 23.0833 15.9478C23.0833 16.3792 23.4331 16.729 23.8645 16.729H24.6111C24.4538 18.5058 23.7646 20.2004 22.6519 21.5469L22.1261 21.021C21.8209 20.7159 21.3263 20.7159 21.0212 21.021C20.7161 21.3261 20.7161 21.8208 21.0212 22.1259L22.1257 23.2305C22.4306 23.5353 22.9255 23.5356 23.2306 23.2305C25.123 21.3381 26.2083 18.6836 26.2083 15.9478C26.2083 10.3486 21.6567 5.7915 16.052 5.7915ZM16.6896 16.3994C16.6173 16.5011 16.5217 16.5841 16.4108 16.6415C16.2999 16.6988 16.1769 16.7288 16.052 16.729C15.5969 16.729 15.1666 16.3493 15.1666 15.9478C15.1666 15.7508 15.3409 15.4945 15.6004 15.3101L19.3668 12.6329L16.6896 16.3994Z" fill="#7B7BF6"/>
<path d="M17.6145 21.5205H14.3854C13.093 21.5205 12.0416 22.5719 12.0416 23.8643C12.0416 25.1566 13.093 26.208 14.3854 26.208H17.6145C18.9069 26.208 19.9583 25.1566 19.9583 23.8643C19.9583 22.5719 18.9069 21.5205 17.6145 21.5205ZM17.6145 24.6455H14.3854C13.9546 24.6455 13.6041 24.295 13.6041 23.8643C13.6041 23.4335 13.9546 23.083 14.3854 23.083H17.6145C18.0453 23.083 18.3958 23.4335 18.3958 23.8643C18.3958 24.295 18.0453 24.6455 17.6145 24.6455Z" fill="#7B7BF6"/>
</svg>
