<svg width="24" height="24" viewBox="0 0 24 24" fill="none" xmlns="http://www.w3.org/2000/svg">
<path d="M12.0391 2C6.57441 2 2 6.41504 2 11.9609C2 17.4762 6.54879 22 12.0391 22C17.591 22 22 17.4196 22 11.9609C22 6.45551 17.545 2 12.0391 2ZM12.0391 20.8359C7.14969 20.8359 3.16406 16.8503 3.16406 11.9609C3.16406 7.11465 7.14969 3.16406 12.0391 3.16406C16.8854 3.16406 20.8359 7.11465 20.8359 11.9609C20.8359 16.8503 16.8854 20.8359 12.0391 20.8359Z" fill="#7B7BF6"/>
<path d="M12.0391 4.34375C7.82852 4.34375 4.34375 7.76137 4.34375 11.9609C4.34375 14.0157 5.15691 16.0074 6.57477 17.4252C6.8034 17.6539 7.17461 17.654 7.4034 17.4252L8.23406 16.5946C8.46285 16.3657 8.46285 15.9948 8.23406 15.7659C8.00527 15.5371 7.63426 15.5371 7.40543 15.7659L7.00891 16.1625C6.17535 15.1531 5.65922 13.8814 5.54152 12.5469H6.10156C6.42516 12.5469 6.6875 12.2845 6.6875 11.9609C6.6875 11.6373 6.42516 11.375 6.10156 11.375H5.54285C5.66508 10.0416 6.19973 8.82406 7.01988 7.84855L7.40543 8.2341C7.63422 8.46289 8.00523 8.46293 8.23406 8.2341C8.46289 8.00527 8.46289 7.6343 8.23406 7.40547L7.8516 7.02301C8.84488 6.19941 10.0892 5.6625 11.4531 5.54195V6.10156C11.4531 6.42516 11.7155 6.6875 12.0391 6.6875C12.3627 6.6875 12.625 6.42516 12.625 6.10156V5.54254C13.9226 5.66004 15.1103 6.16363 16.0722 6.93742L11.0214 10.5275C10.509 10.8918 10.2031 11.4276 10.2031 11.9609C10.2031 12.001 10.2046 12.0407 10.2075 12.0802C10.274 12.98 11.0857 13.7188 12.0391 13.7188C12.6071 13.7188 13.1429 13.4421 13.4724 12.9786L17.0625 7.92777C17.8363 8.88965 18.34 10.0774 18.4575 11.375H17.8984C17.5748 11.375 17.3125 11.6373 17.3125 11.9609C17.3125 12.2845 17.5748 12.5469 17.8984 12.5469H18.4584C18.3404 13.8795 17.8235 15.1504 16.9889 16.1603L16.5946 15.7659C16.3657 15.5371 15.9948 15.5371 15.7659 15.7659C15.5371 15.9947 15.5371 16.3657 15.7659 16.5945L16.5943 17.423C16.823 17.6516 17.1942 17.6518 17.423 17.423C18.8423 16.0037 19.6562 14.0129 19.6562 11.9609C19.6562 7.7616 16.2426 4.34375 12.0391 4.34375ZM12.5173 12.2996C12.463 12.376 12.3913 12.4382 12.3081 12.4812C12.2249 12.5242 12.1327 12.5467 12.0391 12.5469C11.6977 12.5469 11.375 12.2621 11.375 11.9609C11.375 11.8132 11.5057 11.621 11.7003 11.4827L14.5252 9.4748L12.5173 12.2996Z" fill="#7B7BF6"/>
<path d="M13.2109 16.1406H10.7891C9.8198 16.1406 9.03125 16.9292 9.03125 17.8984C9.03125 18.8677 9.8198 19.6562 10.7891 19.6562H13.2109C14.1802 19.6562 14.9688 18.8677 14.9688 17.8984C14.9688 16.9292 14.1802 16.1406 13.2109 16.1406ZM13.2109 18.4844H10.7891C10.466 18.4844 10.2031 18.2215 10.2031 17.8984C10.2031 17.5754 10.466 17.3125 10.7891 17.3125H13.2109C13.534 17.3125 13.7969 17.5754 13.7969 17.8984C13.7969 18.2215 13.534 18.4844 13.2109 18.4844Z" fill="#7B7BF6"/>
</svg>
