<svg width="24" height="24" viewBox="0 0 24 24" fill="none" xmlns="http://www.w3.org/2000/svg">
<path d="M21.2031 8.29213C20.7553 7.30048 20.131 6.39843 19.3607 5.62989C17.6594 3.92857 15.3972 2.99133 12.9908 2.99133C8.36097 2.99133 4.53708 6.50219 4.03825 11.0011L3.39423 10.3571C3.31841 10.2812 3.2284 10.2211 3.12931 10.18C3.03023 10.1389 2.92403 10.1178 2.81678 10.1178C2.70952 10.1178 2.60332 10.1389 2.50424 10.18C2.40516 10.2211 2.31514 10.2812 2.23932 10.3571C2.16345 10.4329 2.10326 10.523 2.0622 10.6221C2.02114 10.7212 2 10.8274 2 10.9347C2 11.0419 2.02114 11.1482 2.0622 11.2473C2.10326 11.3464 2.16345 11.4364 2.23932 11.5122L4.30982 13.5829C4.46299 13.736 4.67067 13.822 4.88723 13.8221C5.10379 13.8221 5.3115 13.7362 5.46472 13.5831L7.53542 11.5124C7.61267 11.4369 7.67416 11.3468 7.71635 11.2474C7.75853 11.1479 7.78057 11.0411 7.78119 10.933C7.7818 10.825 7.76098 10.7179 7.71993 10.618C7.67887 10.5181 7.61841 10.4273 7.54203 10.3509C7.46564 10.2745 7.37487 10.214 7.27495 10.173C7.17504 10.1319 7.06796 10.1111 6.95994 10.1117C6.85191 10.1123 6.74508 10.1343 6.64562 10.1764C6.54616 10.2186 6.45605 10.2801 6.38052 10.3573L5.67749 11.0603C6.141 7.43616 9.24287 4.62506 12.991 4.62506C14.9608 4.62506 16.8128 5.39221 18.2058 6.7852C18.8366 7.41454 19.3479 8.15316 19.7148 8.96514C20.1463 9.91867 20.3682 10.9536 20.3658 12.0002C20.3658 16.0669 17.0575 19.3754 12.991 19.3754C11.0214 19.3754 9.16977 18.6087 7.77698 17.2163C7.62378 17.0631 7.41601 16.9771 7.19939 16.9772C6.98276 16.9772 6.77502 17.0633 6.62187 17.2165C6.46872 17.3697 6.38271 17.5775 6.38275 17.7941C6.38278 18.0107 6.46887 18.2185 6.62208 18.3716C8.3236 20.0723 10.5854 21.0089 12.991 21.0089C17.9581 21.0089 21.9993 16.9676 21.9993 12.0002C21.9993 10.7085 21.7314 9.46112 21.2031 8.29213Z" fill="black"/>
<path d="M15.0626 16.1862C14.9554 16.1863 14.8492 16.1652 14.7501 16.1242C14.651 16.0832 14.561 16.023 14.4852 15.9471L12.3902 13.8521C12.237 13.6989 12.1509 13.4911 12.1509 13.2744V7.91625C12.1509 7.69963 12.2369 7.49188 12.3901 7.33871C12.5433 7.18554 12.751 7.09949 12.9676 7.09949C13.1843 7.09949 13.392 7.18554 13.5452 7.33871C13.6984 7.49188 13.7844 7.69963 13.7844 7.91625V12.9361L15.6401 14.7918C15.7545 14.9059 15.8324 15.0515 15.864 15.21C15.8956 15.3685 15.8794 15.5327 15.8176 15.682C15.7558 15.8314 15.651 15.959 15.5166 16.0487C15.3822 16.1384 15.2242 16.1863 15.0626 16.1862Z" fill="black"/>
</svg>
