<svg width="24" height="24" viewBox="0 0 24 24" fill="none" xmlns="http://www.w3.org/2000/svg">
<path d="M15.6371 10.2145L13.5961 13.4586C13.5126 13.5743 13.411 13.6759 13.2953 13.7594C13.0159 13.9543 12.6709 14.0312 12.3352 13.9733C11.9995 13.9154 11.7002 13.7275 11.5022 13.4503C11.3042 13.1731 11.2235 12.829 11.2777 12.4927C11.3318 12.1564 11.5164 11.855 11.7914 11.6539L15.0355 9.6129C15.1093 9.5615 15.197 9.53394 15.2869 9.53394C15.3768 9.53394 15.4645 9.5615 15.5383 9.6129C15.6309 9.67977 15.6933 9.78057 15.7118 9.89329C15.7303 10.006 15.7034 10.1215 15.6371 10.2145Z" fill="black"/>
<path d="M12.6251 3C7.3098 3 3.00001 7.30549 3.00001 12.6208C2.99675 14.9724 3.85769 17.2432 5.41916 19.0016C5.46643 19.0532 5.5094 19.1048 5.55666 19.152C5.65835 19.2621 5.78178 19.3499 5.91915 19.4098C6.05651 19.4697 6.20482 19.5004 6.35468 19.5C6.50454 19.4996 6.65268 19.4681 6.78972 19.4074C6.92677 19.3468 7.04972 19.2584 7.15081 19.1477C7.84756 18.3906 8.6938 17.7862 9.63606 17.3727C10.5783 16.9593 11.5961 16.7458 12.6251 16.7458C13.654 16.7458 14.6718 16.9593 15.6141 17.3727C16.5563 17.7862 17.4026 18.3906 18.0993 19.1477C18.2004 19.2584 18.3234 19.3468 18.4604 19.4074C18.5974 19.4681 18.7456 19.4996 18.8954 19.5C19.0453 19.5004 19.1936 19.4697 19.331 19.4098C19.4683 19.3499 19.5918 19.2621 19.6935 19.152L19.831 19.0016C21.3924 17.2432 22.2534 14.9724 22.2501 12.6208C22.2501 7.30549 17.9403 3 12.6251 3Z" stroke="black" stroke-width="1.8" stroke-linecap="round" stroke-linejoin="round"/>
<path d="M12.625 5.75V7.12501M19.5001 12.625H18.1251M7.12501 12.625H5.75M8.73591 8.73591L7.76353 7.76353M16.5142 8.73591L17.4865 7.76353" stroke="black" stroke-width="1.8" stroke-miterlimit="10" stroke-linecap="round"/>
</svg>
