<svg width="24" height="24" viewBox="0 0 24 24" fill="none" xmlns="http://www.w3.org/2000/svg">
<path fill-rule="evenodd" clip-rule="evenodd" d="M5.64226 5.64226C5.72679 5.55774 5.84272 5.50943 5.96226 5.50943H7.16981C7.36997 5.50943 7.56194 5.42992 7.70348 5.28838C7.84501 5.14685 7.92453 4.95488 7.92453 4.75472C7.92453 4.55455 7.84501 4.36259 7.70348 4.22105C7.56194 4.07951 7.36997 4 7.16981 4H5.96226C5.44184 4 4.94273 4.20674 4.57473 4.57473C4.20674 4.94273 4 5.44184 4 5.96226V7.16981C4 7.36997 4.07951 7.56194 4.22105 7.70348C4.36259 7.84501 4.55455 7.92453 4.75472 7.92453C4.95488 7.92453 5.14685 7.84501 5.28838 7.70348C5.42992 7.56194 5.50943 7.36997 5.50943 7.16981V5.96226C5.50943 5.84151 5.55774 5.72679 5.64226 5.64226ZM16.8302 4C16.63 4 16.4381 4.07951 16.2965 4.22105C16.155 4.36259 16.0755 4.55455 16.0755 4.75472C16.0755 4.95488 16.155 5.14685 16.2965 5.28838C16.4381 5.42992 16.63 5.50943 16.8302 5.50943H18.0377C18.1578 5.50943 18.273 5.55714 18.3579 5.64206C18.4429 5.72699 18.4906 5.84217 18.4906 5.96226V7.16981C18.4906 7.36997 18.5701 7.56194 18.7116 7.70348C18.8532 7.84501 19.0451 7.92453 19.2453 7.92453C19.4454 7.92453 19.6374 7.84501 19.7789 7.70348C19.9205 7.56194 20 7.36997 20 7.16981V5.96226C20 5.44184 19.7933 4.94273 19.4253 4.57473C19.0573 4.20674 18.5582 4 18.0377 4H16.8302ZM9.43396 4.75472C9.43396 4.33811 9.77208 4 10.1887 4H13.8113C14.0115 4 14.2035 4.07951 14.345 4.22105C14.4865 4.36259 14.566 4.55455 14.566 4.75472C14.566 4.95488 14.4865 5.14685 14.345 5.28838C14.2035 5.42992 14.0115 5.50943 13.8113 5.50943H10.1887C9.98852 5.50943 9.79655 5.42992 9.65501 5.28838C9.51348 5.14685 9.43396 4.95488 9.43396 4.75472ZM20 10.1887C20 9.98852 19.9205 9.79655 19.7789 9.65501C19.6374 9.51348 19.4454 9.43396 19.2453 9.43396C19.0451 9.43396 18.8532 9.51348 18.7116 9.65501C18.5701 9.79655 18.4906 9.98852 18.4906 10.1887V13.8113C18.4906 14.0115 18.5701 14.2035 18.7116 14.345C18.8532 14.4865 19.0451 14.566 19.2453 14.566C19.4454 14.566 19.6374 14.4865 19.7789 14.345C19.9205 14.2035 20 14.0115 20 13.8113V10.1887ZM4.75472 9.43396C5.17132 9.43396 5.50943 9.77208 5.50943 10.1887V13.8113C5.50943 14.0115 5.42992 14.2035 5.28838 14.345C5.14685 14.4865 4.95488 14.566 4.75472 14.566C4.55455 14.566 4.36259 14.4865 4.22105 14.345C4.07951 14.2035 4 14.0115 4 13.8113V10.1887C4 9.77208 4.33811 9.43396 4.75472 9.43396ZM20 16.8302C20 16.63 19.9205 16.4381 19.7789 16.2965C19.6374 16.155 19.4454 16.0755 19.2453 16.0755C19.0451 16.0755 18.8532 16.155 18.7116 16.2965C18.5701 16.4381 18.4906 16.63 18.4906 16.8302V18.0377C18.4906 18.1578 18.4429 18.273 18.3579 18.3579C18.273 18.4429 18.1578 18.4906 18.0377 18.4906H16.8302C16.63 18.4906 16.4381 18.5701 16.2965 18.7116C16.155 18.8532 16.0755 19.0451 16.0755 19.2453C16.0755 19.4454 16.155 19.6374 16.2965 19.7789C16.4381 19.9205 16.63 20 16.8302 20H18.0377C18.5582 20 19.0573 19.7933 19.4253 19.4253C19.7933 19.0573 20 18.5582 20 18.0377V16.8302ZM4.75472 16.0755C5.17132 16.0755 5.50943 16.4136 5.50943 16.8302V18.0377C5.50943 18.1578 5.55714 18.273 5.64206 18.3579C5.72699 18.4429 5.84217 18.4906 5.96226 18.4906H7.16981C7.36997 18.4906 7.56194 18.5701 7.70348 18.7116C7.84501 18.8532 7.92453 19.0451 7.92453 19.2453C7.92453 19.4454 7.84501 19.6374 7.70348 19.7789C7.56194 19.9205 7.36997 20 7.16981 20H5.96226C5.44184 20 4.94273 19.7933 4.57473 19.4253C4.20674 19.0573 4 18.5582 4 18.0377V16.8302C4 16.4136 4.33811 16.0755 4.75472 16.0755ZM10.1887 18.4906C9.98852 18.4906 9.79655 18.5701 9.65501 18.7116C9.51348 18.8532 9.43396 19.0451 9.43396 19.2453C9.43396 19.4454 9.51348 19.6374 9.65501 19.7789C9.79655 19.9205 9.98852 20 10.1887 20H13.8113C14.0115 20 14.2035 19.9205 14.345 19.7789C14.4865 19.6374 14.566 19.4454 14.566 19.2453C14.566 19.0451 14.4865 18.8532 14.345 18.7116C14.2035 18.5701 14.0115 18.4906 13.8113 18.4906H10.1887ZM9.58491 7.77358C9.10451 7.77358 8.6438 7.96442 8.30411 8.30411C7.96442 8.6438 7.77358 9.10451 7.77358 9.58491V14.4151C7.77358 14.8955 7.96442 15.3562 8.30411 15.6959C8.6438 16.0356 9.10451 16.2264 9.58491 16.2264H14.4151C14.8955 16.2264 15.3562 16.0356 15.6959 15.6959C16.0356 15.3562 16.2264 14.8955 16.2264 14.4151V9.58491C16.2264 9.10451 16.0356 8.6438 15.6959 8.30411C15.3562 7.96442 14.8955 7.77358 14.4151 7.77358H9.58491Z" fill="black"/>
</svg>
