<svg width="24" height="24" viewBox="0 0 24 24" fill="none" xmlns="http://www.w3.org/2000/svg">
<path d="M22.9409 9.42458C22.7714 8.90293 22.265 8.5443 21.5517 8.44066L15.8948 7.61861L13.365 2.49266C13.046 1.84622 12.5484 1.47552 12 1.47552C11.4515 1.47552 10.954 1.84627 10.635 2.49266L8.10526 7.61857L2.44833 8.44066C1.73495 8.5443 1.22864 8.90288 1.05912 9.42453C0.889652 9.94618 1.08847 10.5339 1.60462 11.037L5.69798 15.027L4.73164 20.6612C4.60458 21.4023 4.82041 21.8455 5.02383 22.0867C5.2618 22.369 5.60895 22.5244 6.00134 22.5244C6.29805 22.5244 6.61396 22.4374 6.94023 22.2658L12 19.6057L17.0597 22.2657C17.3861 22.4374 17.702 22.5244 17.9988 22.5244C18.3912 22.5244 18.7384 22.3689 18.9764 22.0867C19.1798 21.8454 19.3956 21.4022 19.2685 20.6611L18.302 15.027L22.3954 11.037C22.9115 10.5339 23.1104 9.94623 22.9409 9.42458ZM21.4956 10.1139L17.1595 14.3405C17.0847 14.4134 17.0287 14.5034 16.9964 14.6028C16.9641 14.7022 16.9565 14.808 16.9742 14.911L17.9979 20.879C18.0309 21.0712 18.0142 21.1864 17.9986 21.2352C17.9597 21.2352 17.8491 21.2243 17.6597 21.1247L12.3 18.307C12.2075 18.2584 12.1046 18.2329 12.0001 18.2329C11.8955 18.2329 11.7926 18.2584 11.7001 18.307L6.34037 21.1248C6.15113 21.2243 6.04057 21.2352 6.00164 21.2352C5.98605 21.1864 5.96933 21.0712 6.00229 20.879L7.02591 14.9109C7.04356 14.8079 7.03592 14.7022 7.00362 14.6028C6.97133 14.5034 6.91536 14.4134 6.84054 14.3404L2.50449 10.1138C2.36466 9.97755 2.31048 9.87442 2.2945 9.82587C2.33596 9.796 2.44042 9.7444 2.63374 9.7163L8.62609 8.84548C8.72951 8.83045 8.82772 8.7905 8.91226 8.72907C8.9968 8.66764 9.06514 8.58658 9.11139 8.49287L11.7911 3.06303C11.8775 2.88797 11.9588 2.80457 12.0001 2.77432C12.0413 2.80457 12.1227 2.88797 12.2091 3.06307L14.8889 8.49287C14.9351 8.58658 15.0035 8.66763 15.088 8.72906C15.1726 8.79049 15.2708 8.83044 15.3742 8.84548L21.3664 9.7163C21.5597 9.74435 21.6642 9.79596 21.7057 9.82587C21.6896 9.87447 21.6354 9.97764 21.4956 10.1139Z" fill="black"/>
</svg>
