<svg width="24" height="24" viewBox="0 0 24 24" fill="none" xmlns="http://www.w3.org/2000/svg">
<path d="M12 2.76923C9.28554 2.76923 7.07693 4.97784 7.07693 7.6923C7.07693 10.4068 9.28554 12.6154 12 12.6154C14.7145 12.6154 16.9231 10.4068 16.9231 7.6923C16.9231 4.97784 14.7145 2.76923 12 2.76923ZM12 11.3846C9.96369 11.3846 8.30769 9.72861 8.30769 7.6923C8.30769 5.65599 9.96369 3.99999 12 3.99999C14.0363 3.99999 15.6923 5.65599 15.6923 7.6923C15.6923 9.72861 14.0363 11.3846 12 11.3846ZM15.1323 13.2492C15.0535 13.2151 14.9683 13.198 14.8824 13.1991C14.7965 13.2002 14.7118 13.2193 14.6338 13.2554C13.8094 13.6413 12.9103 13.8413 12 13.8413C11.0897 13.8413 10.1906 13.6413 9.36616 13.2554C9.28818 13.2193 9.20348 13.2002 9.11758 13.1991C9.03169 13.198 8.94654 13.2151 8.86769 13.2492C7.42262 13.8633 6.19037 14.8894 5.32472 16.1994C4.45907 17.5093 3.99833 19.0452 4 20.6154C4 20.9538 4.27693 21.2308 4.61539 21.2308H19.3846C19.7231 21.2308 20 20.9538 20 20.6154C20 17.4031 18.0923 14.5108 15.1323 13.2492ZM5.25539 20C5.47693 17.6184 6.92923 15.52 9.10769 14.4923C10.9477 15.2677 13.0523 15.2677 14.8923 14.4923C17.0708 15.52 18.5231 17.6184 18.7446 20H5.25539Z" fill="currentColor"/>
</svg>
