<svg width="32" height="32" viewBox="0 0 32 32" fill="none" xmlns="http://www.w3.org/2000/svg">
<style>
  .pupil { animation: eye-blink 3.2s ease-in-out infinite; transform-origin: 16px 16px; }
  @keyframes eye-blink {
    0%, 88%, 100% { transform: scaleY(1); }
    92% { transform: scaleY(0.15); }
    96% { transform: scaleY(1); }
  }
</style>
<path d="M31.7833 16.6596C32.0838 16.2482 32.0707 15.6865 31.7506 15.288C26.9108 9.33786 21.6856 6.32031 16.2123 6.32031C6.93103 6.32031 0.484462 14.968 0.216671 15.3338C-0.083777 15.7452 -0.070714 16.3069 0.249328 16.7054C5.08262 22.6621 10.3078 25.6796 15.7812 25.6796C25.0624 25.6796 31.509 17.0319 31.7833 16.6596ZM15.7812 23.4393C11.2222 23.4393 6.78081 20.9312 2.56147 15.9934C4.21394 14.0405 9.46524 8.56061 16.2123 8.56061C20.7712 8.56061 25.2126 11.0687 29.432 16.0065C27.7795 17.9594 22.5282 23.4393 15.7812 23.4393Z" fill="#777777"/>
<g class="pupil">
<path d="M15.9965 10.3115C12.8614 10.3115 10.3076 12.8653 10.3076 16.0004C10.3076 19.1356 12.8614 21.6894 15.9965 21.6894C19.1316 21.6894 21.6855 19.1356 21.6855 16.0004C21.6855 12.8653 19.1316 10.3115 15.9965 10.3115ZM15.9965 19.4491C14.0959 19.4491 12.5479 17.9011 12.5479 16.0004C12.5479 14.0998 14.0959 12.5518 15.9965 12.5518C17.8972 12.5518 19.4452 14.0998 19.4452 16.0004C19.4452 17.9011 17.8972 19.4491 15.9965 19.4491Z" fill="#777777"/>
</g>
</svg>
