<svg width="24" height="24" viewBox="0 0 24 24" fill="none" xmlns="http://www.w3.org/2000/svg">
<path d="M9.49992 10V4H14.4999V10L19.2429 15.174C19.6206 15.586 19.8702 16.0991 19.9613 16.6505C20.0524 17.202 19.9811 17.7681 19.756 18.2797C19.531 18.7913 19.1619 19.2264 18.6938 19.5319C18.2257 19.8373 17.6789 20 17.1199 20H6.87992C6.32098 20 5.77412 19.8373 5.30604 19.5319C4.83795 19.2264 4.46887 18.7913 4.24381 18.2797C4.01874 17.7681 3.94741 17.202 4.03852 16.6505C4.12963 16.0991 4.37925 15.586 4.75692 15.174L9.49992 10Z" stroke="black" stroke-width="2" stroke-linejoin="round"/>
<path d="M8.5 4H15.5" stroke="black" stroke-width="2" stroke-linecap="round"/>
<path d="M6 14C9.5 16 10 14 12 14C14 14 14.5 16 18 14" stroke="black" stroke-width="2"/>
</svg>
