<svg width="850" height="160" viewBox="0 0 850 160" fill="none" xmlns="http://www.w3.org/2000/svg">
<g clip-path="url(#clip0_945_2937)">
<path d="M5 0C-1.66667 5.33333 -1.66667 10.6667 5 16C-1.66667 21.3333 -1.66667 26.6667 5 32C-1.66667 37.3333 -1.66667 42.6667 5 48C-1.66667 53.3333 -1.66667 58.6667 5 64C-1.66667 69.3333 -1.66667 74.6667 5 80C-1.66667 85.3333 -1.66667 90.6667 5 96C-1.66667 101.333 -1.66667 106.667 5 112C-1.66667 117.333 -1.66667 122.667 5 128C-1.66667 133.333 -1.66667 138.667 5 144C-1.66667 149.333 -1.66667 154.667 5 160H845C851.667 154.667 851.667 149.333 845 144C851.667 138.667 851.667 133.333 845 128C851.667 122.667 851.667 117.333 845 112C851.667 106.667 851.667 101.333 845 96C851.667 90.6667 851.667 85.3333 845 80C851.667 74.6667 851.667 69.3333 845 64C851.667 58.6667 851.667 53.3333 845 48C851.667 42.6667 851.667 37.3333 845 32C851.667 26.6667 851.667 21.3333 845 16C851.667 10.6667 851.667 5.33333 845 0H5Z" fill="url(#paint0_linear_945_2937)" stroke="#8A7365" stroke-width="1.5"/>
</g>
<defs>
<linearGradient id="paint0_linear_945_2937" x1="0" y1="0" x2="765000" y2="0" gradientUnits="userSpaceOnUse">
<stop stop-color="#F2F1EF"/>
<stop offset="0.5" stop-color="white"/>
<stop offset="1" stop-color="#F2F1EF"/>
</linearGradient>
<clipPath id="clip0_945_2937">
<rect width="850" height="160" fill="white"/>
</clipPath>
</defs>
</svg>
